<ttFont>
    <TTGlyph name=".notdef" xMin="123" yMin="0" xMax="1028" yMax="1581">
      <contour>
        <pt x="1028" y="0" on="1"/>
        <pt x="123" y="0" on="1"/>
        <pt x="123" y="1581" on="1"/>
        <pt x="1028" y="1581" on="1"/>
      </contour>
      <contour>
        <pt x="954" y="1520" on="1"/>
        <pt x="197" y="1520" on="1"/>
        <pt x="197" y="61" on="1"/>
        <pt x="954" y="61" on="1"/>
      </contour>
    </TTGlyph>
    <TTGlyph name=".ttfautohint" xMin="0" yMin="0" xMax="0" yMax="0">
      <contour>
        <pt x="0" y="0" on="1"/>
      </contour>
    </TTGlyph>
    <TTGlyph name="A" xMin="-197" yMin="0" xMax="1233" yMax="1460">
      <contour>
        <pt x="1138" y="105" on="0"/>
        <pt x="1196" y="43" on="0"/>
        <pt x="1233" y="41" on="1"/>
        <pt x="1225" y="0" on="1"/>
        <pt x="1105" y="6" on="0"/>
        <pt x="879" y="6" on="1"/>
        <pt x="641" y="6" on="0"/>
        <pt x="530" y="0" on="1"/>
        <pt x="539" y="41" on="1"/>
        <pt x="605" y="44" on="0"/>
        <pt x="679" y="69" on="0"/>
        <pt x="716" y="130" on="0"/>
        <pt x="716" y="187" on="1"/>
        <pt x="716" y="204" on="0"/>
        <pt x="715" y="213" on="1"/>
        <pt x="697" y="549" on="1"/>
        <pt x="295" y="549" on="1"/>
        <pt x="96" y="268" on="1"/>
        <pt x="48" y="198" on="0"/>
        <pt x="48" y="151" on="1"/>
        <pt x="48" y="55" on="0"/>
        <pt x="236" y="41" on="1"/>
        <pt x="227" y="0" on="1"/>
        <pt x="16" y="6" on="0"/>
        <pt x="-63" y="6" on="1"/>
        <pt x="-133" y="6" on="0"/>
        <pt x="-197" y="0" on="1"/>
        <pt x="-188" y="41" on="1"/>
        <pt x="-148" y="52" on="0"/>
        <pt x="-80" y="103" on="0"/>
        <pt x="-1" y="198" on="0"/>
        <pt x="61" y="285" on="1"/>
        <pt x="897" y="1460" on="1"/>
        <pt x="930" y="1456" on="0"/>
        <pt x="976" y="1456" on="1"/>
        <pt x="1022" y="1456" on="0"/>
        <pt x="1051" y="1460" on="1"/>
        <pt x="1133" y="172" on="1"/>
      </contour>
      <contour>
        <pt x="670" y="1079" on="1"/>
        <pt x="324" y="590" on="1"/>
        <pt x="695" y="590" on="1"/>
      </contour>
    </TTGlyph>
    <TTGlyph name="AE" xMin="-184" yMin="0" xMax="1974" yMax="1583">
      <contour>
        <pt x="1845" y="1444" on="0"/>
        <pt x="1974" y="1450" on="1"/>
        <pt x="1951" y="1387" on="0"/>
        <pt x="1910" y="1254" on="1"/>
        <pt x="1896" y="1208" on="1"/>
        <pt x="1878" y="1147" on="0"/>
        <pt x="1870" y="1081" on="1"/>
        <pt x="1825" y="1081" on="1"/>
        <pt x="1840" y="1167" on="0"/>
        <pt x="1840" y="1226" on="1"/>
        <pt x="1840" y="1322" on="0"/>
        <pt x="1755" y="1403" on="0"/>
        <pt x="1659" y="1403" on="1"/>
        <pt x="1571" y="1403" on="1"/>
        <pt x="1500" y="1403" on="0"/>
        <pt x="1429" y="1379" on="0"/>
        <pt x="1386" y="1310" on="0"/>
        <pt x="1366" y="1233" on="1"/>
        <pt x="1238" y="750" on="1"/>
        <pt x="1356" y="750" on="1"/>
        <pt x="1414" y="750" on="0"/>
        <pt x="1491" y="811" on="0"/>
        <pt x="1538" y="902" on="0"/>
        <pt x="1567" y="979" on="1"/>
        <pt x="1612" y="979" on="1"/>
        <pt x="1589" y="910" on="0"/>
        <pt x="1558" y="791" on="1"/>
        <pt x="1542" y="729" on="1"/>
        <pt x="1517" y="637" on="0"/>
        <pt x="1489" y="479" on="1"/>
        <pt x="1444" y="479" on="1"/>
        <pt x="1444" y="490" on="0"/>
        <pt x="1449" y="542" on="1"/>
        <pt x="1454" y="579" on="0"/>
        <pt x="1454" y="605" on="1"/>
        <pt x="1454" y="651" on="0"/>
        <pt x="1409" y="705" on="0"/>
        <pt x="1348" y="709" on="1"/>
        <pt x="1227" y="709" on="1"/>
        <pt x="1096" y="217" on="1"/>
        <pt x="1078" y="147" on="0"/>
        <pt x="1078" y="117" on="1"/>
        <pt x="1078" y="88" on="0"/>
        <pt x="1105" y="58" on="0"/>
        <pt x="1161" y="47" on="0"/>
        <pt x="1212" y="47" on="1"/>
        <pt x="1321" y="47" on="1"/>
        <pt x="1420" y="47" on="0"/>
        <pt x="1547" y="115" on="0"/>
        <pt x="1639" y="269" on="0"/>
        <pt x="1688" y="410" on="1"/>
        <pt x="1733" y="410" on="1"/>
        <pt x="1716" y="368" on="0"/>
        <pt x="1690" y="262" on="1"/>
        <pt x="1658" y="154" on="0"/>
        <pt x="1636" y="0" on="1"/>
        <pt x="1497" y="6" on="0"/>
        <pt x="1174" y="6" on="1"/>
        <pt x="698" y="6" on="0"/>
        <pt x="461" y="0" on="1"/>
        <pt x="469" y="41" on="1"/>
        <pt x="543" y="44" on="0"/>
        <pt x="616" y="70" on="0"/>
        <pt x="660" y="140" on="0"/>
        <pt x="680" y="217" on="1"/>
        <pt x="811" y="709" on="1"/>
        <pt x="488" y="709" on="1"/>
        <pt x="61" y="193" on="1"/>
        <pt x="3" y="125" on="0"/>
        <pt x="3" y="96" on="1"/>
        <pt x="3" y="51" on="0"/>
        <pt x="129" y="41" on="1"/>
        <pt x="129" y="0" on="1"/>
        <pt x="74" y="6" on="0"/>
        <pt x="-47" y="6" on="1"/>
        <pt x="-136" y="6" on="0"/>
        <pt x="-184" y="0" on="1"/>
        <pt x="-184" y="41" on="1"/>
        <pt x="-121" y="44" on="0"/>
        <pt x="-8" y="172" on="1"/>
        <pt x="966" y="1351" on="1"/>
        <pt x="960" y="1382" on="0"/>
        <pt x="898" y="1406" on="0"/>
        <pt x="829" y="1409" on="1"/>
        <pt x="840" y="1450" on="1"/>
        <pt x="904" y="1448" on="0"/>
        <pt x="1044" y="1446" on="1"/>
        <pt x="1157" y="1583" on="1"/>
        <pt x="1210" y="1583" on="1"/>
        <pt x="1097" y="1446" on="1"/>
        <pt x="1274" y="1444" on="0"/>
        <pt x="1550" y="1444" on="1"/>
      </contour>
      <contour>
        <pt x="950" y="1233" on="1"/>
        <pt x="957" y="1257" on="0"/>
        <pt x="962" y="1282" on="1"/>
        <pt x="521" y="750" on="1"/>
        <pt x="822" y="750" on="1"/>
      </contour>
    </TTGlyph>
    <TTGlyph name="Aacute" xMin="-197" yMin="0" xMax="1459" yMax="1986">
      <component glyphName=".ttfautohint" x="0" y="0" flags="0x0"/>
      <component glyphName="A" x="0" y="0" flags="0x0"/>
      <component glyphName="acute.case" x="801" y="0" flags="0x0"/>
    </TTGlyph>
    <TTGlyph name="Abreve" xMin="-197" yMin="0" xMax="1512" yMax="1921">
      <component glyphName=".ttfautohint" x="0" y="0" flags="0x0"/>
      <component glyphName="A" x="0" y="0" flags="0x0"/>
      <component glyphName="breve.case" x="508" y="0" flags="0x0"/>
    </TTGlyph>
    <TTGlyph name="Acircumflex" xMin="-197" yMin="0" xMax="1430" yMax="1958">
      <component glyphName=".ttfautohint" x="0" y="0" flags="0x0"/>
      <component glyphName="A" x="0" y="0" flags="0x0"/>
      <component glyphName="circumflex.case" x="535" y="0" flags="0x0"/>
    </TTGlyph>
    <TTGlyph name="Adieresis" xMin="-197" yMin="0" xMax="1436" yMax="1917">
      <component glyphName=".ttfautohint" x="0" y="0" flags="0x0"/>
      <component glyphName="A" x="0" y="0" flags="0x0"/>
      <component glyphName="dieresis.case" x="580" y="0" flags="0x0"/>
    </TTGlyph>
    <TTGlyph name="Agrave" xMin="-197" yMin="0" xMax="1233" yMax="1938">
      <component glyphName=".ttfautohint" x="0" y="0" flags="0x0"/>
      <component glyphName="A" x="0" y="0" flags="0x0"/>
      <component glyphName="grave.case" x="582" y="0" flags="0x0"/>
    </TTGlyph>
    <TTGlyph name="Amacron" xMin="-197" yMin="0" xMax="1421" yMax="1729">
      <component glyphName=".ttfautohint" x="0" y="0" flags="0x0"/>
      <component glyphName="A" x="0" y="0" flags="0x0"/>
      <component glyphName="macron.case" x="555" y="0" flags="0x0"/>
    </TTGlyph>
    <TTGlyph name="Aogonek" xMin="-197" yMin="-385" xMax="1233" yMax="1460">
      <contour>
        <pt x="1056" y="-23" on="0"/>
        <pt x="969" y="-102" on="0"/>
        <pt x="926" y="-188" on="0"/>
        <pt x="926" y="-227" on="1"/>
        <pt x="926" y="-281" on="0"/>
        <pt x="985" y="-281" on="1"/>
        <pt x="1047" y="-281" on="0"/>
        <pt x="1131" y="-242" on="1"/>
        <pt x="1153" y="-276" on="1"/>
        <pt x="998" y="-385" on="0"/>
        <pt x="832" y="-385" on="1"/>
        <pt x="746" y="-385" on="0"/>
        <pt x="645" y="-319" on="0"/>
        <pt x="645" y="-260" on="1"/>
        <pt x="645" y="-172" on="0"/>
        <pt x="891" y="-37" on="0"/>
        <pt x="1080" y="4" on="1"/>
        <pt x="946" y="6" on="0"/>
        <pt x="879" y="6" on="1"/>
        <pt x="641" y="6" on="0"/>
        <pt x="530" y="0" on="1"/>
        <pt x="539" y="41" on="1"/>
        <pt x="605" y="44" on="0"/>
        <pt x="679" y="69" on="0"/>
        <pt x="716" y="130" on="0"/>
        <pt x="716" y="187" on="1"/>
        <pt x="716" y="204" on="0"/>
        <pt x="715" y="213" on="1"/>
        <pt x="697" y="549" on="1"/>
        <pt x="295" y="549" on="1"/>
        <pt x="96" y="268" on="1"/>
        <pt x="48" y="198" on="0"/>
        <pt x="48" y="151" on="1"/>
        <pt x="48" y="55" on="0"/>
        <pt x="236" y="41" on="1"/>
        <pt x="227" y="0" on="1"/>
        <pt x="15" y="6" on="0"/>
        <pt x="-63" y="6" on="1"/>
        <pt x="-133" y="6" on="0"/>
        <pt x="-197" y="0" on="1"/>
        <pt x="-188" y="41" on="1"/>
        <pt x="-148" y="52" on="0"/>
        <pt x="-80" y="103" on="0"/>
        <pt x="-1" y="198" on="0"/>
        <pt x="61" y="285" on="1"/>
        <pt x="897" y="1460" on="1"/>
        <pt x="937" y="1455" on="0"/>
        <pt x="975" y="1455" on="1"/>
        <pt x="1013" y="1455" on="0"/>
        <pt x="1051" y="1460" on="1"/>
        <pt x="1133" y="172" on="1"/>
        <pt x="1138" y="105" on="0"/>
        <pt x="1196" y="43" on="0"/>
        <pt x="1233" y="41" on="1"/>
        <pt x="1225" y="0" on="1"/>
        <pt x="1141" y="3" on="0"/>
        <pt x="1118" y="3" on="1"/>
      </contour>
      <contour>
        <pt x="670" y="1079" on="1"/>
        <pt x="324" y="590" on="1"/>
        <pt x="695" y="590" on="1"/>
      </contour>
    </TTGlyph>
    <TTGlyph name="Aring" xMin="-197" yMin="0" xMax="1256" yMax="1935">
      <component glyphName=".ttfautohint" x="0" y="0" flags="0x0"/>
      <component glyphName="A" x="0" y="0" flags="0x0"/>
      <component glyphName="ring.case" x="699" y="0" flags="0x0"/>
    </TTGlyph>
    <TTGlyph name="Atilde" xMin="-197" yMin="0" xMax="1533" yMax="1942">
      <component glyphName=".ttfautohint" x="0" y="0" flags="0x0"/>
      <component glyphName="A" x="0" y="0" flags="0x0"/>
      <component glyphName="tilde.case" x="482" y="0" flags="0x0"/>
    </TTGlyph>
    <TTGlyph name="B" xMin="-98" yMin="0" xMax="1438" yMax="1450">
      <contour>
        <pt x="968" y="760" on="0"/>
        <pt x="1214" y="682" on="0"/>
        <pt x="1343" y="542" on="0"/>
        <pt x="1343" y="451" on="1"/>
        <pt x="1343" y="309" on="0"/>
        <pt x="1172" y="106" on="0"/>
        <pt x="850" y="0" on="0"/>
        <pt x="627" y="0" on="1"/>
        <pt x="607" y="0" on="0"/>
        <pt x="527" y="2" on="1"/>
        <pt x="401" y="6" on="0"/>
        <pt x="264" y="6" on="1"/>
        <pt x="31" y="6" on="0"/>
        <pt x="-98" y="0" on="1"/>
        <pt x="-90" y="41" on="1"/>
        <pt x="-16" y="44" on="0"/>
        <pt x="57" y="70" on="0"/>
        <pt x="101" y="140" on="0"/>
        <pt x="121" y="217" on="1"/>
        <pt x="391" y="1233" on="1"/>
        <pt x="409" y="1300" on="0"/>
        <pt x="409" y="1332" on="1"/>
        <pt x="409" y="1372" on="0"/>
        <pt x="349" y="1407" on="0"/>
        <pt x="270" y="1409" on="1"/>
        <pt x="281" y="1450" on="1"/>
        <pt x="407" y="1444" on="0"/>
        <pt x="637" y="1444" on="1"/>
        <pt x="729" y="1444" on="0"/>
        <pt x="831" y="1446" on="1"/>
        <pt x="909" y="1448" on="0"/>
        <pt x="942" y="1448" on="1"/>
        <pt x="1438" y="1448" on="0"/>
        <pt x="1438" y="1171" on="1"/>
        <pt x="1438" y="1061" on="0"/>
        <pt x="1287" y="877" on="0"/>
        <pt x="998" y="764" on="0"/>
        <pt x="799" y="758" on="1"/>
      </contour>
      <contour>
        <pt x="892" y="1409" on="0"/>
        <pt x="856" y="1385" on="0"/>
        <pt x="829" y="1324" on="0"/>
        <pt x="813" y="1264" on="1"/>
        <pt x="683" y="770" on="1"/>
        <pt x="713" y="770" on="1"/>
        <pt x="816" y="770" on="0"/>
        <pt x="962" y="902" on="0"/>
        <pt x="1036" y="1115" on="0"/>
        <pt x="1036" y="1235" on="1"/>
        <pt x="1036" y="1318" on="0"/>
        <pt x="988" y="1409" on="0"/>
        <pt x="922" y="1409" on="1"/>
      </contour>
      <contour>
        <pt x="688" y="47" on="0"/>
        <pt x="829" y="176" on="0"/>
        <pt x="909" y="382" on="0"/>
        <pt x="909" y="492" on="1"/>
        <pt x="909" y="599" on="0"/>
        <pt x="818" y="735" on="0"/>
        <pt x="713" y="735" on="1"/>
        <pt x="674" y="735" on="1"/>
        <pt x="537" y="217" on="1"/>
        <pt x="521" y="157" on="0"/>
        <pt x="521" y="124" on="1"/>
        <pt x="521" y="47" on="0"/>
        <pt x="602" y="47" on="1"/>
      </contour>
    </TTGlyph>
    <TTGlyph name="C" xMin="76" yMin="-29" xMax="1573" yMax="1479">
      <contour>
        <pt x="1505" y="1273" on="0"/>
        <pt x="1442" y="979" on="1"/>
        <pt x="1397" y="979" on="1"/>
        <pt x="1417" y="1097" on="0"/>
        <pt x="1417" y="1156" on="1"/>
        <pt x="1417" y="1246" on="0"/>
        <pt x="1382" y="1305" on="1"/>
        <pt x="1344" y="1370" on="0"/>
        <pt x="1236" y="1421" on="0"/>
        <pt x="1157" y="1421" on="1"/>
        <pt x="996" y="1421" on="0"/>
        <pt x="715" y="1154" on="0"/>
        <pt x="547" y="710" on="0"/>
        <pt x="547" y="457" on="1"/>
        <pt x="547" y="250" on="0"/>
        <pt x="688" y="49" on="0"/>
        <pt x="815" y="49" on="1"/>
        <pt x="884" y="49" on="0"/>
        <pt x="1029" y="112" on="0"/>
        <pt x="1081" y="168" on="1"/>
        <pt x="1135" y="226" on="0"/>
        <pt x="1215" y="368" on="0"/>
        <pt x="1266" y="492" on="1"/>
        <pt x="1311" y="492" on="1"/>
        <pt x="1214" y="137" on="0"/>
        <pt x="1190" y="0" on="1"/>
        <pt x="1145" y="0" on="1"/>
        <pt x="1151" y="44" on="0"/>
        <pt x="1151" y="70" on="1"/>
        <pt x="1151" y="122" on="0"/>
        <pt x="1125" y="122" on="1"/>
        <pt x="1109" y="122" on="0"/>
        <pt x="1083" y="104" on="1"/>
        <pt x="891" y="-29" on="0"/>
        <pt x="674" y="-29" on="1"/>
        <pt x="369" y="-29" on="0"/>
        <pt x="76" y="243" on="0"/>
        <pt x="76" y="496" on="1"/>
        <pt x="76" y="742" on="0"/>
        <pt x="347" y="1196" on="0"/>
        <pt x="823" y="1479" on="0"/>
        <pt x="1114" y="1479" on="1"/>
        <pt x="1226" y="1479" on="0"/>
        <pt x="1364" y="1408" on="0"/>
        <pt x="1417" y="1346" on="1"/>
        <pt x="1432" y="1328" on="0"/>
        <pt x="1447" y="1328" on="1"/>
        <pt x="1485" y="1328" on="0"/>
        <pt x="1530" y="1450" on="1"/>
        <pt x="1573" y="1450" on="1"/>
      </contour>
    </TTGlyph>
    <TTGlyph name="Cacute" xMin="76" yMin="-29" xMax="1573" yMax="1986">
      <component glyphName=".ttfautohint" x="76" y="0" flags="0x0"/>
      <component glyphName="C" x="0" y="0" flags="0x0"/>
      <component glyphName="acute.case" x="872" y="0" flags="0x0"/>
    </TTGlyph>
    <TTGlyph name="Cacute.loclPLK" xMin="76" yMin="-29" xMax="1573" yMax="2035">
      <component glyphName=".ttfautohint" x="76" y="0" flags="0x0"/>
      <component glyphName="C" x="0" y="0" flags="0x0"/>
      <component glyphName="acute.loclPLK.case" x="929" y="0" flags="0x0"/>
    </TTGlyph>
    <TTGlyph name="Ccaron" xMin="76" yMin="-29" xMax="1679" yMax="1937">
      <component glyphName=".ttfautohint" x="76" y="0" flags="0x0"/>
      <component glyphName="C" x="0" y="0" flags="0x0"/>
      <component glyphName="caron.case" x="600" y="0" flags="0x0"/>
    </TTGlyph>
    <TTGlyph name="Ccedilla" xMin="76" yMin="-385" xMax="1573" yMax="1479">
      <contour>
        <pt x="1505" y="1273" on="0"/>
        <pt x="1442" y="979" on="1"/>
        <pt x="1397" y="979" on="1"/>
        <pt x="1417" y="1097" on="0"/>
        <pt x="1417" y="1156" on="1"/>
        <pt x="1417" y="1246" on="0"/>
        <pt x="1382" y="1305" on="1"/>
        <pt x="1344" y="1370" on="0"/>
        <pt x="1236" y="1421" on="0"/>
        <pt x="1157" y="1421" on="1"/>
        <pt x="996" y="1421" on="0"/>
        <pt x="715" y="1154" on="0"/>
        <pt x="547" y="710" on="0"/>
        <pt x="547" y="457" on="1"/>
        <pt x="547" y="250" on="0"/>
        <pt x="688" y="49" on="0"/>
        <pt x="815" y="49" on="1"/>
        <pt x="884" y="49" on="0"/>
        <pt x="1029" y="112" on="0"/>
        <pt x="1081" y="168" on="1"/>
        <pt x="1135" y="226" on="0"/>
        <pt x="1215" y="368" on="0"/>
        <pt x="1266" y="492" on="1"/>
        <pt x="1311" y="492" on="1"/>
        <pt x="1214" y="137" on="0"/>
        <pt x="1190" y="0" on="1"/>
        <pt x="1145" y="0" on="1"/>
        <pt x="1151" y="44" on="0"/>
        <pt x="1151" y="70" on="1"/>
        <pt x="1151" y="122" on="0"/>
        <pt x="1125" y="122" on="1"/>
        <pt x="1109" y="122" on="0"/>
        <pt x="1083" y="104" on="1"/>
        <pt x="905" y="-20" on="0"/>
        <pt x="702" y="-28" on="1"/>
        <pt x="663" y="-117" on="1"/>
        <pt x="725" y="-92" on="0"/>
        <pt x="790" y="-92" on="1"/>
        <pt x="863" y="-92" on="0"/>
        <pt x="948" y="-146" on="0"/>
        <pt x="948" y="-201" on="1"/>
        <pt x="948" y="-265" on="0"/>
        <pt x="842" y="-347" on="0"/>
        <pt x="673" y="-385" on="0"/>
        <pt x="577" y="-385" on="1"/>
        <pt x="508" y="-385" on="0"/>
        <pt x="381" y="-362" on="0"/>
        <pt x="340" y="-348" on="1"/>
        <pt x="352" y="-315" on="1"/>
        <pt x="375" y="-321" on="0"/>
        <pt x="478" y="-336" on="0"/>
        <pt x="518" y="-336" on="1"/>
        <pt x="686" y="-336" on="0"/>
        <pt x="686" y="-250" on="1"/>
        <pt x="686" y="-203" on="0"/>
        <pt x="629" y="-203" on="1"/>
        <pt x="597" y="-203" on="0"/>
        <pt x="565" y="-217" on="1"/>
        <pt x="647" y="-29" on="1"/>
        <pt x="355" y="-22" on="0"/>
        <pt x="76" y="248" on="0"/>
        <pt x="76" y="496" on="1"/>
        <pt x="76" y="742" on="0"/>
        <pt x="347" y="1196" on="0"/>
        <pt x="823" y="1479" on="0"/>
        <pt x="1114" y="1479" on="1"/>
        <pt x="1226" y="1479" on="0"/>
        <pt x="1364" y="1408" on="0"/>
        <pt x="1417" y="1346" on="1"/>
        <pt x="1432" y="1328" on="0"/>
        <pt x="1447" y="1328" on="1"/>
        <pt x="1485" y="1328" on="0"/>
        <pt x="1530" y="1450" on="1"/>
        <pt x="1573" y="1450" on="1"/>
      </contour>
    </TTGlyph>
    <TTGlyph name="Ccircumflex" xMin="76" yMin="-29" xMax="1573" yMax="1958">
      <component glyphName=".ttfautohint" x="76" y="0" flags="0x0"/>
      <component glyphName="C" x="0" y="0" flags="0x0"/>
      <component glyphName="circumflex.case" x="606" y="0" flags="0x0"/>
    </TTGlyph>
    <TTGlyph name="Cdotaccent" xMin="76" yMin="-29" xMax="1573" yMax="1909">
      <component glyphName=".ttfautohint" x="76" y="0" flags="0x0"/>
      <component glyphName="C" x="0" y="0" flags="0x0"/>
      <component glyphName="dotaccent.case" x="954" y="0" flags="0x0"/>
    </TTGlyph>
    <TTGlyph name="D" xMin="-88" yMin="0" xMax="1620" yMax="1450">
      <contour>
        <pt x="1620" y="714" on="0"/>
        <pt x="1407" y="285" on="0"/>
        <pt x="941" y="0" on="0"/>
        <pt x="584" y="0" on="1"/>
        <pt x="565" y="0" on="0"/>
        <pt x="491" y="2" on="1"/>
        <pt x="377" y="6" on="0"/>
        <pt x="260" y="6" on="1"/>
        <pt x="35" y="6" on="0"/>
        <pt x="-88" y="0" on="1"/>
        <pt x="-82" y="41" on="1"/>
        <pt x="-12" y="44" on="0"/>
        <pt x="59" y="70" on="0"/>
        <pt x="103" y="141" on="0"/>
        <pt x="123" y="217" on="1"/>
        <pt x="391" y="1233" on="1"/>
        <pt x="404" y="1282" on="0"/>
        <pt x="404" y="1313" on="1"/>
        <pt x="404" y="1357" on="0"/>
        <pt x="345" y="1405" on="0"/>
        <pt x="272" y="1409" on="1"/>
        <pt x="279" y="1450" on="1"/>
        <pt x="442" y="1443" on="0"/>
        <pt x="597" y="1443" on="1"/>
        <pt x="672" y="1444" on="1"/>
        <pt x="843" y="1450" on="0"/>
        <pt x="975" y="1450" on="1"/>
        <pt x="1282" y="1450" on="0"/>
        <pt x="1620" y="1190" on="0"/>
        <pt x="1620" y="936" on="1"/>
      </contour>
      <contour>
        <pt x="780" y="37" on="0"/>
        <pt x="1053" y="336" on="0"/>
        <pt x="1198" y="789" on="0"/>
        <pt x="1198" y="1010" on="1"/>
        <pt x="1198" y="1413" on="0"/>
        <pt x="938" y="1413" on="1"/>
        <pt x="894" y="1413" on="0"/>
        <pt x="855" y="1393" on="0"/>
        <pt x="833" y="1338" on="0"/>
        <pt x="814" y="1264" on="1"/>
        <pt x="807" y="1237" on="1"/>
        <pt x="539" y="213" on="1"/>
        <pt x="514" y="120" on="0"/>
        <pt x="514" y="91" on="1"/>
        <pt x="514" y="61" on="0"/>
        <pt x="552" y="37" on="0"/>
        <pt x="600" y="37" on="1"/>
      </contour>
    </TTGlyph>
    <TTGlyph name="Dcaron" xMin="-88" yMin="0" xMax="1620" yMax="1937">
      <component glyphName=".ttfautohint" x="0" y="0" flags="0x0"/>
      <component glyphName="D" x="0" y="0" flags="0x0"/>
      <component glyphName="caron.case" x="518" y="0" flags="0x0"/>
    </TTGlyph>
    <TTGlyph name="Dcroat" xMin="-88" yMin="0" xMax="1620" yMax="1450">
      <component glyphName=".ttfautohint" x="0" y="0" flags="0x0"/>
      <component glyphName="Eth" x="0" y="0" flags="0x0"/>
    </TTGlyph>
    <TTGlyph name="Delta" xMin="33" yMin="0" xMax="938" yMax="1479">
      <contour>
        <pt x="713" y="6" on="0"/>
        <pt x="487" y="6" on="1"/>
        <pt x="260" y="6" on="0"/>
        <pt x="33" y="0" on="1"/>
        <pt x="510" y="1479" on="1"/>
        <pt x="543" y="1479" on="1"/>
        <pt x="938" y="0" on="1"/>
      </contour>
      <contour>
        <pt x="569" y="61" on="1"/>
        <pt x="350" y="864" on="1"/>
        <pt x="94" y="61" on="1"/>
      </contour>
    </TTGlyph>
    <TTGlyph name="E" xMin="-98" yMin="0" xMax="1415" yMax="1450">
      <contour>
        <pt x="1286" y="1444" on="0"/>
        <pt x="1415" y="1450" on="1"/>
        <pt x="1365" y="1321" on="0"/>
        <pt x="1337" y="1208" on="1"/>
        <pt x="1326" y="1162" on="0"/>
        <pt x="1311" y="1081" on="1"/>
        <pt x="1266" y="1081" on="1"/>
        <pt x="1267" y="1200" on="0"/>
        <pt x="1212" y="1342" on="0"/>
        <pt x="1103" y="1403" on="0"/>
        <pt x="1018" y="1403" on="1"/>
        <pt x="1012" y="1403" on="1"/>
        <pt x="941" y="1403" on="0"/>
        <pt x="870" y="1379" on="0"/>
        <pt x="827" y="1310" on="0"/>
        <pt x="807" y="1233" on="1"/>
        <pt x="679" y="750" on="1"/>
        <pt x="715" y="750" on="1"/>
        <pt x="779" y="750" on="0"/>
        <pt x="897" y="813" on="0"/>
        <pt x="985" y="918" on="0"/>
        <pt x="1008" y="979" on="1"/>
        <pt x="1053" y="979" on="1"/>
        <pt x="1030" y="910" on="0"/>
        <pt x="999" y="791" on="1"/>
        <pt x="983" y="729" on="1"/>
        <pt x="956" y="627" on="0"/>
        <pt x="930" y="479" on="1"/>
        <pt x="885" y="479" on="1"/>
        <pt x="885" y="533" on="0"/>
        <pt x="847" y="638" on="0"/>
        <pt x="758" y="709" on="0"/>
        <pt x="686" y="709" on="1"/>
        <pt x="668" y="709" on="1"/>
        <pt x="537" y="217" on="1"/>
        <pt x="519" y="147" on="0"/>
        <pt x="519" y="117" on="1"/>
        <pt x="519" y="88" on="0"/>
        <pt x="546" y="58" on="0"/>
        <pt x="602" y="47" on="0"/>
        <pt x="653" y="47" on="1"/>
        <pt x="680" y="47" on="1"/>
        <pt x="780" y="47" on="0"/>
        <pt x="931" y="116" on="0"/>
        <pt x="1061" y="273" on="0"/>
        <pt x="1128" y="410" on="1"/>
        <pt x="1174" y="410" on="1"/>
        <pt x="1160" y="374" on="0"/>
        <pt x="1130" y="262" on="1"/>
        <pt x="1098" y="145" on="0"/>
        <pt x="1077" y="0" on="1"/>
        <pt x="938" y="6" on="0"/>
        <pt x="614" y="6" on="1"/>
        <pt x="139" y="6" on="0"/>
        <pt x="-98" y="0" on="1"/>
        <pt x="-90" y="41" on="1"/>
        <pt x="-16" y="44" on="0"/>
        <pt x="57" y="70" on="0"/>
        <pt x="101" y="140" on="0"/>
        <pt x="121" y="217" on="1"/>
        <pt x="391" y="1233" on="1"/>
        <pt x="408" y="1298" on="0"/>
        <pt x="408" y="1331" on="1"/>
        <pt x="408" y="1362" on="0"/>
        <pt x="381" y="1394" on="0"/>
        <pt x="323" y="1407" on="0"/>
        <pt x="270" y="1409" on="1"/>
        <pt x="281" y="1450" on="1"/>
        <pt x="516" y="1444" on="0"/>
        <pt x="991" y="1444" on="1"/>
      </contour>
    </TTGlyph>
    <TTGlyph name="Eacute" xMin="-98" yMin="0" xMax="1415" yMax="1986">
      <component glyphName=".ttfautohint" x="0" y="0" flags="0x0"/>
      <component glyphName="E" x="0" y="0" flags="0x0"/>
      <component glyphName="acute.case" x="711" y="0" flags="0x0"/>
    </TTGlyph>
    <TTGlyph name="Ebreve" xMin="-98" yMin="0" xMax="1422" yMax="1921">
      <component glyphName=".ttfautohint" x="0" y="0" flags="0x0"/>
      <component glyphName="E" x="0" y="0" flags="0x0"/>
      <component glyphName="breve.case" x="418" y="0" flags="0x0"/>
    </TTGlyph>
    <TTGlyph name="Ecaron" xMin="-98" yMin="0" xMax="1518" yMax="1937">
      <component glyphName=".ttfautohint" x="0" y="0" flags="0x0"/>
      <component glyphName="E" x="0" y="0" flags="0x0"/>
      <component glyphName="caron.case" x="439" y="0" flags="0x0"/>
    </TTGlyph>
    <TTGlyph name="Ecircumflex" xMin="-98" yMin="0" xMax="1415" yMax="1958">
      <component glyphName=".ttfautohint" x="0" y="0" flags="0x0"/>
      <component glyphName="E" x="0" y="0" flags="0x0"/>
      <component glyphName="circumflex.case" x="445" y="0" flags="0x0"/>
    </TTGlyph>
    <TTGlyph name="Edieresis" xMin="-98" yMin="0" xMax="1415" yMax="1917">
      <component glyphName=".ttfautohint" x="0" y="0" flags="0x0"/>
      <component glyphName="E" x="0" y="0" flags="0x0"/>
      <component glyphName="dieresis.case" x="490" y="0" flags="0x0"/>
    </TTGlyph>
    <TTGlyph name="Edotaccent" xMin="-98" yMin="0" xMax="1415" yMax="1909">
      <component glyphName=".ttfautohint" x="0" y="0" flags="0x0"/>
      <component glyphName="E" x="0" y="0" flags="0x0"/>
      <component glyphName="dotaccent.case" x="711" y="0" flags="0x0"/>
    </TTGlyph>
    <TTGlyph name="Egrave" xMin="-98" yMin="0" xMax="1415" yMax="1938">
      <component glyphName=".ttfautohint" x="0" y="0" flags="0x0"/>
      <component glyphName="E" x="0" y="0" flags="0x0"/>
      <component glyphName="grave.case" x="492" y="0" flags="0x0"/>
    </TTGlyph>
    <TTGlyph name="Emacron" xMin="-98" yMin="0" xMax="1415" yMax="1729">
      <component glyphName=".ttfautohint" x="0" y="0" flags="0x0"/>
      <component glyphName="E" x="0" y="0" flags="0x0"/>
      <component glyphName="macron.case" x="465" y="0" flags="0x0"/>
    </TTGlyph>
    <TTGlyph name="Eng" xMin="-92" yMin="-385" xMax="1686" yMax="1450">
      <contour>
        <pt x="1614" y="1444" on="0"/>
        <pt x="1686" y="1450" on="1"/>
        <pt x="1675" y="1409" on="1"/>
        <pt x="1600" y="1406" on="0"/>
        <pt x="1527" y="1380" on="0"/>
        <pt x="1484" y="1310" on="0"/>
        <pt x="1464" y="1233" on="1"/>
        <pt x="1137" y="-10" on="1"/>
        <pt x="1112" y="-128" on="0"/>
        <pt x="1041" y="-289" on="0"/>
        <pt x="913" y="-385" on="0"/>
        <pt x="811" y="-385" on="1"/>
        <pt x="694" y="-385" on="0"/>
        <pt x="524" y="-297" on="0"/>
        <pt x="524" y="-203" on="1"/>
        <pt x="524" y="-123" on="0"/>
        <pt x="636" y="-25" on="0"/>
        <pt x="737" y="-25" on="1"/>
        <pt x="828" y="-25" on="0"/>
        <pt x="944" y="-102" on="0"/>
        <pt x="944" y="-174" on="1"/>
        <pt x="944" y="-288" on="0"/>
        <pt x="807" y="-346" on="1"/>
        <pt x="823" y="-350" on="0"/>
        <pt x="834" y="-350" on="1"/>
        <pt x="914" y="-350" on="0"/>
        <pt x="1017" y="-250" on="0"/>
        <pt x="1072" y="-105" on="0"/>
        <pt x="1092" y="-10" on="1"/>
        <pt x="375" y="971" on="1"/>
        <pt x="172" y="217" on="1"/>
        <pt x="154" y="154" on="0"/>
        <pt x="154" y="119" on="1"/>
        <pt x="154" y="88" on="0"/>
        <pt x="182" y="56" on="0"/>
        <pt x="240" y="43" on="0"/>
        <pt x="293" y="41" on="1"/>
        <pt x="285" y="0" on="1"/>
        <pt x="212" y="6" on="0"/>
        <pt x="102" y="6" on="1"/>
        <pt x="-25" y="6" on="0"/>
        <pt x="-92" y="0" on="1"/>
        <pt x="-84" y="41" on="1"/>
        <pt x="-9" y="44" on="0"/>
        <pt x="64" y="70" on="0"/>
        <pt x="107" y="140" on="0"/>
        <pt x="127" y="217" on="1"/>
        <pt x="397" y="1233" on="1"/>
        <pt x="413" y="1295" on="0"/>
        <pt x="413" y="1327" on="1"/>
        <pt x="413" y="1359" on="0"/>
        <pt x="382" y="1393" on="0"/>
        <pt x="314" y="1407" on="0"/>
        <pt x="252" y="1409" on="1"/>
        <pt x="262" y="1450" on="1"/>
        <pt x="326" y="1444" on="0"/>
        <pt x="444" y="1444" on="1"/>
        <pt x="540" y="1444" on="0"/>
        <pt x="610" y="1450" on="1"/>
        <pt x="1243" y="563" on="1"/>
        <pt x="1419" y="1233" on="1"/>
        <pt x="1436" y="1298" on="0"/>
        <pt x="1436" y="1331" on="1"/>
        <pt x="1436" y="1362" on="0"/>
        <pt x="1409" y="1394" on="0"/>
        <pt x="1351" y="1407" on="0"/>
        <pt x="1298" y="1409" on="1"/>
        <pt x="1309" y="1450" on="1"/>
        <pt x="1379" y="1444" on="0"/>
        <pt x="1499" y="1444" on="1"/>
      </contour>
    </TTGlyph>
    <TTGlyph name="Eogonek" xMin="-98" yMin="-385" xMax="1415" yMax="1450">
      <contour>
        <pt x="1286" y="1444" on="0"/>
        <pt x="1415" y="1450" on="1"/>
        <pt x="1365" y="1321" on="0"/>
        <pt x="1337" y="1208" on="1"/>
        <pt x="1326" y="1162" on="0"/>
        <pt x="1311" y="1081" on="1"/>
        <pt x="1266" y="1081" on="1"/>
        <pt x="1267" y="1200" on="0"/>
        <pt x="1212" y="1342" on="0"/>
        <pt x="1103" y="1403" on="0"/>
        <pt x="1018" y="1403" on="1"/>
        <pt x="1012" y="1403" on="1"/>
        <pt x="941" y="1403" on="0"/>
        <pt x="870" y="1379" on="0"/>
        <pt x="827" y="1310" on="0"/>
        <pt x="807" y="1233" on="1"/>
        <pt x="679" y="750" on="1"/>
        <pt x="715" y="750" on="1"/>
        <pt x="779" y="750" on="0"/>
        <pt x="897" y="813" on="0"/>
        <pt x="985" y="918" on="0"/>
        <pt x="1008" y="979" on="1"/>
        <pt x="1053" y="979" on="1"/>
        <pt x="1030" y="910" on="0"/>
        <pt x="999" y="791" on="1"/>
        <pt x="983" y="729" on="1"/>
        <pt x="956" y="627" on="0"/>
        <pt x="930" y="479" on="1"/>
        <pt x="885" y="479" on="1"/>
        <pt x="885" y="533" on="0"/>
        <pt x="847" y="638" on="0"/>
        <pt x="758" y="709" on="0"/>
        <pt x="686" y="709" on="1"/>
        <pt x="668" y="709" on="1"/>
        <pt x="537" y="217" on="1"/>
        <pt x="519" y="147" on="0"/>
        <pt x="519" y="117" on="1"/>
        <pt x="519" y="88" on="0"/>
        <pt x="546" y="58" on="0"/>
        <pt x="602" y="47" on="0"/>
        <pt x="653" y="47" on="1"/>
        <pt x="680" y="47" on="1"/>
        <pt x="780" y="47" on="0"/>
        <pt x="931" y="116" on="0"/>
        <pt x="1061" y="273" on="0"/>
        <pt x="1128" y="410" on="1"/>
        <pt x="1174" y="410" on="1"/>
        <pt x="1160" y="374" on="0"/>
        <pt x="1130" y="262" on="1"/>
        <pt x="1098" y="145" on="0"/>
        <pt x="1077" y="0" on="1"/>
        <pt x="1060" y="1" on="1"/>
        <pt x="1000" y="-26" on="0"/>
        <pt x="916" y="-104" on="0"/>
        <pt x="875" y="-189" on="0"/>
        <pt x="875" y="-227" on="1"/>
        <pt x="875" y="-281" on="0"/>
        <pt x="934" y="-281" on="1"/>
        <pt x="996" y="-281" on="0"/>
        <pt x="1080" y="-242" on="1"/>
        <pt x="1102" y="-276" on="1"/>
        <pt x="947" y="-385" on="0"/>
        <pt x="781" y="-385" on="1"/>
        <pt x="695" y="-385" on="0"/>
        <pt x="594" y="-319" on="0"/>
        <pt x="594" y="-260" on="1"/>
        <pt x="594" y="-173" on="0"/>
        <pt x="833" y="-40" on="0"/>
        <pt x="1019" y="2" on="1"/>
        <pt x="889" y="6" on="0"/>
        <pt x="614" y="6" on="1"/>
        <pt x="139" y="6" on="0"/>
        <pt x="-98" y="0" on="1"/>
        <pt x="-90" y="41" on="1"/>
        <pt x="-16" y="44" on="0"/>
        <pt x="57" y="70" on="0"/>
        <pt x="101" y="140" on="0"/>
        <pt x="121" y="217" on="1"/>
        <pt x="391" y="1233" on="1"/>
        <pt x="408" y="1298" on="0"/>
        <pt x="408" y="1331" on="1"/>
        <pt x="408" y="1362" on="0"/>
        <pt x="381" y="1394" on="0"/>
        <pt x="323" y="1407" on="0"/>
        <pt x="270" y="1409" on="1"/>
        <pt x="281" y="1450" on="1"/>
        <pt x="516" y="1444" on="0"/>
        <pt x="991" y="1444" on="1"/>
      </contour>
    </TTGlyph>
    <TTGlyph name="Eth" xMin="-88" yMin="0" xMax="1620" yMax="1450">
      <contour>
        <pt x="1282" y="1450" on="0"/>
        <pt x="1620" y="1190" on="0"/>
        <pt x="1620" y="936" on="1"/>
        <pt x="1620" y="714" on="0"/>
        <pt x="1407" y="285" on="0"/>
        <pt x="941" y="0" on="0"/>
        <pt x="584" y="0" on="1"/>
        <pt x="565" y="0" on="0"/>
        <pt x="491" y="2" on="1"/>
        <pt x="377" y="6" on="0"/>
        <pt x="260" y="6" on="1"/>
        <pt x="35" y="6" on="0"/>
        <pt x="-88" y="0" on="1"/>
        <pt x="-82" y="41" on="1"/>
        <pt x="-12" y="44" on="0"/>
        <pt x="59" y="70" on="0"/>
        <pt x="103" y="141" on="0"/>
        <pt x="123" y="217" on="1"/>
        <pt x="252" y="706" on="1"/>
        <pt x="112" y="706" on="1"/>
        <pt x="125" y="758" on="1"/>
        <pt x="266" y="758" on="1"/>
        <pt x="391" y="1233" on="1"/>
        <pt x="404" y="1282" on="0"/>
        <pt x="404" y="1313" on="1"/>
        <pt x="404" y="1357" on="0"/>
        <pt x="345" y="1405" on="0"/>
        <pt x="272" y="1409" on="1"/>
        <pt x="279" y="1450" on="1"/>
        <pt x="442" y="1443" on="0"/>
        <pt x="597" y="1443" on="1"/>
        <pt x="672" y="1444" on="1"/>
        <pt x="843" y="1450" on="0"/>
        <pt x="975" y="1450" on="1"/>
      </contour>
      <contour>
        <pt x="780" y="37" on="0"/>
        <pt x="1053" y="336" on="0"/>
        <pt x="1198" y="789" on="0"/>
        <pt x="1198" y="1010" on="1"/>
        <pt x="1198" y="1413" on="0"/>
        <pt x="938" y="1413" on="1"/>
        <pt x="894" y="1413" on="0"/>
        <pt x="855" y="1393" on="0"/>
        <pt x="833" y="1338" on="0"/>
        <pt x="814" y="1264" on="1"/>
        <pt x="807" y="1237" on="1"/>
        <pt x="682" y="758" on="1"/>
        <pt x="1009" y="758" on="1"/>
        <pt x="997" y="706" on="1"/>
        <pt x="668" y="706" on="1"/>
        <pt x="539" y="213" on="1"/>
        <pt x="514" y="120" on="0"/>
        <pt x="514" y="91" on="1"/>
        <pt x="514" y="61" on="0"/>
        <pt x="552" y="37" on="0"/>
        <pt x="600" y="37" on="1"/>
      </contour>
    </TTGlyph>
    <TTGlyph name="Euro" xMin="70" yMin="-29" xMax="1458" yMax="1479">
      <contour>
        <pt x="1406" y="1368" on="0"/>
        <pt x="1458" y="1252" on="0"/>
        <pt x="1458" y="1188" on="1"/>
        <pt x="1458" y="1121" on="0"/>
        <pt x="1404" y="1018" on="0"/>
        <pt x="1314" y="963" on="0"/>
        <pt x="1262" y="963" on="1"/>
        <pt x="1193" y="963" on="0"/>
        <pt x="1108" y="1052" on="0"/>
        <pt x="1108" y="1122" on="1"/>
        <pt x="1108" y="1207" on="0"/>
        <pt x="1229" y="1342" on="0"/>
        <pt x="1315" y="1380" on="1"/>
        <pt x="1306" y="1397" on="0"/>
        <pt x="1242" y="1423" on="0"/>
        <pt x="1206" y="1423" on="1"/>
        <pt x="1118" y="1423" on="0"/>
        <pt x="942" y="1270" on="0"/>
        <pt x="790" y="1011" on="0"/>
        <pt x="735" y="854" on="1"/>
        <pt x="1055" y="854" on="1"/>
        <pt x="1020" y="813" on="1"/>
        <pt x="721" y="813" on="1"/>
        <pt x="696" y="734" on="0"/>
        <pt x="676" y="649" on="1"/>
        <pt x="885" y="649" on="1"/>
        <pt x="848" y="608" on="1"/>
        <pt x="667" y="608" on="1"/>
        <pt x="637" y="455" on="0"/>
        <pt x="637" y="328" on="1"/>
        <pt x="637" y="219" on="0"/>
        <pt x="671" y="86" on="0"/>
        <pt x="747" y="23" on="0"/>
        <pt x="811" y="23" on="1"/>
        <pt x="842" y="23" on="0"/>
        <pt x="913" y="37" on="0"/>
        <pt x="936" y="51" on="1"/>
        <pt x="898" y="79" on="0"/>
        <pt x="846" y="175" on="0"/>
        <pt x="846" y="227" on="1"/>
        <pt x="846" y="296" on="0"/>
        <pt x="902" y="405" on="0"/>
        <pt x="996" y="465" on="0"/>
        <pt x="1051" y="465" on="1"/>
        <pt x="1127" y="465" on="0"/>
        <pt x="1204" y="377" on="0"/>
        <pt x="1204" y="301" on="1"/>
        <pt x="1204" y="216" on="0"/>
        <pt x="1095" y="76" on="0"/>
        <pt x="1004" y="29" on="1"/>
        <pt x="950" y="1" on="0"/>
        <pt x="823" y="-29" on="0"/>
        <pt x="731" y="-29" on="1"/>
        <pt x="478" y="-29" on="0"/>
        <pt x="223" y="200" on="0"/>
        <pt x="223" y="451" on="1"/>
        <pt x="223" y="523" on="0"/>
        <pt x="240" y="608" on="1"/>
        <pt x="70" y="608" on="1"/>
        <pt x="82" y="649" on="1"/>
        <pt x="249" y="649" on="1"/>
        <pt x="269" y="731" on="0"/>
        <pt x="303" y="813" on="1"/>
        <pt x="125" y="813" on="1"/>
        <pt x="137" y="854" on="1"/>
        <pt x="321" y="854" on="1"/>
        <pt x="397" y="1022" on="0"/>
        <pt x="637" y="1305" on="0"/>
        <pt x="958" y="1479" on="0"/>
        <pt x="1141" y="1479" on="1"/>
        <pt x="1274" y="1479" on="0"/>
        <pt x="1358" y="1409" on="1"/>
      </contour>
    </TTGlyph>
    <TTGlyph name="Euro.smcp" xMin="41" yMin="-29" xMax="1294" yMax="1274">
      <contour>
        <pt x="944" y="1002" on="0"/>
        <pt x="1065" y="1136" on="0"/>
        <pt x="1151" y="1176" on="1"/>
        <pt x="1142" y="1193" on="0"/>
        <pt x="1077" y="1219" on="0"/>
        <pt x="1042" y="1219" on="1"/>
        <pt x="972" y="1219" on="0"/>
        <pt x="832" y="1093" on="0"/>
        <pt x="714" y="881" on="0"/>
        <pt x="671" y="752" on="1"/>
        <pt x="985" y="752" on="1"/>
        <pt x="950" y="711" on="1"/>
        <pt x="658" y="711" on="1"/>
        <pt x="632" y="622" on="0"/>
        <pt x="618" y="547" on="1"/>
        <pt x="815" y="547" on="1"/>
        <pt x="778" y="506" on="1"/>
        <pt x="611" y="506" on="1"/>
        <pt x="596" y="414" on="0"/>
        <pt x="596" y="328" on="1"/>
        <pt x="596" y="219" on="0"/>
        <pt x="621" y="86" on="0"/>
        <pt x="679" y="23" on="0"/>
        <pt x="729" y="23" on="1"/>
        <pt x="761" y="23" on="0"/>
        <pt x="831" y="37" on="0"/>
        <pt x="854" y="51" on="1"/>
        <pt x="816" y="79" on="0"/>
        <pt x="764" y="175" on="0"/>
        <pt x="764" y="227" on="1"/>
        <pt x="764" y="296" on="0"/>
        <pt x="820" y="405" on="0"/>
        <pt x="914" y="465" on="0"/>
        <pt x="969" y="465" on="1"/>
        <pt x="1045" y="465" on="0"/>
        <pt x="1122" y="377" on="0"/>
        <pt x="1122" y="301" on="1"/>
        <pt x="1122" y="216" on="0"/>
        <pt x="1013" y="76" on="0"/>
        <pt x="922" y="29" on="1"/>
        <pt x="868" y="1" on="0"/>
        <pt x="741" y="-29" on="0"/>
        <pt x="649" y="-29" on="1"/>
        <pt x="416" y="-29" on="0"/>
        <pt x="182" y="200" on="0"/>
        <pt x="182" y="451" on="1"/>
        <pt x="182" y="478" on="0"/>
        <pt x="185" y="506" on="1"/>
        <pt x="41" y="506" on="1"/>
        <pt x="53" y="547" on="1"/>
        <pt x="191" y="547" on="1"/>
        <pt x="204" y="622" on="0"/>
        <pt x="239" y="711" on="1"/>
        <pt x="96" y="711" on="1"/>
        <pt x="109" y="752" on="1"/>
        <pt x="257" y="752" on="1"/>
        <pt x="321" y="890" on="0"/>
        <pt x="531" y="1127" on="0"/>
        <pt x="814" y="1274" on="0"/>
        <pt x="977" y="1274" on="1"/>
        <pt x="1110" y="1274" on="0"/>
        <pt x="1194" y="1204" on="1"/>
        <pt x="1241" y="1163" on="0"/>
        <pt x="1294" y="1046" on="0"/>
        <pt x="1294" y="983" on="1"/>
        <pt x="1294" y="916" on="0"/>
        <pt x="1240" y="813" on="0"/>
        <pt x="1150" y="758" on="0"/>
        <pt x="1098" y="758" on="1"/>
        <pt x="1029" y="758" on="0"/>
        <pt x="944" y="848" on="0"/>
        <pt x="944" y="918" on="1"/>
      </contour>
    </TTGlyph>
    <TTGlyph name="F" xMin="-98" yMin="0" xMax="1415" yMax="1450">
      <contour>
        <pt x="1286" y="1444" on="0"/>
        <pt x="1415" y="1450" on="1"/>
        <pt x="1374" y="1342" on="0"/>
        <pt x="1337" y="1208" on="1"/>
        <pt x="1301" y="1078" on="0"/>
        <pt x="1290" y="1020" on="1"/>
        <pt x="1245" y="1020" on="1"/>
        <pt x="1248" y="1059" on="0"/>
        <pt x="1248" y="1093" on="1"/>
        <pt x="1248" y="1259" on="0"/>
        <pt x="1116" y="1403" on="0"/>
        <pt x="997" y="1403" on="1"/>
        <pt x="991" y="1403" on="1"/>
        <pt x="927" y="1403" on="0"/>
        <pt x="863" y="1379" on="0"/>
        <pt x="825" y="1310" on="0"/>
        <pt x="807" y="1233" on="1"/>
        <pt x="679" y="750" on="1"/>
        <pt x="735" y="750" on="1"/>
        <pt x="827" y="750" on="0"/>
        <pt x="981" y="873" on="0"/>
        <pt x="1028" y="979" on="1"/>
        <pt x="1073" y="979" on="1"/>
        <pt x="1035" y="864" on="0"/>
        <pt x="1004" y="729" on="1"/>
        <pt x="979" y="630" on="0"/>
        <pt x="940" y="418" on="1"/>
        <pt x="895" y="418" on="1"/>
        <pt x="895" y="559" on="0"/>
        <pt x="797" y="709" on="0"/>
        <pt x="707" y="709" on="1"/>
        <pt x="668" y="709" on="1"/>
        <pt x="537" y="217" on="1"/>
        <pt x="522" y="160" on="0"/>
        <pt x="522" y="126" on="1"/>
        <pt x="522" y="92" on="0"/>
        <pt x="556" y="57" on="0"/>
        <pt x="629" y="43" on="0"/>
        <pt x="698" y="41" on="1"/>
        <pt x="690" y="0" on="1"/>
        <pt x="552" y="6" on="0"/>
        <pt x="283" y="6" on="1"/>
        <pt x="25" y="6" on="0"/>
        <pt x="-98" y="0" on="1"/>
        <pt x="-90" y="41" on="1"/>
        <pt x="-16" y="44" on="0"/>
        <pt x="57" y="70" on="0"/>
        <pt x="101" y="140" on="0"/>
        <pt x="121" y="217" on="1"/>
        <pt x="391" y="1233" on="1"/>
        <pt x="408" y="1298" on="0"/>
        <pt x="408" y="1331" on="1"/>
        <pt x="408" y="1362" on="0"/>
        <pt x="381" y="1394" on="0"/>
        <pt x="323" y="1407" on="0"/>
        <pt x="270" y="1409" on="1"/>
        <pt x="281" y="1450" on="1"/>
        <pt x="516" y="1444" on="0"/>
        <pt x="991" y="1444" on="1"/>
      </contour>
    </TTGlyph>
    <TTGlyph name="G" xMin="61" yMin="-29" xMax="1599" yMax="1479">
      <contour>
        <pt x="797" y="12" on="0"/>
        <pt x="836" y="41" on="1"/>
        <pt x="864" y="61" on="0"/>
        <pt x="892" y="126" on="0"/>
        <pt x="913" y="205" on="1"/>
        <pt x="961" y="385" on="1"/>
        <pt x="979" y="453" on="0"/>
        <pt x="979" y="491" on="1"/>
        <pt x="979" y="527" on="0"/>
        <pt x="945" y="564" on="0"/>
        <pt x="874" y="579" on="0"/>
        <pt x="807" y="582" on="1"/>
        <pt x="817" y="623" on="1"/>
        <pt x="946" y="616" on="0"/>
        <pt x="1206" y="616" on="1"/>
        <pt x="1440" y="616" on="0"/>
        <pt x="1544" y="623" on="1"/>
        <pt x="1534" y="582" on="1"/>
        <pt x="1485" y="578" on="0"/>
        <pt x="1437" y="553" on="0"/>
        <pt x="1403" y="485" on="0"/>
        <pt x="1382" y="406" on="1"/>
        <pt x="1274" y="0" on="1"/>
        <pt x="1233" y="0" on="1"/>
        <pt x="1234" y="62" on="0"/>
        <pt x="1194" y="117" on="0"/>
        <pt x="1153" y="117" on="1"/>
        <pt x="1114" y="117" on="0"/>
        <pt x="1032" y="86" on="0"/>
        <pt x="971" y="56" on="1"/>
        <pt x="935" y="38" on="0"/>
        <pt x="918" y="31" on="1"/>
        <pt x="789" y="-29" on="0"/>
        <pt x="655" y="-29" on="1"/>
        <pt x="471" y="-29" on="0"/>
        <pt x="204" y="81" on="0"/>
        <pt x="61" y="292" on="0"/>
        <pt x="61" y="440" on="1"/>
        <pt x="61" y="677" on="0"/>
        <pt x="330" y="1162" on="0"/>
        <pt x="807" y="1479" on="0"/>
        <pt x="1102" y="1479" on="1"/>
        <pt x="1186" y="1479" on="0"/>
        <pt x="1308" y="1445" on="0"/>
        <pt x="1394" y="1389" on="0"/>
        <pt x="1438" y="1346" on="1"/>
        <pt x="1457" y="1327" on="0"/>
        <pt x="1473" y="1327" on="1"/>
        <pt x="1512" y="1327" on="0"/>
        <pt x="1554" y="1450" on="1"/>
        <pt x="1599" y="1450" on="1"/>
        <pt x="1532" y="1270" on="0"/>
        <pt x="1468" y="979" on="1"/>
        <pt x="1423" y="979" on="1"/>
        <pt x="1434" y="1062" on="0"/>
        <pt x="1434" y="1133" on="1"/>
        <pt x="1434" y="1181" on="0"/>
        <pt x="1422" y="1248" on="0"/>
        <pt x="1405" y="1282" on="1"/>
        <pt x="1366" y="1359" on="0"/>
        <pt x="1206" y="1442" on="0"/>
        <pt x="1090" y="1442" on="1"/>
        <pt x="904" y="1442" on="0"/>
        <pt x="625" y="1086" on="0"/>
        <pt x="477" y="581" on="0"/>
        <pt x="477" y="373" on="1"/>
        <pt x="477" y="190" on="0"/>
        <pt x="602" y="12" on="0"/>
        <pt x="729" y="12" on="1"/>
      </contour>
    </TTGlyph>
    <TTGlyph name="Gacute" xMin="61" yMin="-29" xMax="1599" yMax="1986">
      <component glyphName=".ttfautohint" x="61" y="0" flags="0x0"/>
      <component glyphName="G" x="0" y="0" flags="0x0"/>
      <component glyphName="acute.case" x="915" y="0" flags="0x0"/>
    </TTGlyph>
    <TTGlyph name="Gbreve" xMin="61" yMin="-29" xMax="1626" yMax="1921">
      <component glyphName=".ttfautohint" x="61" y="0" flags="0x0"/>
      <component glyphName="G" x="0" y="0" flags="0x0"/>
      <component glyphName="breve.case" x="622" y="0" flags="0x0"/>
    </TTGlyph>
    <TTGlyph name="Gcircumflex" xMin="61" yMin="-29" xMax="1599" yMax="1958">
      <component glyphName=".ttfautohint" x="61" y="0" flags="0x0"/>
      <component glyphName="G" x="0" y="0" flags="0x0"/>
      <component glyphName="circumflex.case" x="649" y="0" flags="0x0"/>
    </TTGlyph>
    <TTGlyph name="Gcommaaccent" xMin="61" yMin="-494" xMax="1599" yMax="1479">
      <component glyphName=".ttfautohint" x="61" y="0" flags="0x0"/>
      <component glyphName="G" x="0" y="0" flags="0x0"/>
      <component glyphName="commaaccentcomb.case" x="502" y="0" flags="0x0"/>
    </TTGlyph>
    <TTGlyph name="Gdotaccent" xMin="61" yMin="-29" xMax="1599" yMax="1909">
      <component glyphName=".ttfautohint" x="61" y="0" flags="0x0"/>
      <component glyphName="G" x="0" y="0" flags="0x0"/>
      <component glyphName="dotaccent.case" x="952" y="0" flags="0x0"/>
    </TTGlyph>
    <TTGlyph name="H" xMin="-96" yMin="0" xMax="1896" yMax="1450">
      <contour>
        <pt x="1770" y="1444" on="0"/>
        <pt x="1896" y="1450" on="1"/>
        <pt x="1886" y="1409" on="1"/>
        <pt x="1811" y="1406" on="0"/>
        <pt x="1738" y="1380" on="0"/>
        <pt x="1695" y="1310" on="0"/>
        <pt x="1675" y="1233" on="1"/>
        <pt x="1405" y="217" on="1"/>
        <pt x="1387" y="147" on="0"/>
        <pt x="1387" y="117" on="1"/>
        <pt x="1387" y="87" on="0"/>
        <pt x="1414" y="56" on="0"/>
        <pt x="1472" y="43" on="0"/>
        <pt x="1526" y="41" on="1"/>
        <pt x="1518" y="0" on="1"/>
        <pt x="1395" y="6" on="0"/>
        <pt x="1133" y="6" on="1"/>
        <pt x="896" y="6" on="0"/>
        <pt x="770" y="0" on="1"/>
        <pt x="778" y="41" on="1"/>
        <pt x="852" y="44" on="0"/>
        <pt x="926" y="70" on="0"/>
        <pt x="969" y="140" on="0"/>
        <pt x="989" y="217" on="1"/>
        <pt x="1120" y="709" on="1"/>
        <pt x="668" y="709" on="1"/>
        <pt x="537" y="217" on="1"/>
        <pt x="519" y="147" on="0"/>
        <pt x="519" y="117" on="1"/>
        <pt x="519" y="87" on="0"/>
        <pt x="546" y="56" on="0"/>
        <pt x="604" y="43" on="0"/>
        <pt x="657" y="41" on="1"/>
        <pt x="649" y="0" on="1"/>
        <pt x="523" y="6" on="0"/>
        <pt x="287" y="6" on="1"/>
        <pt x="30" y="6" on="0"/>
        <pt x="-96" y="0" on="1"/>
        <pt x="-86" y="41" on="1"/>
        <pt x="-15" y="44" on="0"/>
        <pt x="57" y="70" on="0"/>
        <pt x="101" y="141" on="0"/>
        <pt x="121" y="217" on="1"/>
        <pt x="391" y="1233" on="1"/>
        <pt x="408" y="1298" on="0"/>
        <pt x="408" y="1331" on="1"/>
        <pt x="408" y="1362" on="0"/>
        <pt x="381" y="1394" on="0"/>
        <pt x="323" y="1407" on="0"/>
        <pt x="270" y="1409" on="1"/>
        <pt x="281" y="1450" on="1"/>
        <pt x="399" y="1444" on="0"/>
        <pt x="664" y="1444" on="1"/>
        <pt x="884" y="1444" on="0"/>
        <pt x="1028" y="1450" on="1"/>
        <pt x="1018" y="1409" on="1"/>
        <pt x="943" y="1406" on="0"/>
        <pt x="870" y="1380" on="0"/>
        <pt x="827" y="1310" on="0"/>
        <pt x="807" y="1233" on="1"/>
        <pt x="679" y="750" on="1"/>
        <pt x="1131" y="750" on="1"/>
        <pt x="1260" y="1233" on="1"/>
        <pt x="1277" y="1298" on="0"/>
        <pt x="1277" y="1331" on="1"/>
        <pt x="1277" y="1362" on="0"/>
        <pt x="1249" y="1394" on="0"/>
        <pt x="1192" y="1407" on="0"/>
        <pt x="1139" y="1409" on="1"/>
        <pt x="1149" y="1450" on="1"/>
        <pt x="1272" y="1444" on="0"/>
        <pt x="1509" y="1444" on="1"/>
      </contour>
    </TTGlyph>
    <TTGlyph name="Hbar" xMin="-94" yMin="0" xMax="1898" yMax="1450">
      <contour>
        <pt x="1813" y="1406" on="0"/>
        <pt x="1740" y="1380" on="0"/>
        <pt x="1697" y="1310" on="0"/>
        <pt x="1677" y="1233" on="1"/>
        <pt x="1640" y="1092" on="1"/>
        <pt x="1819" y="1092" on="1"/>
        <pt x="1808" y="1051" on="1"/>
        <pt x="1629" y="1051" on="1"/>
        <pt x="1407" y="217" on="1"/>
        <pt x="1389" y="147" on="0"/>
        <pt x="1389" y="117" on="1"/>
        <pt x="1389" y="87" on="0"/>
        <pt x="1416" y="56" on="0"/>
        <pt x="1474" y="43" on="0"/>
        <pt x="1528" y="41" on="1"/>
        <pt x="1520" y="0" on="1"/>
        <pt x="1397" y="6" on="0"/>
        <pt x="1135" y="6" on="1"/>
        <pt x="898" y="6" on="0"/>
        <pt x="772" y="0" on="1"/>
        <pt x="780" y="41" on="1"/>
        <pt x="854" y="44" on="0"/>
        <pt x="928" y="70" on="0"/>
        <pt x="971" y="140" on="0"/>
        <pt x="991" y="217" on="1"/>
        <pt x="1122" y="709" on="1"/>
        <pt x="670" y="709" on="1"/>
        <pt x="539" y="217" on="1"/>
        <pt x="521" y="147" on="0"/>
        <pt x="521" y="117" on="1"/>
        <pt x="521" y="87" on="0"/>
        <pt x="548" y="56" on="0"/>
        <pt x="606" y="43" on="0"/>
        <pt x="659" y="41" on="1"/>
        <pt x="651" y="0" on="1"/>
        <pt x="525" y="6" on="0"/>
        <pt x="289" y="6" on="1"/>
        <pt x="32" y="6" on="0"/>
        <pt x="-94" y="0" on="1"/>
        <pt x="-84" y="41" on="1"/>
        <pt x="-13" y="44" on="0"/>
        <pt x="59" y="70" on="0"/>
        <pt x="103" y="141" on="0"/>
        <pt x="123" y="217" on="1"/>
        <pt x="345" y="1051" on="1"/>
        <pt x="164" y="1051" on="1"/>
        <pt x="174" y="1092" on="1"/>
        <pt x="356" y="1092" on="1"/>
        <pt x="393" y="1233" on="1"/>
        <pt x="410" y="1298" on="0"/>
        <pt x="410" y="1331" on="1"/>
        <pt x="410" y="1362" on="0"/>
        <pt x="383" y="1394" on="0"/>
        <pt x="325" y="1407" on="0"/>
        <pt x="272" y="1409" on="1"/>
        <pt x="283" y="1450" on="1"/>
        <pt x="402" y="1444" on="0"/>
        <pt x="666" y="1444" on="1"/>
        <pt x="886" y="1444" on="0"/>
        <pt x="1030" y="1450" on="1"/>
        <pt x="1020" y="1409" on="1"/>
        <pt x="945" y="1406" on="0"/>
        <pt x="872" y="1380" on="0"/>
        <pt x="829" y="1310" on="0"/>
        <pt x="809" y="1233" on="1"/>
        <pt x="772" y="1092" on="1"/>
        <pt x="1224" y="1092" on="1"/>
        <pt x="1262" y="1233" on="1"/>
        <pt x="1279" y="1298" on="0"/>
        <pt x="1279" y="1331" on="1"/>
        <pt x="1279" y="1362" on="0"/>
        <pt x="1251" y="1394" on="0"/>
        <pt x="1194" y="1407" on="0"/>
        <pt x="1141" y="1409" on="1"/>
        <pt x="1151" y="1450" on="1"/>
        <pt x="1274" y="1444" on="0"/>
        <pt x="1511" y="1444" on="1"/>
        <pt x="1772" y="1444" on="0"/>
        <pt x="1898" y="1450" on="1"/>
        <pt x="1888" y="1409" on="1"/>
      </contour>
      <contour>
        <pt x="761" y="1051" on="1"/>
        <pt x="681" y="750" on="1"/>
        <pt x="1133" y="750" on="1"/>
        <pt x="1213" y="1051" on="1"/>
      </contour>
    </TTGlyph>
    <TTGlyph name="Hcircumflex" xMin="-96" yMin="0" xMax="1896" yMax="1958">
      <component glyphName=".ttfautohint" x="0" y="0" flags="0x0"/>
      <component glyphName="H" x="0" y="0" flags="0x0"/>
      <component glyphName="circumflex.case" x="660" y="0" flags="0x0"/>
    </TTGlyph>
    <TTGlyph name="I" xMin="-96" yMin="0" xMax="1028" yMax="1450">
      <contour>
        <pt x="519" y="147" on="0"/>
        <pt x="519" y="117" on="1"/>
        <pt x="519" y="87" on="0"/>
        <pt x="546" y="56" on="0"/>
        <pt x="604" y="43" on="0"/>
        <pt x="657" y="41" on="1"/>
        <pt x="649" y="0" on="1"/>
        <pt x="517" y="6" on="0"/>
        <pt x="266" y="6" on="1"/>
        <pt x="24" y="6" on="0"/>
        <pt x="-96" y="0" on="1"/>
        <pt x="-86" y="41" on="1"/>
        <pt x="-15" y="44" on="0"/>
        <pt x="57" y="70" on="0"/>
        <pt x="101" y="141" on="0"/>
        <pt x="121" y="217" on="1"/>
        <pt x="391" y="1233" on="1"/>
        <pt x="408" y="1298" on="0"/>
        <pt x="408" y="1331" on="1"/>
        <pt x="408" y="1362" on="0"/>
        <pt x="381" y="1394" on="0"/>
        <pt x="323" y="1407" on="0"/>
        <pt x="270" y="1409" on="1"/>
        <pt x="281" y="1450" on="1"/>
        <pt x="394" y="1444" on="0"/>
        <pt x="643" y="1444" on="1"/>
        <pt x="875" y="1444" on="0"/>
        <pt x="1028" y="1450" on="1"/>
        <pt x="1018" y="1409" on="1"/>
        <pt x="943" y="1406" on="0"/>
        <pt x="870" y="1380" on="0"/>
        <pt x="827" y="1310" on="0"/>
        <pt x="807" y="1233" on="1"/>
        <pt x="537" y="217" on="1"/>
      </contour>
    </TTGlyph>
    <TTGlyph name="IJ" xMin="0" yMin="-385" xMax="2008" yMax="1513">
      <contour>
        <pt x="2008" y="1484" on="0"/>
        <pt x="2008" y="1470" on="1"/>
        <pt x="2008" y="1420" on="0"/>
        <pt x="1858" y="1364" on="1"/>
        <pt x="1753" y="1269" on="0"/>
        <pt x="1613" y="970" on="0"/>
        <pt x="1552" y="750" on="1"/>
        <pt x="1757" y="750" on="1"/>
        <pt x="1751" y="709" on="1"/>
        <pt x="1541" y="709" on="1"/>
        <pt x="1520" y="629" on="1"/>
        <pt x="1393" y="133" on="1"/>
        <pt x="1333" y="-101" on="0"/>
        <pt x="1001" y="-385" on="0"/>
        <pt x="702" y="-385" on="1"/>
        <pt x="549" y="-385" on="0"/>
        <pt x="365" y="-299" on="0"/>
        <pt x="365" y="-203" on="1"/>
        <pt x="365" y="-123" on="0"/>
        <pt x="476" y="-25" on="0"/>
        <pt x="578" y="-25" on="1"/>
        <pt x="668" y="-25" on="0"/>
        <pt x="784" y="-102" on="0"/>
        <pt x="784" y="-174" on="1"/>
        <pt x="784" y="-290" on="0"/>
        <pt x="651" y="-346" on="1"/>
        <pt x="672" y="-350" on="0"/>
        <pt x="698" y="-350" on="1"/>
        <pt x="758" y="-350" on="0"/>
        <pt x="839" y="-271" on="0"/>
        <pt x="903" y="-111" on="0"/>
        <pt x="946" y="41" on="1"/>
        <pt x="1087" y="537" on="1"/>
        <pt x="1113" y="627" on="0"/>
        <pt x="1149" y="709" on="1"/>
        <pt x="868" y="709" on="1"/>
        <pt x="874" y="750" on="1"/>
        <pt x="1168" y="750" on="1"/>
        <pt x="1231" y="878" on="0"/>
        <pt x="1407" y="1076" on="0"/>
        <pt x="1620" y="1234" on="0"/>
        <pt x="1778" y="1331" on="1"/>
        <pt x="1693" y="1310" on="0"/>
        <pt x="1560" y="1257" on="0"/>
        <pt x="1474" y="1217" on="1"/>
        <pt x="1396" y="1181" on="0"/>
        <pt x="1290" y="1139" on="0"/>
        <pt x="1158" y="1112" on="0"/>
        <pt x="1079" y="1112" on="1"/>
        <pt x="1012" y="1112" on="0"/>
        <pt x="886" y="1136" on="0"/>
        <pt x="797" y="1160" on="1"/>
        <pt x="708" y="1183" on="0"/>
        <pt x="591" y="1206" on="0"/>
        <pt x="528" y="1206" on="1"/>
        <pt x="381" y="1206" on="0"/>
        <pt x="381" y="1102" on="1"/>
        <pt x="381" y="1031" on="0"/>
        <pt x="521" y="946" on="0"/>
        <pt x="664" y="946" on="1"/>
        <pt x="781" y="946" on="0"/>
        <pt x="922" y="980" on="0"/>
        <pt x="1004" y="1018" on="1"/>
        <pt x="1018" y="981" on="1"/>
        <pt x="922" y="936" on="0"/>
        <pt x="853" y="920" on="1"/>
        <pt x="633" y="217" on="1"/>
        <pt x="612" y="153" on="0"/>
        <pt x="612" y="117" on="1"/>
        <pt x="612" y="75" on="0"/>
        <pt x="675" y="44" on="0"/>
        <pt x="754" y="41" on="1"/>
        <pt x="745" y="0" on="1"/>
        <pt x="613" y="6" on="0"/>
        <pt x="362" y="6" on="1"/>
        <pt x="120" y="6" on="0"/>
        <pt x="0" y="0" on="1"/>
        <pt x="10" y="41" on="1"/>
        <pt x="80" y="44" on="0"/>
        <pt x="149" y="71" on="0"/>
        <pt x="192" y="140" on="0"/>
        <pt x="217" y="217" on="1"/>
        <pt x="440" y="929" on="1"/>
        <pt x="324" y="964" on="0"/>
        <pt x="195" y="1114" on="0"/>
        <pt x="195" y="1227" on="1"/>
        <pt x="195" y="1313" on="0"/>
        <pt x="283" y="1442" on="0"/>
        <pt x="459" y="1513" on="0"/>
        <pt x="588" y="1513" on="1"/>
        <pt x="675" y="1513" on="0"/>
        <pt x="821" y="1485" on="0"/>
        <pt x="935" y="1444" on="0"/>
        <pt x="1011" y="1411" on="1"/>
        <pt x="1086" y="1379" on="0"/>
        <pt x="1190" y="1341" on="0"/>
        <pt x="1323" y="1315" on="0"/>
        <pt x="1401" y="1315" on="1"/>
        <pt x="1506" y="1315" on="0"/>
        <pt x="1747" y="1349" on="0"/>
        <pt x="1839" y="1386" on="1"/>
        <pt x="1916" y="1506" on="0"/>
        <pt x="1967" y="1506" on="1"/>
        <pt x="1981" y="1506" on="0"/>
        <pt x="1995" y="1495" on="1"/>
      </contour>
    </TTGlyph>
    <TTGlyph name="Iacute" xMin="-96" yMin="0" xMax="1197" yMax="1986">
      <component glyphName=".ttfautohint" x="0" y="0" flags="0x0"/>
      <component glyphName="I" x="0" y="0" flags="0x0"/>
      <component glyphName="acute.case" x="539" y="0" flags="0x0"/>
    </TTGlyph>
    <TTGlyph name="Ibreve" xMin="-96" yMin="0" xMax="1250" yMax="1921">
      <component glyphName=".ttfautohint" x="0" y="0" flags="0x0"/>
      <component glyphName="I" x="0" y="0" flags="0x0"/>
      <component glyphName="breve.case" x="246" y="0" flags="0x0"/>
    </TTGlyph>
    <TTGlyph name="Icircumflex" xMin="-96" yMin="0" xMax="1168" yMax="1958">
      <component glyphName=".ttfautohint" x="0" y="0" flags="0x0"/>
      <component glyphName="I" x="0" y="0" flags="0x0"/>
      <component glyphName="circumflex.case" x="273" y="0" flags="0x0"/>
    </TTGlyph>
    <TTGlyph name="Idieresis" xMin="-96" yMin="0" xMax="1174" yMax="1917">
      <component glyphName=".ttfautohint" x="0" y="0" flags="0x0"/>
      <component glyphName="I" x="0" y="0" flags="0x0"/>
      <component glyphName="dieresis.case" x="318" y="0" flags="0x0"/>
    </TTGlyph>
    <TTGlyph name="Idotaccent" xMin="-96" yMin="0" xMax="1028" yMax="1909">
      <component glyphName=".ttfautohint" x="0" y="0" flags="0x0"/>
      <component glyphName="I" x="0" y="0" flags="0x0"/>
      <component glyphName="dotaccent.case" x="539" y="0" flags="0x0"/>
    </TTGlyph>
    <TTGlyph name="Igrave" xMin="-96" yMin="0" xMax="1028" yMax="1938">
      <component glyphName=".ttfautohint" x="0" y="0" flags="0x0"/>
      <component glyphName="I" x="0" y="0" flags="0x0"/>
      <component glyphName="grave.case" x="320" y="0" flags="0x0"/>
    </TTGlyph>
    <TTGlyph name="Imacron" xMin="-96" yMin="0" xMax="1159" yMax="1729">
      <component glyphName=".ttfautohint" x="0" y="0" flags="0x0"/>
      <component glyphName="I" x="0" y="0" flags="0x0"/>
      <component glyphName="macron.case" x="293" y="0" flags="0x0"/>
    </TTGlyph>
    <TTGlyph name="Iogonek" xMin="-96" yMin="-385" xMax="1028" yMax="1450">
      <contour>
        <pt x="875" y="1444" on="0"/>
        <pt x="1028" y="1450" on="1"/>
        <pt x="1018" y="1409" on="1"/>
        <pt x="943" y="1406" on="0"/>
        <pt x="870" y="1380" on="0"/>
        <pt x="827" y="1310" on="0"/>
        <pt x="807" y="1233" on="1"/>
        <pt x="537" y="217" on="1"/>
        <pt x="519" y="147" on="0"/>
        <pt x="519" y="117" on="1"/>
        <pt x="519" y="87" on="0"/>
        <pt x="546" y="56" on="0"/>
        <pt x="604" y="43" on="0"/>
        <pt x="657" y="41" on="1"/>
        <pt x="649" y="0" on="1"/>
        <pt x="613" y="1" on="1"/>
        <pt x="552" y="-26" on="0"/>
        <pt x="468" y="-104" on="0"/>
        <pt x="426" y="-189" on="0"/>
        <pt x="426" y="-227" on="1"/>
        <pt x="426" y="-281" on="0"/>
        <pt x="485" y="-281" on="1"/>
        <pt x="547" y="-281" on="0"/>
        <pt x="631" y="-242" on="1"/>
        <pt x="653" y="-276" on="1"/>
        <pt x="498" y="-385" on="0"/>
        <pt x="332" y="-385" on="1"/>
        <pt x="246" y="-385" on="0"/>
        <pt x="145" y="-319" on="0"/>
        <pt x="145" y="-260" on="1"/>
        <pt x="145" y="-173" on="0"/>
        <pt x="386" y="-39" on="0"/>
        <pt x="572" y="3" on="1"/>
        <pt x="443" y="6" on="0"/>
        <pt x="266" y="6" on="1"/>
        <pt x="24" y="6" on="0"/>
        <pt x="-96" y="0" on="1"/>
        <pt x="-86" y="41" on="1"/>
        <pt x="-15" y="44" on="0"/>
        <pt x="57" y="70" on="0"/>
        <pt x="101" y="141" on="0"/>
        <pt x="121" y="217" on="1"/>
        <pt x="391" y="1233" on="1"/>
        <pt x="408" y="1298" on="0"/>
        <pt x="408" y="1331" on="1"/>
        <pt x="408" y="1362" on="0"/>
        <pt x="381" y="1394" on="0"/>
        <pt x="323" y="1407" on="0"/>
        <pt x="270" y="1409" on="1"/>
        <pt x="281" y="1450" on="1"/>
        <pt x="393" y="1444" on="0"/>
        <pt x="643" y="1444" on="1"/>
      </contour>
    </TTGlyph>
    <TTGlyph name="Itilde" xMin="-96" yMin="0" xMax="1271" yMax="1942">
      <component glyphName=".ttfautohint" x="0" y="0" flags="0x0"/>
      <component glyphName="I" x="0" y="0" flags="0x0"/>
      <component glyphName="tilde.case" x="220" y="0" flags="0x0"/>
    </TTGlyph>
    <TTGlyph name="J" xMin="31" yMin="-385" xMax="1674" yMax="1513">
      <contour>
        <pt x="1674" y="1484" on="0"/>
        <pt x="1674" y="1470" on="1"/>
        <pt x="1674" y="1420" on="0"/>
        <pt x="1524" y="1364" on="1"/>
        <pt x="1419" y="1269" on="0"/>
        <pt x="1279" y="970" on="0"/>
        <pt x="1218" y="750" on="1"/>
        <pt x="1423" y="750" on="1"/>
        <pt x="1417" y="709" on="1"/>
        <pt x="1207" y="709" on="1"/>
        <pt x="1186" y="629" on="1"/>
        <pt x="1059" y="133" on="1"/>
        <pt x="999" y="-101" on="0"/>
        <pt x="668" y="-385" on="0"/>
        <pt x="369" y="-385" on="1"/>
        <pt x="215" y="-385" on="0"/>
        <pt x="31" y="-299" on="0"/>
        <pt x="31" y="-203" on="1"/>
        <pt x="31" y="-123" on="0"/>
        <pt x="142" y="-25" on="0"/>
        <pt x="244" y="-25" on="1"/>
        <pt x="334" y="-25" on="0"/>
        <pt x="451" y="-102" on="0"/>
        <pt x="451" y="-174" on="1"/>
        <pt x="451" y="-290" on="0"/>
        <pt x="317" y="-346" on="1"/>
        <pt x="338" y="-350" on="0"/>
        <pt x="365" y="-350" on="1"/>
        <pt x="425" y="-350" on="0"/>
        <pt x="506" y="-271" on="0"/>
        <pt x="570" y="-110" on="0"/>
        <pt x="612" y="41" on="1"/>
        <pt x="754" y="537" on="1"/>
        <pt x="782" y="633" on="0"/>
        <pt x="815" y="709" on="1"/>
        <pt x="535" y="709" on="1"/>
        <pt x="541" y="750" on="1"/>
        <pt x="834" y="750" on="1"/>
        <pt x="897" y="878" on="0"/>
        <pt x="1073" y="1076" on="0"/>
        <pt x="1286" y="1234" on="0"/>
        <pt x="1444" y="1331" on="1"/>
        <pt x="1371" y="1310" on="0"/>
        <pt x="1258" y="1258" on="0"/>
        <pt x="1181" y="1216" on="1"/>
        <pt x="1115" y="1180" on="0"/>
        <pt x="1027" y="1139" on="0"/>
        <pt x="916" y="1112" on="0"/>
        <pt x="848" y="1112" on="1"/>
        <pt x="789" y="1112" on="0"/>
        <pt x="682" y="1140" on="0"/>
        <pt x="611" y="1166" on="1"/>
        <pt x="555" y="1186" on="0"/>
        <pt x="484" y="1206" on="0"/>
        <pt x="451" y="1206" on="1"/>
        <pt x="399" y="1206" on="0"/>
        <pt x="334" y="1155" on="0"/>
        <pt x="334" y="1102" on="1"/>
        <pt x="334" y="955" on="0"/>
        <pt x="616" y="938" on="1"/>
        <pt x="612" y="901" on="1"/>
        <pt x="406" y="914" on="0"/>
        <pt x="168" y="1081" on="0"/>
        <pt x="168" y="1227" on="1"/>
        <pt x="168" y="1359" on="0"/>
        <pt x="333" y="1513" on="0"/>
        <pt x="494" y="1513" on="1"/>
        <pt x="561" y="1513" on="0"/>
        <pt x="675" y="1486" on="0"/>
        <pt x="763" y="1448" on="0"/>
        <pt x="826" y="1415" on="1"/>
        <pt x="890" y="1382" on="0"/>
        <pt x="981" y="1342" on="0"/>
        <pt x="1099" y="1315" on="0"/>
        <pt x="1169" y="1315" on="1"/>
        <pt x="1249" y="1315" on="0"/>
        <pt x="1435" y="1350" on="0"/>
        <pt x="1505" y="1386" on="1"/>
        <pt x="1584" y="1506" on="0"/>
        <pt x="1633" y="1506" on="1"/>
        <pt x="1647" y="1506" on="0"/>
        <pt x="1661" y="1495" on="1"/>
      </contour>
    </TTGlyph>
    <TTGlyph name="Jcircumflex" xMin="31" yMin="-385" xMax="1674" yMax="1958">
      <component glyphName=".ttfautohint" x="31" y="0" flags="0x0"/>
      <component glyphName="J" x="0" y="0" flags="0x0"/>
      <component glyphName="circumflex.case" x="703" y="0" flags="0x0"/>
    </TTGlyph>
    <TTGlyph name="K" xMin="-96" yMin="-29" xMax="1681" yMax="1479">
      <contour>
        <pt x="1276" y="1255" on="0"/>
        <pt x="1390" y="1399" on="0"/>
        <pt x="1487" y="1434" on="1"/>
        <pt x="1467" y="1444" on="0"/>
        <pt x="1434" y="1444" on="1"/>
        <pt x="1391" y="1444" on="0"/>
        <pt x="1333" y="1415" on="0"/>
        <pt x="1309" y="1386" on="1"/>
        <pt x="1276" y="1347" on="0"/>
        <pt x="1233" y="1232" on="0"/>
        <pt x="1205" y="1134" on="1"/>
        <pt x="1174" y="1027" on="0"/>
        <pt x="1122" y="894" on="0"/>
        <pt x="1032" y="785" on="0"/>
        <pt x="963" y="765" on="1"/>
        <pt x="1096" y="756" on="0"/>
        <pt x="1252" y="690" on="0"/>
        <pt x="1319" y="580" on="0"/>
        <pt x="1319" y="499" on="1"/>
        <pt x="1319" y="459" on="0"/>
        <pt x="1311" y="406" on="1"/>
        <pt x="1278" y="201" on="1"/>
        <pt x="1277" y="197" on="0"/>
        <pt x="1277" y="190" on="1"/>
        <pt x="1277" y="170" on="0"/>
        <pt x="1303" y="145" on="0"/>
        <pt x="1323" y="145" on="1"/>
        <pt x="1379" y="145" on="0"/>
        <pt x="1411" y="244" on="1"/>
        <pt x="1446" y="348" on="1"/>
        <pt x="1487" y="348" on="1"/>
        <pt x="1434" y="190" on="1"/>
        <pt x="1397" y="80" on="0"/>
        <pt x="1241" y="-29" on="0"/>
        <pt x="1143" y="-29" on="1"/>
        <pt x="1054" y="-29" on="0"/>
        <pt x="928" y="27" on="0"/>
        <pt x="863" y="127" on="0"/>
        <pt x="863" y="193" on="1"/>
        <pt x="863" y="214" on="0"/>
        <pt x="868" y="244" on="1"/>
        <pt x="926" y="567" on="1"/>
        <pt x="934" y="617" on="0"/>
        <pt x="934" y="645" on="1"/>
        <pt x="934" y="707" on="0"/>
        <pt x="896" y="735" on="1"/>
        <pt x="821" y="715" on="0"/>
        <pt x="776" y="712" on="1"/>
        <pt x="768" y="712" on="1"/>
        <pt x="721" y="712" on="0"/>
        <pt x="721" y="742" on="1"/>
        <pt x="721" y="746" on="0"/>
        <pt x="723" y="756" on="1"/>
        <pt x="728" y="777" on="0"/>
        <pt x="754" y="797" on="0"/>
        <pt x="781" y="797" on="1"/>
        <pt x="818" y="797" on="0"/>
        <pt x="896" y="776" on="1"/>
        <pt x="980" y="789" on="0"/>
        <pt x="1084" y="895" on="0"/>
        <pt x="1138" y="1033" on="0"/>
        <pt x="1168" y="1146" on="1"/>
        <pt x="1195" y="1246" on="0"/>
        <pt x="1241" y="1369" on="0"/>
        <pt x="1278" y="1411" on="1"/>
        <pt x="1338" y="1479" on="0"/>
        <pt x="1440" y="1479" on="1"/>
        <pt x="1509" y="1479" on="0"/>
        <pt x="1619" y="1422" on="0"/>
        <pt x="1681" y="1318" on="0"/>
        <pt x="1681" y="1249" on="1"/>
        <pt x="1681" y="1188" on="0"/>
        <pt x="1626" y="1075" on="0"/>
        <pt x="1521" y="1004" on="0"/>
        <pt x="1450" y="1004" on="1"/>
        <pt x="1404" y="1004" on="0"/>
        <pt x="1325" y="1042" on="0"/>
        <pt x="1276" y="1119" on="0"/>
        <pt x="1276" y="1174" on="1"/>
      </contour>
      <contour>
        <pt x="519" y="147" on="0"/>
        <pt x="519" y="117" on="1"/>
        <pt x="519" y="87" on="0"/>
        <pt x="546" y="56" on="0"/>
        <pt x="604" y="43" on="0"/>
        <pt x="657" y="41" on="1"/>
        <pt x="649" y="0" on="1"/>
        <pt x="523" y="6" on="0"/>
        <pt x="287" y="6" on="1"/>
        <pt x="30" y="6" on="0"/>
        <pt x="-96" y="0" on="1"/>
        <pt x="-86" y="41" on="1"/>
        <pt x="-15" y="44" on="0"/>
        <pt x="57" y="70" on="0"/>
        <pt x="101" y="141" on="0"/>
        <pt x="121" y="217" on="1"/>
        <pt x="391" y="1233" on="1"/>
        <pt x="408" y="1298" on="0"/>
        <pt x="408" y="1331" on="1"/>
        <pt x="408" y="1362" on="0"/>
        <pt x="381" y="1394" on="0"/>
        <pt x="323" y="1407" on="0"/>
        <pt x="270" y="1409" on="1"/>
        <pt x="281" y="1450" on="1"/>
        <pt x="400" y="1444" on="0"/>
        <pt x="664" y="1444" on="1"/>
        <pt x="884" y="1444" on="0"/>
        <pt x="1028" y="1450" on="1"/>
        <pt x="1018" y="1409" on="1"/>
        <pt x="943" y="1406" on="0"/>
        <pt x="870" y="1380" on="0"/>
        <pt x="827" y="1310" on="0"/>
        <pt x="807" y="1233" on="1"/>
        <pt x="537" y="217" on="1"/>
      </contour>
    </TTGlyph>
    <TTGlyph name="Kcommaaccent" xMin="-96" yMin="-494" xMax="1681" yMax="1479">
      <component glyphName=".ttfautohint" x="0" y="0" flags="0x0"/>
      <component glyphName="K" x="0" y="0" flags="0x0"/>
      <component glyphName="commaaccentcomb.case" x="434" y="0" flags="0x0"/>
    </TTGlyph>
    <TTGlyph name="L" xMin="-98" yMin="0" xMax="1188" yMax="1450">
      <contour>
        <pt x="1167" y="376" on="0"/>
        <pt x="1139" y="262" on="1"/>
        <pt x="1107" y="154" on="0"/>
        <pt x="1085" y="0" on="1"/>
        <pt x="946" y="6" on="0"/>
        <pt x="623" y="6" on="1"/>
        <pt x="139" y="6" on="0"/>
        <pt x="-98" y="0" on="1"/>
        <pt x="-90" y="41" on="1"/>
        <pt x="-16" y="44" on="0"/>
        <pt x="57" y="70" on="0"/>
        <pt x="101" y="140" on="0"/>
        <pt x="121" y="217" on="1"/>
        <pt x="391" y="1233" on="1"/>
        <pt x="408" y="1298" on="0"/>
        <pt x="408" y="1331" on="1"/>
        <pt x="408" y="1362" on="0"/>
        <pt x="381" y="1394" on="0"/>
        <pt x="323" y="1407" on="0"/>
        <pt x="270" y="1409" on="1"/>
        <pt x="281" y="1450" on="1"/>
        <pt x="400" y="1444" on="0"/>
        <pt x="668" y="1444" on="1"/>
        <pt x="882" y="1444" on="0"/>
        <pt x="1026" y="1450" on="1"/>
        <pt x="1016" y="1409" on="1"/>
        <pt x="941" y="1406" on="0"/>
        <pt x="868" y="1380" on="0"/>
        <pt x="825" y="1310" on="0"/>
        <pt x="805" y="1233" on="1"/>
        <pt x="535" y="217" on="1"/>
        <pt x="517" y="147" on="0"/>
        <pt x="517" y="117" on="1"/>
        <pt x="517" y="88" on="0"/>
        <pt x="544" y="58" on="0"/>
        <pt x="600" y="47" on="0"/>
        <pt x="651" y="47" on="1"/>
        <pt x="688" y="47" on="1"/>
        <pt x="763" y="47" on="0"/>
        <pt x="930" y="124" on="0"/>
        <pt x="1088" y="296" on="0"/>
        <pt x="1143" y="430" on="1"/>
        <pt x="1188" y="430" on="1"/>
      </contour>
    </TTGlyph>
    <TTGlyph name="Lacute" xMin="-98" yMin="0" xMax="1188" yMax="1986">
      <component glyphName=".ttfautohint" x="0" y="0" flags="0x0"/>
      <component glyphName="L" x="0" y="0" flags="0x0"/>
      <component glyphName="acute.case" x="502" y="0" flags="0x0"/>
    </TTGlyph>
    <TTGlyph name="Lcaron" xMin="-98" yMin="0" xMax="1415" yMax="1473">
      <component glyphName=".ttfautohint" x="0" y="0" flags="0x0"/>
      <component glyphName="L" x="0" y="0" flags="0x0"/>
      <component glyphName="hacek.case" x="874" y="0" flags="0x0"/>
    </TTGlyph>
    <TTGlyph name="Lcommaaccent" xMin="-98" yMin="-494" xMax="1188" yMax="1450">
      <component glyphName=".ttfautohint" x="0" y="0" flags="0x0"/>
      <component glyphName="L" x="0" y="0" flags="0x0"/>
      <component glyphName="commaaccentcomb.case" x="406" y="0" flags="0x0"/>
    </TTGlyph>
    <TTGlyph name="Ldot" xMin="-98" yMin="0" xMax="1323" yMax="1450">
      <component glyphName=".ttfautohint" x="0" y="0" flags="0x0"/>
      <component glyphName="L" x="0" y="0" flags="0x0"/>
      <component glyphName="period" x="934" y="625" flags="0x0"/>
    </TTGlyph>
    <TTGlyph name="Lslash" xMin="-96" yMin="0" xMax="1190" yMax="1450">
      <contour>
        <pt x="1169" y="376" on="0"/>
        <pt x="1141" y="262" on="1"/>
        <pt x="1109" y="154" on="0"/>
        <pt x="1087" y="0" on="1"/>
        <pt x="948" y="6" on="0"/>
        <pt x="625" y="6" on="1"/>
        <pt x="141" y="6" on="0"/>
        <pt x="-96" y="0" on="1"/>
        <pt x="-88" y="41" on="1"/>
        <pt x="-14" y="44" on="0"/>
        <pt x="59" y="70" on="0"/>
        <pt x="103" y="140" on="0"/>
        <pt x="123" y="217" on="1"/>
        <pt x="202" y="514" on="1"/>
        <pt x="35" y="430" on="1"/>
        <pt x="47" y="477" on="1"/>
        <pt x="214" y="561" on="1"/>
        <pt x="393" y="1233" on="1"/>
        <pt x="410" y="1298" on="0"/>
        <pt x="410" y="1331" on="1"/>
        <pt x="410" y="1362" on="0"/>
        <pt x="383" y="1394" on="0"/>
        <pt x="325" y="1407" on="0"/>
        <pt x="272" y="1409" on="1"/>
        <pt x="283" y="1450" on="1"/>
        <pt x="402" y="1444" on="0"/>
        <pt x="670" y="1444" on="1"/>
        <pt x="884" y="1444" on="0"/>
        <pt x="1028" y="1450" on="1"/>
        <pt x="1018" y="1409" on="1"/>
        <pt x="943" y="1406" on="0"/>
        <pt x="870" y="1380" on="0"/>
        <pt x="827" y="1310" on="0"/>
        <pt x="807" y="1233" on="1"/>
        <pt x="687" y="781" on="1"/>
        <pt x="1061" y="969" on="1"/>
        <pt x="1049" y="922" on="1"/>
        <pt x="674" y="734" on="1"/>
        <pt x="537" y="217" on="1"/>
        <pt x="519" y="147" on="0"/>
        <pt x="519" y="117" on="1"/>
        <pt x="519" y="88" on="0"/>
        <pt x="546" y="58" on="0"/>
        <pt x="602" y="47" on="0"/>
        <pt x="653" y="47" on="1"/>
        <pt x="690" y="47" on="1"/>
        <pt x="765" y="47" on="0"/>
        <pt x="932" y="124" on="0"/>
        <pt x="1090" y="296" on="0"/>
        <pt x="1145" y="430" on="1"/>
        <pt x="1190" y="430" on="1"/>
      </contour>
    </TTGlyph>
    <TTGlyph name="M" xMin="-96" yMin="-10" xMax="2107" yMax="1450">
      <contour>
        <pt x="1954" y="1444" on="0"/>
        <pt x="2107" y="1450" on="1"/>
        <pt x="2097" y="1409" on="1"/>
        <pt x="2022" y="1406" on="0"/>
        <pt x="1949" y="1380" on="0"/>
        <pt x="1906" y="1310" on="0"/>
        <pt x="1886" y="1233" on="1"/>
        <pt x="1616" y="217" on="1"/>
        <pt x="1599" y="152" on="0"/>
        <pt x="1599" y="119" on="1"/>
        <pt x="1599" y="88" on="0"/>
        <pt x="1626" y="56" on="0"/>
        <pt x="1684" y="43" on="0"/>
        <pt x="1737" y="41" on="1"/>
        <pt x="1729" y="0" on="1"/>
        <pt x="1578" y="6" on="0"/>
        <pt x="1352" y="6" on="1"/>
        <pt x="1100" y="6" on="0"/>
        <pt x="983" y="0" on="1"/>
        <pt x="991" y="41" on="1"/>
        <pt x="1066" y="44" on="0"/>
        <pt x="1139" y="70" on="0"/>
        <pt x="1182" y="140" on="0"/>
        <pt x="1202" y="217" on="1"/>
        <pt x="1499" y="1321" on="1"/>
        <pt x="649" y="-10" on="1"/>
        <pt x="604" y="-10" on="1"/>
        <pt x="422" y="1186" on="1"/>
        <pt x="184" y="281" on="1"/>
        <pt x="169" y="226" on="0"/>
        <pt x="169" y="183" on="1"/>
        <pt x="169" y="46" on="0"/>
        <pt x="350" y="41" on="1"/>
        <pt x="342" y="0" on="1"/>
        <pt x="269" y="6" on="0"/>
        <pt x="98" y="6" on="1"/>
        <pt x="-28" y="6" on="0"/>
        <pt x="-96" y="0" on="1"/>
        <pt x="-88" y="41" on="1"/>
        <pt x="8" y="45" on="0"/>
        <pt x="112" y="176" on="0"/>
        <pt x="139" y="281" on="1"/>
        <pt x="393" y="1233" on="1"/>
        <pt x="410" y="1298" on="0"/>
        <pt x="410" y="1331" on="1"/>
        <pt x="410" y="1362" on="0"/>
        <pt x="383" y="1394" on="0"/>
        <pt x="325" y="1407" on="0"/>
        <pt x="272" y="1409" on="1"/>
        <pt x="283" y="1450" on="1"/>
        <pt x="395" y="1444" on="0"/>
        <pt x="629" y="1444" on="1"/>
        <pt x="738" y="1444" on="0"/>
        <pt x="817" y="1450" on="1"/>
        <pt x="936" y="516" on="1"/>
        <pt x="1528" y="1444" on="1"/>
        <pt x="1729" y="1444" on="1"/>
      </contour>
    </TTGlyph>
    <TTGlyph name="N" xMin="-174" yMin="-152" xMax="1993" yMax="1544">
      <contour>
        <pt x="1824" y="1544" on="0"/>
        <pt x="1933" y="1486" on="0"/>
        <pt x="1993" y="1386" on="0"/>
        <pt x="1993" y="1325" on="1"/>
        <pt x="1993" y="1261" on="0"/>
        <pt x="1932" y="1163" on="0"/>
        <pt x="1827" y="1110" on="0"/>
        <pt x="1763" y="1110" on="1"/>
        <pt x="1679" y="1110" on="0"/>
        <pt x="1581" y="1190" on="0"/>
        <pt x="1581" y="1262" on="1"/>
        <pt x="1581" y="1322" on="0"/>
        <pt x="1636" y="1420" on="0"/>
        <pt x="1733" y="1483" on="0"/>
        <pt x="1794" y="1493" on="1"/>
        <pt x="1778" y="1509" on="0"/>
        <pt x="1743" y="1509" on="1"/>
        <pt x="1693" y="1509" on="0"/>
        <pt x="1604" y="1448" on="0"/>
        <pt x="1569" y="1397" on="1"/>
        <pt x="1478" y="1261" on="0"/>
        <pt x="1282" y="579" on="0"/>
        <pt x="1157" y="-10" on="1"/>
        <pt x="1112" y="-10" on="1"/>
        <pt x="576" y="965" on="1"/>
        <pt x="402" y="133" on="0"/>
        <pt x="285" y="-23" on="1"/>
        <pt x="240" y="-83" on="0"/>
        <pt x="139" y="-152" on="0"/>
        <pt x="66" y="-152" on="1"/>
        <pt x="-5" y="-152" on="0"/>
        <pt x="-114" y="-94" on="0"/>
        <pt x="-174" y="6" on="0"/>
        <pt x="-174" y="68" on="1"/>
        <pt x="-174" y="132" on="0"/>
        <pt x="-113" y="230" on="0"/>
        <pt x="-9" y="283" on="0"/>
        <pt x="55" y="283" on="1"/>
        <pt x="139" y="283" on="0"/>
        <pt x="238" y="202" on="0"/>
        <pt x="238" y="131" on="1"/>
        <pt x="238" y="71" on="0"/>
        <pt x="182" y="-27" on="0"/>
        <pt x="85" y="-90" on="0"/>
        <pt x="25" y="-100" on="1"/>
        <pt x="40" y="-117" on="0"/>
        <pt x="76" y="-117" on="1"/>
        <pt x="179" y="-117" on="0"/>
        <pt x="252" y="-2" on="1"/>
        <pt x="329" y="118" on="0"/>
        <pt x="492" y="737" on="0"/>
        <pt x="588" y="1229" on="1"/>
        <pt x="588" y="1233" on="1"/>
        <pt x="600" y="1290" on="0"/>
        <pt x="600" y="1324" on="1"/>
        <pt x="600" y="1358" on="0"/>
        <pt x="571" y="1393" on="0"/>
        <pt x="505" y="1407" on="0"/>
        <pt x="442" y="1409" on="1"/>
        <pt x="453" y="1450" on="1"/>
        <pt x="517" y="1444" on="0"/>
        <pt x="635" y="1444" on="1"/>
        <pt x="730" y="1444" on="0"/>
        <pt x="801" y="1450" on="1"/>
        <pt x="1248" y="580" on="1"/>
        <pt x="1407" y="1232" on="0"/>
        <pt x="1532" y="1413" on="1"/>
        <pt x="1622" y="1544" on="0"/>
        <pt x="1753" y="1544" on="1"/>
      </contour>
    </TTGlyph>
    <TTGlyph name="Nacute" xMin="-174" yMin="-152" xMax="1993" yMax="1986">
      <component glyphName=".ttfautohint" x="0" y="0" flags="0x0"/>
      <component glyphName="N" x="0" y="0" flags="0x0"/>
      <component glyphName="acute.case" x="985" y="0" flags="0x0"/>
    </TTGlyph>
    <TTGlyph name="Nacute.loclPLK" xMin="-174" yMin="-152" xMax="1993" yMax="2035">
      <component glyphName=".ttfautohint" x="0" y="0" flags="0x0"/>
      <component glyphName="N" x="0" y="0" flags="0x0"/>
      <component glyphName="acute.loclPLK.case" x="1042" y="0" flags="0x0"/>
    </TTGlyph>
    <TTGlyph name="Ncaron" xMin="-174" yMin="-152" xMax="1993" yMax="1937">
      <component glyphName=".ttfautohint" x="0" y="0" flags="0x0"/>
      <component glyphName="N" x="0" y="0" flags="0x0"/>
      <component glyphName="caron.case" x="713" y="0" flags="0x0"/>
    </TTGlyph>
    <TTGlyph name="Ncommaaccent" xMin="-174" yMin="-494" xMax="1993" yMax="1544">
      <component glyphName=".ttfautohint" x="0" y="0" flags="0x0"/>
      <component glyphName="N" x="0" y="0" flags="0x0"/>
      <component glyphName="commaaccentcomb.case" x="494" y="0" flags="0x0"/>
    </TTGlyph>
    <TTGlyph name="Ntilde" xMin="-174" yMin="-152" xMax="1993" yMax="1942">
      <component glyphName=".ttfautohint" x="0" y="0" flags="0x0"/>
      <component glyphName="N" x="0" y="0" flags="0x0"/>
      <component glyphName="tilde.case" x="666" y="0" flags="0x0"/>
    </TTGlyph>
    <TTGlyph name="O" xMin="70" yMin="-29" xMax="1653" yMax="1479">
      <contour>
        <pt x="70" y="695" on="0"/>
        <pt x="319" y="1169" on="0"/>
        <pt x="767" y="1479" on="0"/>
        <pt x="1047" y="1479" on="1"/>
        <pt x="1235" y="1479" on="0"/>
        <pt x="1507" y="1363" on="0"/>
        <pt x="1653" y="1141" on="0"/>
        <pt x="1653" y="985" on="1"/>
        <pt x="1653" y="754" on="0"/>
        <pt x="1402" y="281" on="0"/>
        <pt x="953" y="-29" on="0"/>
        <pt x="674" y="-29" on="1"/>
        <pt x="486" y="-29" on="0"/>
        <pt x="214" y="87" on="0"/>
        <pt x="70" y="308" on="0"/>
        <pt x="70" y="463" on="1"/>
      </contour>
      <contour>
        <pt x="899" y="1442" on="0"/>
        <pt x="659" y="1147" on="0"/>
        <pt x="512" y="679" on="0"/>
        <pt x="512" y="436" on="1"/>
        <pt x="512" y="305" on="0"/>
        <pt x="558" y="111" on="0"/>
        <pt x="640" y="8" on="0"/>
        <pt x="692" y="8" on="1"/>
        <pt x="821" y="8" on="0"/>
        <pt x="1061" y="303" on="0"/>
        <pt x="1208" y="771" on="0"/>
        <pt x="1208" y="1014" on="1"/>
        <pt x="1208" y="1145" on="0"/>
        <pt x="1162" y="1339" on="0"/>
        <pt x="1081" y="1442" on="0"/>
        <pt x="1028" y="1442" on="1"/>
      </contour>
    </TTGlyph>
    <TTGlyph name="OE" xMin="70" yMin="-29" xMax="2200" yMax="1479">
      <contour>
        <pt x="2071" y="1444" on="0"/>
        <pt x="2200" y="1450" on="1"/>
        <pt x="2147" y="1312" on="0"/>
        <pt x="2122" y="1208" on="1"/>
        <pt x="2110" y="1161" on="0"/>
        <pt x="2095" y="1081" on="1"/>
        <pt x="2050" y="1081" on="1"/>
        <pt x="2065" y="1167" on="0"/>
        <pt x="2065" y="1226" on="1"/>
        <pt x="2065" y="1322" on="0"/>
        <pt x="1980" y="1403" on="0"/>
        <pt x="1884" y="1403" on="1"/>
        <pt x="1796" y="1403" on="1"/>
        <pt x="1725" y="1403" on="0"/>
        <pt x="1654" y="1379" on="0"/>
        <pt x="1611" y="1310" on="0"/>
        <pt x="1591" y="1233" on="1"/>
        <pt x="1463" y="750" on="1"/>
        <pt x="1581" y="750" on="1"/>
        <pt x="1639" y="750" on="0"/>
        <pt x="1716" y="811" on="0"/>
        <pt x="1763" y="902" on="0"/>
        <pt x="1792" y="979" on="1"/>
        <pt x="1837" y="979" on="1"/>
        <pt x="1814" y="910" on="0"/>
        <pt x="1783" y="791" on="1"/>
        <pt x="1767" y="729" on="1"/>
        <pt x="1746" y="651" on="0"/>
        <pt x="1714" y="479" on="1"/>
        <pt x="1669" y="479" on="1"/>
        <pt x="1669" y="490" on="0"/>
        <pt x="1674" y="542" on="1"/>
        <pt x="1679" y="579" on="0"/>
        <pt x="1679" y="605" on="1"/>
        <pt x="1679" y="651" on="0"/>
        <pt x="1634" y="705" on="0"/>
        <pt x="1573" y="709" on="1"/>
        <pt x="1452" y="709" on="1"/>
        <pt x="1321" y="217" on="1"/>
        <pt x="1304" y="151" on="0"/>
        <pt x="1304" y="118" on="1"/>
        <pt x="1304" y="88" on="0"/>
        <pt x="1331" y="58" on="0"/>
        <pt x="1387" y="47" on="0"/>
        <pt x="1438" y="47" on="1"/>
        <pt x="1546" y="47" on="1"/>
        <pt x="1645" y="47" on="0"/>
        <pt x="1772" y="115" on="0"/>
        <pt x="1865" y="269" on="0"/>
        <pt x="1913" y="410" on="1"/>
        <pt x="1958" y="410" on="1"/>
        <pt x="1939" y="360" on="0"/>
        <pt x="1915" y="262" on="1"/>
        <pt x="1880" y="135" on="0"/>
        <pt x="1862" y="0" on="1"/>
        <pt x="1722" y="6" on="0"/>
        <pt x="1399" y="6" on="1"/>
        <pt x="1059" y="6" on="0"/>
        <pt x="893" y="4" on="1"/>
        <pt x="778" y="-29" on="0"/>
        <pt x="674" y="-29" on="1"/>
        <pt x="486" y="-29" on="0"/>
        <pt x="214" y="87" on="0"/>
        <pt x="70" y="308" on="0"/>
        <pt x="70" y="463" on="1"/>
        <pt x="70" y="695" on="0"/>
        <pt x="319" y="1169" on="0"/>
        <pt x="767" y="1479" on="0"/>
        <pt x="1047" y="1479" on="1"/>
        <pt x="1134" y="1479" on="0"/>
        <pt x="1227" y="1444" on="1"/>
        <pt x="1286" y="1443" on="0"/>
        <pt x="1426" y="1443" on="1"/>
        <pt x="1776" y="1444" on="1"/>
      </contour>
      <contour>
        <pt x="1193" y="1294" on="0"/>
        <pt x="1193" y="1340" on="1"/>
        <pt x="1193" y="1396" on="0"/>
        <pt x="1128" y="1442" on="0"/>
        <pt x="1055" y="1442" on="1"/>
        <pt x="913" y="1442" on="0"/>
        <pt x="662" y="1148" on="0"/>
        <pt x="512" y="681" on="0"/>
        <pt x="512" y="436" on="1"/>
        <pt x="512" y="234" on="0"/>
        <pt x="623" y="8" on="0"/>
        <pt x="725" y="8" on="1"/>
        <pt x="785" y="8" on="0"/>
        <pt x="863" y="55" on="0"/>
        <pt x="879" y="113" on="1"/>
        <pt x="1176" y="1233" on="1"/>
      </contour>
    </TTGlyph>
    <TTGlyph name="Oacute" xMin="70" yMin="-29" xMax="1653" yMax="1986">
      <component glyphName=".ttfautohint" x="70" y="0" flags="0x0"/>
      <component glyphName="O" x="0" y="0" flags="0x0"/>
      <component glyphName="acute.case" x="930" y="0" flags="0x0"/>
    </TTGlyph>
    <TTGlyph name="Oacute.loclPLK" xMin="70" yMin="-29" xMax="1653" yMax="2035">
      <component glyphName=".ttfautohint" x="70" y="0" flags="0x0"/>
      <component glyphName="O" x="0" y="0" flags="0x0"/>
      <component glyphName="acute.loclPLK.case" x="987" y="0" flags="0x0"/>
    </TTGlyph>
    <TTGlyph name="Obreve" xMin="70" yMin="-29" xMax="1653" yMax="1921">
      <component glyphName=".ttfautohint" x="70" y="0" flags="0x0"/>
      <component glyphName="O" x="0" y="0" flags="0x0"/>
      <component glyphName="breve.case" x="637" y="0" flags="0x0"/>
    </TTGlyph>
    <TTGlyph name="Ocircumflex" xMin="70" yMin="-29" xMax="1653" yMax="1958">
      <component glyphName=".ttfautohint" x="70" y="0" flags="0x0"/>
      <component glyphName="O" x="0" y="0" flags="0x0"/>
      <component glyphName="circumflex.case" x="664" y="0" flags="0x0"/>
    </TTGlyph>
    <TTGlyph name="Odieresis" xMin="70" yMin="-29" xMax="1653" yMax="1917">
      <component glyphName=".ttfautohint" x="70" y="0" flags="0x0"/>
      <component glyphName="O" x="0" y="0" flags="0x0"/>
      <component glyphName="dieresis.case" x="709" y="0" flags="0x0"/>
    </TTGlyph>
    <TTGlyph name="Ograve" xMin="70" yMin="-29" xMax="1653" yMax="1938">
      <component glyphName=".ttfautohint" x="70" y="0" flags="0x0"/>
      <component glyphName="O" x="0" y="0" flags="0x0"/>
      <component glyphName="grave.case" x="711" y="0" flags="0x0"/>
    </TTGlyph>
    <TTGlyph name="Ohungarumlaut" xMin="70" yMin="-29" xMax="1661" yMax="1955">
      <component glyphName=".ttfautohint" x="70" y="0" flags="0x0"/>
      <component glyphName="O" x="0" y="0" flags="0x0"/>
      <component glyphName="hungarumlaut.case" x="666" y="0" flags="0x0"/>
    </TTGlyph>
    <TTGlyph name="Omacron" xMin="70" yMin="-29" xMax="1653" yMax="1729">
      <component glyphName=".ttfautohint" x="70" y="0" flags="0x0"/>
      <component glyphName="O" x="0" y="0" flags="0x0"/>
      <component glyphName="macron.case" x="684" y="0" flags="0x0"/>
    </TTGlyph>
    <TTGlyph name="Omega" xMin="221" yMin="0" xMax="1606" yMax="1479">
      <contour>
        <pt x="1132" y="1479" on="0"/>
        <pt x="1444" y="1356" on="0"/>
        <pt x="1606" y="1126" on="0"/>
        <pt x="1606" y="967" on="1"/>
        <pt x="1606" y="852" on="0"/>
        <pt x="1525" y="653" on="0"/>
        <pt x="1404" y="488" on="0"/>
        <pt x="1296" y="363" on="1"/>
        <pt x="1215" y="271" on="0"/>
        <pt x="1101" y="127" on="0"/>
        <pt x="1049" y="47" on="1"/>
        <pt x="1165" y="47" on="1"/>
        <pt x="1309" y="47" on="0"/>
        <pt x="1500" y="226" on="0"/>
        <pt x="1542" y="430" on="1"/>
        <pt x="1589" y="430" on="1"/>
        <pt x="1583" y="372" on="0"/>
        <pt x="1583" y="283" on="1"/>
        <pt x="1583" y="158" on="0"/>
        <pt x="1597" y="0" on="1"/>
        <pt x="1507" y="6" on="0"/>
        <pt x="1292" y="6" on="1"/>
        <pt x="1219" y="6" on="0"/>
        <pt x="1127" y="3" on="1"/>
        <pt x="997" y="0" on="1"/>
        <pt x="997" y="33" on="1"/>
        <pt x="1079" y="194" on="0"/>
        <pt x="1217" y="662" on="0"/>
        <pt x="1217" y="926" on="1"/>
        <pt x="1217" y="1180" on="0"/>
        <pt x="1076" y="1442" on="0"/>
        <pt x="913" y="1442" on="1"/>
        <pt x="751" y="1442" on="0"/>
        <pt x="610" y="1180" on="0"/>
        <pt x="610" y="926" on="1"/>
        <pt x="610" y="663" on="0"/>
        <pt x="747" y="196" on="0"/>
        <pt x="829" y="33" on="1"/>
        <pt x="829" y="0" on="1"/>
        <pt x="699" y="3" on="1"/>
        <pt x="609" y="6" on="0"/>
        <pt x="535" y="6" on="1"/>
        <pt x="319" y="6" on="0"/>
        <pt x="229" y="0" on="1"/>
        <pt x="244" y="154" on="0"/>
        <pt x="244" y="283" on="1"/>
        <pt x="244" y="372" on="0"/>
        <pt x="238" y="430" on="1"/>
        <pt x="285" y="430" on="1"/>
        <pt x="327" y="226" on="0"/>
        <pt x="518" y="47" on="0"/>
        <pt x="662" y="47" on="1"/>
        <pt x="778" y="47" on="1"/>
        <pt x="726" y="127" on="0"/>
        <pt x="612" y="271" on="0"/>
        <pt x="531" y="363" on="1"/>
        <pt x="423" y="488" on="0"/>
        <pt x="302" y="653" on="0"/>
        <pt x="221" y="852" on="0"/>
        <pt x="221" y="967" on="1"/>
        <pt x="221" y="1126" on="0"/>
        <pt x="383" y="1356" on="0"/>
        <pt x="694" y="1479" on="0"/>
        <pt x="913" y="1479" on="1"/>
      </contour>
    </TTGlyph>
    <TTGlyph name="Oslash" xMin="18" yMin="-150" xMax="1671" yMax="1583">
      <contour>
        <pt x="1653" y="1226" on="0"/>
        <pt x="1653" y="985" on="1"/>
        <pt x="1653" y="754" on="0"/>
        <pt x="1402" y="281" on="0"/>
        <pt x="953" y="-29" on="0"/>
        <pt x="674" y="-29" on="1"/>
        <pt x="425" y="-29" on="0"/>
        <pt x="269" y="72" on="1"/>
        <pt x="53" y="-150" on="1"/>
        <pt x="18" y="-121" on="1"/>
        <pt x="233" y="98" on="1"/>
        <pt x="70" y="228" on="0"/>
        <pt x="70" y="463" on="1"/>
        <pt x="70" y="695" on="0"/>
        <pt x="319" y="1169" on="0"/>
        <pt x="767" y="1479" on="0"/>
        <pt x="1047" y="1479" on="1"/>
        <pt x="1292" y="1479" on="0"/>
        <pt x="1447" y="1381" on="1"/>
        <pt x="1640" y="1583" on="1"/>
        <pt x="1671" y="1556" on="1"/>
        <pt x="1482" y="1357" on="1"/>
      </contour>
      <contour>
        <pt x="899" y="1442" on="0"/>
        <pt x="659" y="1147" on="0"/>
        <pt x="512" y="679" on="0"/>
        <pt x="512" y="436" on="1"/>
        <pt x="512" y="384" on="0"/>
        <pt x="517" y="326" on="1"/>
        <pt x="1202" y="1142" on="1"/>
        <pt x="1186" y="1284" on="0"/>
        <pt x="1094" y="1442" on="0"/>
        <pt x="1028" y="1442" on="1"/>
      </contour>
      <contour>
        <pt x="821" y="8" on="0"/>
        <pt x="1061" y="303" on="0"/>
        <pt x="1208" y="771" on="0"/>
        <pt x="1208" y="1014" on="1"/>
        <pt x="1208" y="1038" on="0"/>
        <pt x="1206" y="1082" on="1"/>
        <pt x="524" y="267" on="1"/>
        <pt x="543" y="144" on="0"/>
        <pt x="632" y="8" on="0"/>
        <pt x="692" y="8" on="1"/>
      </contour>
    </TTGlyph>
    <TTGlyph name="Otilde" xMin="70" yMin="-29" xMax="1662" yMax="1942">
      <component glyphName=".ttfautohint" x="70" y="0" flags="0x0"/>
      <component glyphName="O" x="0" y="0" flags="0x0"/>
      <component glyphName="tilde.case" x="611" y="0" flags="0x0"/>
    </TTGlyph>
    <TTGlyph name="P" xMin="-98" yMin="0" xMax="1485" yMax="1450">
      <contour>
        <pt x="521" y="167" on="0"/>
        <pt x="521" y="135" on="1"/>
        <pt x="521" y="90" on="0"/>
        <pt x="582" y="45" on="0"/>
        <pt x="655" y="41" on="1"/>
        <pt x="647" y="0" on="1"/>
        <pt x="506" y="6" on="0"/>
        <pt x="291" y="6" on="1"/>
        <pt x="25" y="6" on="0"/>
        <pt x="-98" y="0" on="1"/>
        <pt x="-90" y="41" on="1"/>
        <pt x="-16" y="44" on="0"/>
        <pt x="57" y="70" on="0"/>
        <pt x="101" y="140" on="0"/>
        <pt x="121" y="217" on="1"/>
        <pt x="391" y="1233" on="1"/>
        <pt x="405" y="1311" on="0"/>
        <pt x="405" y="1327" on="1"/>
        <pt x="405" y="1368" on="0"/>
        <pt x="347" y="1405" on="0"/>
        <pt x="270" y="1409" on="1"/>
        <pt x="281" y="1450" on="1"/>
        <pt x="400" y="1444" on="0"/>
        <pt x="655" y="1444" on="1"/>
        <pt x="704" y="1444" on="0"/>
        <pt x="802" y="1446" on="1"/>
        <pt x="902" y="1448" on="0"/>
        <pt x="954" y="1448" on="1"/>
        <pt x="1224" y="1448" on="0"/>
        <pt x="1485" y="1296" on="0"/>
        <pt x="1485" y="1139" on="1"/>
        <pt x="1485" y="984" on="0"/>
        <pt x="1271" y="735" on="0"/>
        <pt x="883" y="588" on="0"/>
        <pt x="632" y="582" on="1"/>
        <pt x="535" y="217" on="1"/>
      </contour>
      <contour>
        <pt x="786" y="634" on="0"/>
        <pt x="970" y="814" on="0"/>
        <pt x="1053" y="1067" on="0"/>
        <pt x="1053" y="1194" on="1"/>
        <pt x="1053" y="1300" on="0"/>
        <pt x="977" y="1409" on="0"/>
        <pt x="895" y="1409" on="1"/>
        <pt x="872" y="1409" on="0"/>
        <pt x="848" y="1391" on="0"/>
        <pt x="834" y="1351" on="0"/>
        <pt x="823" y="1304" on="1"/>
        <pt x="805" y="1233" on="1"/>
        <pt x="643" y="624" on="1"/>
      </contour>
    </TTGlyph>
    <TTGlyph name="Q" xMin="-70" yMin="-385" xMax="1757" yMax="1479">
      <contour>
        <pt x="1494" y="283" on="0"/>
        <pt x="1612" y="177" on="0"/>
        <pt x="1612" y="76" on="1"/>
        <pt x="1612" y="-36" on="0"/>
        <pt x="1463" y="-250" on="0"/>
        <pt x="1189" y="-385" on="0"/>
        <pt x="1010" y="-385" on="1"/>
        <pt x="876" y="-385" on="0"/>
        <pt x="658" y="-309" on="0"/>
        <pt x="499" y="-201" on="0"/>
        <pt x="403" y="-119" on="1"/>
        <pt x="253" y="-168" on="0"/>
        <pt x="143" y="-168" on="1"/>
        <pt x="44" y="-168" on="0"/>
        <pt x="-70" y="-83" on="0"/>
        <pt x="-70" y="6" on="1"/>
        <pt x="-70" y="80" on="0"/>
        <pt x="11" y="200" on="0"/>
        <pt x="154" y="268" on="0"/>
        <pt x="242" y="268" on="1"/>
        <pt x="320" y="268" on="0"/>
        <pt x="483" y="214" on="0"/>
        <pt x="637" y="129" on="0"/>
        <pt x="737" y="64" on="1"/>
        <pt x="914" y="160" on="0"/>
        <pt x="1175" y="440" on="0"/>
        <pt x="1319" y="803" on="0"/>
        <pt x="1319" y="1016" on="1"/>
        <pt x="1319" y="1221" on="0"/>
        <pt x="1175" y="1442" on="0"/>
        <pt x="1038" y="1442" on="1"/>
        <pt x="907" y="1442" on="0"/>
        <pt x="704" y="1250" on="0"/>
        <pt x="592" y="949" on="0"/>
        <pt x="592" y="793" on="1"/>
        <pt x="592" y="720" on="0"/>
        <pt x="624" y="621" on="0"/>
        <pt x="709" y="565" on="0"/>
        <pt x="786" y="565" on="1"/>
        <pt x="864" y="565" on="0"/>
        <pt x="1001" y="621" on="0"/>
        <pt x="1100" y="719" on="0"/>
        <pt x="1126" y="782" on="1"/>
        <pt x="1148" y="833" on="0"/>
        <pt x="1151" y="891" on="1"/>
        <pt x="1130" y="816" on="0"/>
        <pt x="1014" y="748" on="0"/>
        <pt x="950" y="748" on="1"/>
        <pt x="896" y="748" on="0"/>
        <pt x="814" y="797" on="0"/>
        <pt x="770" y="884" on="0"/>
        <pt x="770" y="938" on="1"/>
        <pt x="770" y="1003" on="0"/>
        <pt x="832" y="1109" on="0"/>
        <pt x="937" y="1169" on="0"/>
        <pt x="999" y="1169" on="1"/>
        <pt x="1092" y="1169" on="0"/>
        <pt x="1198" y="1037" on="0"/>
        <pt x="1198" y="926" on="1"/>
        <pt x="1198" y="798" on="0"/>
        <pt x="1059" y="604" on="0"/>
        <pt x="810" y="498" on="0"/>
        <pt x="651" y="498" on="1"/>
        <pt x="510" y="498" on="0"/>
        <pt x="286" y="583" on="0"/>
        <pt x="158" y="749" on="0"/>
        <pt x="158" y="866" on="1"/>
        <pt x="158" y="1035" on="0"/>
        <pt x="417" y="1317" on="0"/>
        <pt x="845" y="1479" on="0"/>
        <pt x="1087" y="1479" on="1"/>
        <pt x="1279" y="1479" on="0"/>
        <pt x="1584" y="1376" on="0"/>
        <pt x="1757" y="1190" on="0"/>
        <pt x="1757" y="1069" on="1"/>
        <pt x="1757" y="913" on="0"/>
        <pt x="1473" y="535" on="0"/>
        <pt x="1020" y="175" on="0"/>
        <pt x="772" y="42" on="1"/>
        <pt x="889" y="-34" on="0"/>
        <pt x="1046" y="-124" on="0"/>
        <pt x="1219" y="-186" on="0"/>
        <pt x="1303" y="-186" on="1"/>
        <pt x="1407" y="-186" on="0"/>
        <pt x="1520" y="-97" on="0"/>
        <pt x="1544" y="-37" on="1"/>
        <pt x="1474" y="-104" on="0"/>
        <pt x="1370" y="-104" on="1"/>
        <pt x="1315" y="-104" on="0"/>
        <pt x="1224" y="-62" on="0"/>
        <pt x="1171" y="20" on="0"/>
        <pt x="1171" y="78" on="1"/>
        <pt x="1171" y="138" on="0"/>
        <pt x="1229" y="231" on="0"/>
        <pt x="1333" y="283" on="0"/>
        <pt x="1399" y="283" on="1"/>
      </contour>
      <contour>
        <pt x="238" y="-133" on="0"/>
        <pt x="370" y="-91" on="1"/>
        <pt x="279" y="-15" on="0"/>
        <pt x="151" y="59" on="0"/>
        <pt x="80" y="59" on="1"/>
        <pt x="29" y="59" on="0"/>
        <pt x="-23" y="19" on="0"/>
        <pt x="-23" y="-18" on="1"/>
        <pt x="-23" y="-70" on="0"/>
        <pt x="71" y="-133" on="0"/>
        <pt x="156" y="-133" on="1"/>
      </contour>
    </TTGlyph>
    <TTGlyph name="R" xMin="-98" yMin="-29" xMax="1485" yMax="1450">
      <contour>
        <pt x="1475" y="248" on="1"/>
        <pt x="1466" y="221" on="1"/>
        <pt x="1426" y="91" on="0"/>
        <pt x="1255" y="-29" on="0"/>
        <pt x="1108" y="-29" on="1"/>
        <pt x="960" y="-29" on="0"/>
        <pt x="813" y="83" on="0"/>
        <pt x="813" y="186" on="1"/>
        <pt x="813" y="214" on="0"/>
        <pt x="817" y="238" on="1"/>
        <pt x="856" y="471" on="1"/>
        <pt x="862" y="507" on="0"/>
        <pt x="862" y="540" on="1"/>
        <pt x="862" y="614" on="0"/>
        <pt x="773" y="694" on="0"/>
        <pt x="664" y="699" on="1"/>
        <pt x="537" y="217" on="1"/>
        <pt x="517" y="141" on="0"/>
        <pt x="517" y="117" on="1"/>
        <pt x="517" y="79" on="0"/>
        <pt x="577" y="45" on="0"/>
        <pt x="655" y="41" on="1"/>
        <pt x="647" y="0" on="1"/>
        <pt x="506" y="6" on="0"/>
        <pt x="283" y="6" on="1"/>
        <pt x="25" y="6" on="0"/>
        <pt x="-98" y="0" on="1"/>
        <pt x="-90" y="41" on="1"/>
        <pt x="-16" y="44" on="0"/>
        <pt x="57" y="70" on="0"/>
        <pt x="101" y="140" on="0"/>
        <pt x="121" y="217" on="1"/>
        <pt x="389" y="1233" on="1"/>
        <pt x="407" y="1305" on="0"/>
        <pt x="407" y="1329" on="1"/>
        <pt x="407" y="1368" on="0"/>
        <pt x="347" y="1404" on="0"/>
        <pt x="270" y="1409" on="1"/>
        <pt x="281" y="1450" on="1"/>
        <pt x="400" y="1444" on="0"/>
        <pt x="629" y="1444" on="1"/>
        <pt x="717" y="1444" on="0"/>
        <pt x="825" y="1446" on="1"/>
        <pt x="909" y="1448" on="0"/>
        <pt x="942" y="1448" on="1"/>
        <pt x="1131" y="1448" on="0"/>
        <pt x="1369" y="1392" on="0"/>
        <pt x="1485" y="1268" on="0"/>
        <pt x="1485" y="1165" on="1"/>
        <pt x="1485" y="1041" on="0"/>
        <pt x="1326" y="849" on="0"/>
        <pt x="1034" y="731" on="0"/>
        <pt x="837" y="714" on="1"/>
        <pt x="972" y="705" on="0"/>
        <pt x="1157" y="661" on="0"/>
        <pt x="1268" y="562" on="0"/>
        <pt x="1268" y="476" on="1"/>
        <pt x="1268" y="451" on="0"/>
        <pt x="1264" y="428" on="1"/>
        <pt x="1229" y="215" on="1"/>
        <pt x="1224" y="185" on="0"/>
        <pt x="1224" y="167" on="1"/>
        <pt x="1224" y="88" on="0"/>
        <pt x="1290" y="88" on="1"/>
        <pt x="1332" y="88" on="0"/>
        <pt x="1393" y="153" on="0"/>
        <pt x="1417" y="219" on="1"/>
        <pt x="1427" y="248" on="1"/>
      </contour>
      <contour>
        <pt x="887" y="1409" on="0"/>
        <pt x="840" y="1364" on="0"/>
        <pt x="823" y="1303" on="1"/>
        <pt x="674" y="735" on="1"/>
        <pt x="772" y="740" on="0"/>
        <pt x="955" y="847" on="0"/>
        <pt x="1073" y="1057" on="0"/>
        <pt x="1073" y="1208" on="1"/>
        <pt x="1073" y="1409" on="0"/>
        <pt x="930" y="1409" on="1"/>
      </contour>
    </TTGlyph>
    <TTGlyph name="Racute" xMin="-98" yMin="-29" xMax="1485" yMax="1986">
      <component glyphName=".ttfautohint" x="0" y="0" flags="0x0"/>
      <component glyphName="R" x="0" y="0" flags="0x0"/>
      <component glyphName="acute.case" x="713" y="0" flags="0x0"/>
    </TTGlyph>
    <TTGlyph name="Rcaron" xMin="-98" yMin="-29" xMax="1520" yMax="1937">
      <component glyphName=".ttfautohint" x="0" y="0" flags="0x0"/>
      <component glyphName="R" x="0" y="0" flags="0x0"/>
      <component glyphName="caron.case" x="441" y="0" flags="0x0"/>
    </TTGlyph>
    <TTGlyph name="Rcommaaccent" xMin="-98" yMin="-494" xMax="1485" yMax="1450">
      <component glyphName=".ttfautohint" x="0" y="0" flags="0x0"/>
      <component glyphName="R" x="0" y="0" flags="0x0"/>
      <component glyphName="commaaccentcomb.case" x="477" y="0" flags="0x0"/>
    </TTGlyph>
    <TTGlyph name="S" xMin="-72" yMin="-29" xMax="1329" yMax="1479">
      <contour>
        <pt x="1251" y="1274" on="0"/>
        <pt x="1208" y="1047" on="1"/>
        <pt x="1167" y="1047" on="1"/>
        <pt x="1180" y="1102" on="0"/>
        <pt x="1180" y="1159" on="1"/>
        <pt x="1180" y="1283" on="0"/>
        <pt x="1023" y="1423" on="0"/>
        <pt x="885" y="1423" on="1"/>
        <pt x="788" y="1423" on="0"/>
        <pt x="664" y="1327" on="0"/>
        <pt x="664" y="1225" on="1"/>
        <pt x="664" y="1162" on="0"/>
        <pt x="721" y="1036" on="0"/>
        <pt x="806" y="924" on="0"/>
        <pt x="877" y="842" on="1"/>
        <pt x="957" y="749" on="0"/>
        <pt x="1053" y="620" on="0"/>
        <pt x="1120" y="467" on="0"/>
        <pt x="1120" y="385" on="1"/>
        <pt x="1120" y="246" on="0"/>
        <pt x="930" y="59" on="0"/>
        <pt x="654" y="-29" on="0"/>
        <pt x="524" y="-29" on="1"/>
        <pt x="420" y="-29" on="0"/>
        <pt x="287" y="-9" on="0"/>
        <pt x="192" y="29" on="0"/>
        <pt x="127" y="66" on="1"/>
        <pt x="73" y="96" on="0"/>
        <pt x="57" y="96" on="1"/>
        <pt x="38" y="96" on="0"/>
        <pt x="13" y="78" on="0"/>
        <pt x="-11" y="33" on="0"/>
        <pt x="-31" y="-14" on="1"/>
        <pt x="-72" y="-14" on="1"/>
        <pt x="-4" y="148" on="0"/>
        <pt x="68" y="477" on="1"/>
        <pt x="109" y="477" on="1"/>
        <pt x="90" y="424" on="0"/>
        <pt x="90" y="336" on="1"/>
        <pt x="90" y="179" on="0"/>
        <pt x="264" y="18" on="0"/>
        <pt x="424" y="18" on="1"/>
        <pt x="557" y="18" on="0"/>
        <pt x="664" y="118" on="0"/>
        <pt x="664" y="207" on="1"/>
        <pt x="664" y="289" on="0"/>
        <pt x="607" y="436" on="0"/>
        <pt x="524" y="558" on="0"/>
        <pt x="455" y="644" on="1"/>
        <pt x="387" y="729" on="0"/>
        <pt x="307" y="846" on="0"/>
        <pt x="252" y="986" on="0"/>
        <pt x="252" y="1063" on="1"/>
        <pt x="252" y="1198" on="0"/>
        <pt x="417" y="1386" on="0"/>
        <pt x="666" y="1479" on="0"/>
        <pt x="791" y="1479" on="1"/>
        <pt x="878" y="1479" on="0"/>
        <pt x="1017" y="1447" on="0"/>
        <pt x="1085" y="1417" on="0"/>
        <pt x="1153" y="1384" on="1"/>
        <pt x="1186" y="1370" on="0"/>
        <pt x="1175" y="1374" on="1"/>
        <pt x="1211" y="1356" on="0"/>
        <pt x="1221" y="1356" on="1"/>
        <pt x="1237" y="1356" on="0"/>
        <pt x="1268" y="1407" on="0"/>
        <pt x="1288" y="1464" on="1"/>
        <pt x="1329" y="1464" on="1"/>
      </contour>
    </TTGlyph>
    <TTGlyph name="Sacute" xMin="-72" yMin="-29" xMax="1329" yMax="1986">
      <component glyphName=".ttfautohint" x="0" y="0" flags="0x0"/>
      <component glyphName="S" x="0" y="0" flags="0x0"/>
      <component glyphName="acute.case" x="668" y="0" flags="0x0"/>
    </TTGlyph>
    <TTGlyph name="Sacute.loclPLK" xMin="-72" yMin="-29" xMax="1329" yMax="2035">
      <component glyphName=".ttfautohint" x="0" y="0" flags="0x0"/>
      <component glyphName="S" x="0" y="0" flags="0x0"/>
      <component glyphName="acute.loclPLK.case" x="725" y="0" flags="0x0"/>
    </TTGlyph>
    <TTGlyph name="Scaron" xMin="-72" yMin="-29" xMax="1475" yMax="1937">
      <component glyphName=".ttfautohint" x="0" y="0" flags="0x0"/>
      <component glyphName="S" x="0" y="0" flags="0x0"/>
      <component glyphName="caron.case" x="396" y="0" flags="0x0"/>
    </TTGlyph>
    <TTGlyph name="Scedilla" xMin="-72" yMin="-385" xMax="1329" yMax="1479">
      <contour>
        <pt x="1251" y="1274" on="0"/>
        <pt x="1208" y="1047" on="1"/>
        <pt x="1167" y="1047" on="1"/>
        <pt x="1180" y="1102" on="0"/>
        <pt x="1180" y="1159" on="1"/>
        <pt x="1180" y="1283" on="0"/>
        <pt x="1023" y="1423" on="0"/>
        <pt x="885" y="1423" on="1"/>
        <pt x="788" y="1423" on="0"/>
        <pt x="664" y="1327" on="0"/>
        <pt x="664" y="1225" on="1"/>
        <pt x="664" y="1162" on="0"/>
        <pt x="721" y="1036" on="0"/>
        <pt x="806" y="924" on="0"/>
        <pt x="877" y="842" on="1"/>
        <pt x="957" y="749" on="0"/>
        <pt x="1053" y="620" on="0"/>
        <pt x="1120" y="467" on="0"/>
        <pt x="1120" y="385" on="1"/>
        <pt x="1120" y="246" on="0"/>
        <pt x="930" y="59" on="0"/>
        <pt x="654" y="-29" on="0"/>
        <pt x="524" y="-29" on="1"/>
        <pt x="501" y="-29" on="1"/>
        <pt x="462" y="-117" on="1"/>
        <pt x="524" y="-92" on="0"/>
        <pt x="589" y="-92" on="1"/>
        <pt x="662" y="-92" on="0"/>
        <pt x="747" y="-146" on="0"/>
        <pt x="747" y="-201" on="1"/>
        <pt x="747" y="-265" on="0"/>
        <pt x="641" y="-347" on="0"/>
        <pt x="472" y="-385" on="0"/>
        <pt x="376" y="-385" on="1"/>
        <pt x="307" y="-385" on="0"/>
        <pt x="180" y="-362" on="0"/>
        <pt x="139" y="-348" on="1"/>
        <pt x="151" y="-315" on="1"/>
        <pt x="174" y="-321" on="0"/>
        <pt x="277" y="-336" on="0"/>
        <pt x="317" y="-336" on="1"/>
        <pt x="485" y="-336" on="0"/>
        <pt x="485" y="-250" on="1"/>
        <pt x="485" y="-203" on="0"/>
        <pt x="428" y="-203" on="1"/>
        <pt x="396" y="-203" on="0"/>
        <pt x="364" y="-217" on="1"/>
        <pt x="446" y="-27" on="1"/>
        <pt x="371" y="-24" on="0"/>
        <pt x="265" y="-2" on="0"/>
        <pt x="183" y="34" on="0"/>
        <pt x="127" y="66" on="1"/>
        <pt x="73" y="96" on="0"/>
        <pt x="57" y="96" on="1"/>
        <pt x="38" y="96" on="0"/>
        <pt x="13" y="78" on="0"/>
        <pt x="-11" y="33" on="0"/>
        <pt x="-31" y="-14" on="1"/>
        <pt x="-72" y="-14" on="1"/>
        <pt x="-4" y="148" on="0"/>
        <pt x="68" y="477" on="1"/>
        <pt x="109" y="477" on="1"/>
        <pt x="90" y="424" on="0"/>
        <pt x="90" y="336" on="1"/>
        <pt x="90" y="179" on="0"/>
        <pt x="264" y="18" on="0"/>
        <pt x="424" y="18" on="1"/>
        <pt x="557" y="18" on="0"/>
        <pt x="664" y="118" on="0"/>
        <pt x="664" y="207" on="1"/>
        <pt x="664" y="289" on="0"/>
        <pt x="607" y="436" on="0"/>
        <pt x="524" y="558" on="0"/>
        <pt x="455" y="644" on="1"/>
        <pt x="387" y="729" on="0"/>
        <pt x="307" y="846" on="0"/>
        <pt x="252" y="986" on="0"/>
        <pt x="252" y="1063" on="1"/>
        <pt x="252" y="1198" on="0"/>
        <pt x="417" y="1386" on="0"/>
        <pt x="666" y="1479" on="0"/>
        <pt x="791" y="1479" on="1"/>
        <pt x="878" y="1479" on="0"/>
        <pt x="1017" y="1447" on="0"/>
        <pt x="1085" y="1417" on="0"/>
        <pt x="1153" y="1384" on="1"/>
        <pt x="1186" y="1370" on="0"/>
        <pt x="1175" y="1374" on="1"/>
        <pt x="1211" y="1356" on="0"/>
        <pt x="1221" y="1356" on="1"/>
        <pt x="1237" y="1356" on="0"/>
        <pt x="1268" y="1407" on="0"/>
        <pt x="1288" y="1464" on="1"/>
        <pt x="1329" y="1464" on="1"/>
      </contour>
    </TTGlyph>
    <TTGlyph name="Scircumflex" xMin="-72" yMin="-29" xMax="1329" yMax="1958">
      <component glyphName=".ttfautohint" x="0" y="0" flags="0x0"/>
      <component glyphName="S" x="0" y="0" flags="0x0"/>
      <component glyphName="circumflex.case" x="402" y="0" flags="0x0"/>
    </TTGlyph>
    <TTGlyph name="Scommaaccent" xMin="-72" yMin="-494" xMax="1329" yMax="1479">
      <component glyphName=".ttfautohint" x="0" y="0" flags="0x0"/>
      <component glyphName="S" x="0" y="0" flags="0x0"/>
      <component glyphName="commaaccentcomb.case" x="272" y="0" flags="0x0"/>
    </TTGlyph>
    <TTGlyph name="T" xMin="160" yMin="0" xMax="1819" yMax="1815">
      <contour>
        <pt x="1677" y="1815" on="0"/>
        <pt x="1769" y="1765" on="0"/>
        <pt x="1819" y="1684" on="0"/>
        <pt x="1819" y="1638" on="1"/>
        <pt x="1819" y="1488" on="0"/>
        <pt x="1647" y="1415" on="1"/>
        <pt x="1512" y="1360" on="0"/>
        <pt x="1292" y="1360" on="1"/>
        <pt x="1254" y="1360" on="0"/>
        <pt x="1233" y="1361" on="1"/>
        <pt x="936" y="238" on="1"/>
        <pt x="921" y="184" on="0"/>
        <pt x="921" y="149" on="1"/>
        <pt x="921" y="95" on="0"/>
        <pt x="998" y="47" on="0"/>
        <pt x="1090" y="41" on="1"/>
        <pt x="1081" y="0" on="1"/>
        <pt x="937" y="6" on="0"/>
        <pt x="653" y="6" on="1"/>
        <pt x="381" y="6" on="0"/>
        <pt x="252" y="0" on="1"/>
        <pt x="260" y="41" on="1"/>
        <pt x="348" y="44" on="0"/>
        <pt x="445" y="80" on="0"/>
        <pt x="500" y="160" on="0"/>
        <pt x="520" y="238" on="1"/>
        <pt x="827" y="1390" on="1"/>
        <pt x="671" y="1401" on="0"/>
        <pt x="594" y="1401" on="1"/>
        <pt x="433" y="1401" on="0"/>
        <pt x="360" y="1366" on="1"/>
        <pt x="441" y="1355" on="0"/>
        <pt x="543" y="1250" on="0"/>
        <pt x="543" y="1167" on="1"/>
        <pt x="543" y="1109" on="0"/>
        <pt x="490" y="1016" on="0"/>
        <pt x="399" y="963" on="0"/>
        <pt x="344" y="963" on="1"/>
        <pt x="287" y="963" on="0"/>
        <pt x="203" y="1017" on="0"/>
        <pt x="160" y="1108" on="0"/>
        <pt x="160" y="1161" on="1"/>
        <pt x="160" y="1226" on="0"/>
        <pt x="229" y="1349" on="0"/>
        <pt x="309" y="1389" on="1"/>
        <pt x="410" y="1438" on="0"/>
        <pt x="584" y="1438" on="1"/>
        <pt x="728" y="1438" on="0"/>
        <pt x="992" y="1418" on="1"/>
        <pt x="1211" y="1401" on="0"/>
        <pt x="1313" y="1401" on="1"/>
        <pt x="1417" y="1401" on="0"/>
        <pt x="1497" y="1416" on="1"/>
        <pt x="1461" y="1449" on="0"/>
        <pt x="1415" y="1549" on="0"/>
        <pt x="1415" y="1610" on="1"/>
        <pt x="1415" y="1672" on="0"/>
        <pt x="1467" y="1764" on="0"/>
        <pt x="1559" y="1815" on="0"/>
        <pt x="1618" y="1815" on="1"/>
      </contour>
    </TTGlyph>
    <TTGlyph name="Tbar" xMin="160" yMin="0" xMax="1819" yMax="1815">
      <contour>
        <pt x="1677" y="1815" on="0"/>
        <pt x="1769" y="1765" on="0"/>
        <pt x="1819" y="1684" on="0"/>
        <pt x="1819" y="1638" on="1"/>
        <pt x="1819" y="1488" on="0"/>
        <pt x="1647" y="1415" on="1"/>
        <pt x="1512" y="1360" on="0"/>
        <pt x="1292" y="1360" on="1"/>
        <pt x="1254" y="1360" on="0"/>
        <pt x="1233" y="1361" on="1"/>
        <pt x="1071" y="750" on="1"/>
        <pt x="1339" y="750" on="1"/>
        <pt x="1329" y="709" on="1"/>
        <pt x="1060" y="709" on="1"/>
        <pt x="936" y="238" on="1"/>
        <pt x="921" y="184" on="0"/>
        <pt x="921" y="149" on="1"/>
        <pt x="921" y="95" on="0"/>
        <pt x="998" y="47" on="0"/>
        <pt x="1090" y="41" on="1"/>
        <pt x="1081" y="0" on="1"/>
        <pt x="937" y="6" on="0"/>
        <pt x="653" y="6" on="1"/>
        <pt x="381" y="6" on="0"/>
        <pt x="252" y="0" on="1"/>
        <pt x="260" y="41" on="1"/>
        <pt x="348" y="44" on="0"/>
        <pt x="445" y="80" on="0"/>
        <pt x="500" y="160" on="0"/>
        <pt x="520" y="238" on="1"/>
        <pt x="645" y="709" on="1"/>
        <pt x="379" y="709" on="1"/>
        <pt x="389" y="750" on="1"/>
        <pt x="656" y="750" on="1"/>
        <pt x="827" y="1390" on="1"/>
        <pt x="671" y="1401" on="0"/>
        <pt x="594" y="1401" on="1"/>
        <pt x="433" y="1401" on="0"/>
        <pt x="360" y="1366" on="1"/>
        <pt x="441" y="1355" on="0"/>
        <pt x="543" y="1250" on="0"/>
        <pt x="543" y="1167" on="1"/>
        <pt x="543" y="1109" on="0"/>
        <pt x="490" y="1016" on="0"/>
        <pt x="399" y="963" on="0"/>
        <pt x="344" y="963" on="1"/>
        <pt x="287" y="963" on="0"/>
        <pt x="203" y="1017" on="0"/>
        <pt x="160" y="1108" on="0"/>
        <pt x="160" y="1161" on="1"/>
        <pt x="160" y="1226" on="0"/>
        <pt x="229" y="1349" on="0"/>
        <pt x="309" y="1389" on="1"/>
        <pt x="410" y="1438" on="0"/>
        <pt x="584" y="1438" on="1"/>
        <pt x="728" y="1438" on="0"/>
        <pt x="992" y="1418" on="1"/>
        <pt x="1211" y="1401" on="0"/>
        <pt x="1313" y="1401" on="1"/>
        <pt x="1417" y="1401" on="0"/>
        <pt x="1497" y="1416" on="1"/>
        <pt x="1461" y="1449" on="0"/>
        <pt x="1415" y="1549" on="0"/>
        <pt x="1415" y="1610" on="1"/>
        <pt x="1415" y="1672" on="0"/>
        <pt x="1467" y="1764" on="0"/>
        <pt x="1559" y="1815" on="0"/>
        <pt x="1618" y="1815" on="1"/>
      </contour>
    </TTGlyph>
    <TTGlyph name="Tcaron" xMin="160" yMin="0" xMax="1819" yMax="1937">
      <component glyphName=".ttfautohint" x="160" y="0" flags="0x0"/>
      <component glyphName="T" x="0" y="0" flags="0x0"/>
      <component glyphName="caron.case" x="557" y="0" flags="0x0"/>
    </TTGlyph>
    <TTGlyph name="Tcedilla" xMin="160" yMin="-385" xMax="1819" yMax="1815">
      <contour>
        <pt x="1677" y="1815" on="0"/>
        <pt x="1769" y="1765" on="0"/>
        <pt x="1819" y="1684" on="0"/>
        <pt x="1819" y="1638" on="1"/>
        <pt x="1819" y="1488" on="0"/>
        <pt x="1647" y="1415" on="1"/>
        <pt x="1512" y="1360" on="0"/>
        <pt x="1292" y="1360" on="1"/>
        <pt x="1254" y="1360" on="0"/>
        <pt x="1233" y="1361" on="1"/>
        <pt x="936" y="238" on="1"/>
        <pt x="921" y="184" on="0"/>
        <pt x="921" y="149" on="1"/>
        <pt x="921" y="95" on="0"/>
        <pt x="998" y="47" on="0"/>
        <pt x="1090" y="41" on="1"/>
        <pt x="1081" y="0" on="1"/>
        <pt x="946" y="6" on="0"/>
        <pt x="684" y="6" on="1"/>
        <pt x="630" y="-117" on="1"/>
        <pt x="692" y="-92" on="0"/>
        <pt x="757" y="-92" on="1"/>
        <pt x="830" y="-92" on="0"/>
        <pt x="915" y="-146" on="0"/>
        <pt x="915" y="-201" on="1"/>
        <pt x="915" y="-265" on="0"/>
        <pt x="809" y="-347" on="0"/>
        <pt x="640" y="-385" on="0"/>
        <pt x="544" y="-385" on="1"/>
        <pt x="475" y="-385" on="0"/>
        <pt x="348" y="-362" on="0"/>
        <pt x="307" y="-348" on="1"/>
        <pt x="319" y="-315" on="1"/>
        <pt x="342" y="-321" on="0"/>
        <pt x="445" y="-336" on="0"/>
        <pt x="485" y="-336" on="1"/>
        <pt x="653" y="-336" on="0"/>
        <pt x="653" y="-250" on="1"/>
        <pt x="653" y="-203" on="0"/>
        <pt x="596" y="-203" on="1"/>
        <pt x="564" y="-203" on="0"/>
        <pt x="532" y="-217" on="1"/>
        <pt x="629" y="6" on="1"/>
        <pt x="375" y="6" on="0"/>
        <pt x="252" y="0" on="1"/>
        <pt x="260" y="41" on="1"/>
        <pt x="348" y="44" on="0"/>
        <pt x="445" y="80" on="0"/>
        <pt x="500" y="160" on="0"/>
        <pt x="520" y="238" on="1"/>
        <pt x="827" y="1390" on="1"/>
        <pt x="671" y="1401" on="0"/>
        <pt x="594" y="1401" on="1"/>
        <pt x="433" y="1401" on="0"/>
        <pt x="360" y="1366" on="1"/>
        <pt x="441" y="1355" on="0"/>
        <pt x="543" y="1250" on="0"/>
        <pt x="543" y="1167" on="1"/>
        <pt x="543" y="1109" on="0"/>
        <pt x="490" y="1016" on="0"/>
        <pt x="399" y="963" on="0"/>
        <pt x="344" y="963" on="1"/>
        <pt x="287" y="963" on="0"/>
        <pt x="203" y="1017" on="0"/>
        <pt x="160" y="1108" on="0"/>
        <pt x="160" y="1161" on="1"/>
        <pt x="160" y="1226" on="0"/>
        <pt x="229" y="1349" on="0"/>
        <pt x="309" y="1389" on="1"/>
        <pt x="410" y="1438" on="0"/>
        <pt x="584" y="1438" on="1"/>
        <pt x="728" y="1438" on="0"/>
        <pt x="992" y="1418" on="1"/>
        <pt x="1211" y="1401" on="0"/>
        <pt x="1313" y="1401" on="1"/>
        <pt x="1417" y="1401" on="0"/>
        <pt x="1497" y="1416" on="1"/>
        <pt x="1461" y="1449" on="0"/>
        <pt x="1415" y="1549" on="0"/>
        <pt x="1415" y="1610" on="1"/>
        <pt x="1415" y="1672" on="0"/>
        <pt x="1467" y="1764" on="0"/>
        <pt x="1559" y="1815" on="0"/>
        <pt x="1618" y="1815" on="1"/>
      </contour>
    </TTGlyph>
    <TTGlyph name="Thorn" xMin="-96" yMin="0" xMax="1438" yMax="1450">
      <contour>
        <pt x="519" y="147" on="0"/>
        <pt x="519" y="117" on="1"/>
        <pt x="519" y="87" on="0"/>
        <pt x="546" y="56" on="0"/>
        <pt x="604" y="43" on="0"/>
        <pt x="657" y="41" on="1"/>
        <pt x="649" y="0" on="1"/>
        <pt x="517" y="6" on="0"/>
        <pt x="266" y="6" on="1"/>
        <pt x="24" y="6" on="0"/>
        <pt x="-96" y="0" on="1"/>
        <pt x="-86" y="41" on="1"/>
        <pt x="-15" y="44" on="0"/>
        <pt x="57" y="70" on="0"/>
        <pt x="101" y="141" on="0"/>
        <pt x="121" y="217" on="1"/>
        <pt x="391" y="1233" on="1"/>
        <pt x="408" y="1298" on="0"/>
        <pt x="408" y="1331" on="1"/>
        <pt x="408" y="1362" on="0"/>
        <pt x="381" y="1394" on="0"/>
        <pt x="323" y="1407" on="0"/>
        <pt x="270" y="1409" on="1"/>
        <pt x="281" y="1450" on="1"/>
        <pt x="394" y="1444" on="0"/>
        <pt x="643" y="1444" on="1"/>
        <pt x="875" y="1444" on="0"/>
        <pt x="1028" y="1450" on="1"/>
        <pt x="1018" y="1409" on="1"/>
        <pt x="943" y="1406" on="0"/>
        <pt x="870" y="1380" on="0"/>
        <pt x="827" y="1310" on="0"/>
        <pt x="807" y="1233" on="1"/>
        <pt x="781" y="1135" on="1"/>
        <pt x="865" y="1137" on="0"/>
        <pt x="907" y="1137" on="1"/>
        <pt x="1084" y="1137" on="0"/>
        <pt x="1321" y="1061" on="0"/>
        <pt x="1438" y="922" on="0"/>
        <pt x="1438" y="827" on="1"/>
        <pt x="1438" y="669" on="0"/>
        <pt x="1214" y="416" on="0"/>
        <pt x="811" y="271" on="0"/>
        <pt x="551" y="270" on="1"/>
        <pt x="537" y="217" on="1"/>
      </contour>
      <contour>
        <pt x="771" y="1098" on="1"/>
        <pt x="562" y="311" on="1"/>
        <pt x="563" y="311" on="1"/>
        <pt x="705" y="311" on="0"/>
        <pt x="905" y="468" on="0"/>
        <pt x="1006" y="719" on="0"/>
        <pt x="1006" y="860" on="1"/>
        <pt x="1006" y="928" on="0"/>
        <pt x="959" y="1036" on="0"/>
        <pt x="869" y="1098" on="0"/>
        <pt x="807" y="1098" on="1"/>
      </contour>
    </TTGlyph>
    <TTGlyph name="U" xMin="144" yMin="-29" xMax="1630" yMax="1450">
      <contour>
        <pt x="1378" y="1219" on="0"/>
        <pt x="1378" y="1281" on="1"/>
        <pt x="1378" y="1322" on="0"/>
        <pt x="1347" y="1372" on="0"/>
        <pt x="1279" y="1400" on="0"/>
        <pt x="1219" y="1409" on="1"/>
        <pt x="1231" y="1450" on="1"/>
        <pt x="1311" y="1444" on="0"/>
        <pt x="1458" y="1444" on="1"/>
        <pt x="1566" y="1444" on="0"/>
        <pt x="1630" y="1450" on="1"/>
        <pt x="1618" y="1409" on="1"/>
        <pt x="1551" y="1395" on="0"/>
        <pt x="1475" y="1335" on="0"/>
        <pt x="1421" y="1212" on="0"/>
        <pt x="1389" y="1090" on="1"/>
        <pt x="1262" y="596" on="1"/>
        <pt x="1187" y="311" on="0"/>
        <pt x="1061" y="162" on="1"/>
        <pt x="986" y="74" on="0"/>
        <pt x="766" y="-29" on="0"/>
        <pt x="641" y="-29" on="1"/>
        <pt x="462" y="-29" on="0"/>
        <pt x="235" y="76" on="0"/>
        <pt x="186" y="166" on="1"/>
        <pt x="144" y="244" on="0"/>
        <pt x="144" y="349" on="1"/>
        <pt x="144" y="447" on="0"/>
        <pt x="182" y="590" on="1"/>
        <pt x="352" y="1233" on="1"/>
        <pt x="369" y="1298" on="0"/>
        <pt x="369" y="1331" on="1"/>
        <pt x="369" y="1362" on="0"/>
        <pt x="342" y="1394" on="0"/>
        <pt x="284" y="1407" on="0"/>
        <pt x="231" y="1409" on="1"/>
        <pt x="244" y="1450" on="1"/>
        <pt x="364" y="1444" on="0"/>
        <pt x="631" y="1444" on="1"/>
        <pt x="845" y="1444" on="0"/>
        <pt x="989" y="1450" on="1"/>
        <pt x="977" y="1409" on="1"/>
        <pt x="902" y="1406" on="0"/>
        <pt x="829" y="1380" on="0"/>
        <pt x="786" y="1310" on="0"/>
        <pt x="766" y="1233" on="1"/>
        <pt x="586" y="555" on="1"/>
        <pt x="535" y="364" on="0"/>
        <pt x="535" y="246" on="1"/>
        <pt x="535" y="43" on="0"/>
        <pt x="680" y="43" on="1"/>
        <pt x="895" y="43" on="0"/>
        <pt x="1142" y="322" on="0"/>
        <pt x="1208" y="573" on="1"/>
        <pt x="1333" y="1049" on="1"/>
      </contour>
    </TTGlyph>
    <TTGlyph name="Uacute" xMin="144" yMin="-29" xMax="1630" yMax="1986">
      <component glyphName=".ttfautohint" x="144" y="0" flags="0x0"/>
      <component glyphName="U" x="0" y="0" flags="0x0"/>
      <component glyphName="acute.case" x="848" y="0" flags="0x0"/>
    </TTGlyph>
    <TTGlyph name="Ubreve" xMin="144" yMin="-29" xMax="1630" yMax="1921">
      <component glyphName=".ttfautohint" x="144" y="0" flags="0x0"/>
      <component glyphName="U" x="0" y="0" flags="0x0"/>
      <component glyphName="breve.case" x="555" y="0" flags="0x0"/>
    </TTGlyph>
    <TTGlyph name="Ucircumflex" xMin="144" yMin="-29" xMax="1630" yMax="1958">
      <component glyphName=".ttfautohint" x="144" y="0" flags="0x0"/>
      <component glyphName="U" x="0" y="0" flags="0x0"/>
      <component glyphName="circumflex.case" x="582" y="0" flags="0x0"/>
    </TTGlyph>
    <TTGlyph name="Udieresis" xMin="144" yMin="-29" xMax="1630" yMax="1917">
      <component glyphName=".ttfautohint" x="144" y="0" flags="0x0"/>
      <component glyphName="U" x="0" y="0" flags="0x0"/>
      <component glyphName="dieresis.case" x="627" y="0" flags="0x0"/>
    </TTGlyph>
    <TTGlyph name="Ugrave" xMin="144" yMin="-29" xMax="1630" yMax="1938">
      <component glyphName=".ttfautohint" x="144" y="0" flags="0x0"/>
      <component glyphName="U" x="0" y="0" flags="0x0"/>
      <component glyphName="grave.case" x="629" y="0" flags="0x0"/>
    </TTGlyph>
    <TTGlyph name="Uhungarumlaut" xMin="144" yMin="-29" xMax="1630" yMax="1955">
      <component glyphName=".ttfautohint" x="144" y="0" flags="0x0"/>
      <component glyphName="U" x="0" y="0" flags="0x0"/>
      <component glyphName="hungarumlaut.case" x="584" y="0" flags="0x0"/>
    </TTGlyph>
    <TTGlyph name="Umacron" xMin="144" yMin="-29" xMax="1630" yMax="1729">
      <component glyphName=".ttfautohint" x="144" y="0" flags="0x0"/>
      <component glyphName="U" x="0" y="0" flags="0x0"/>
      <component glyphName="macron.case" x="602" y="0" flags="0x0"/>
    </TTGlyph>
    <TTGlyph name="Uogonek" xMin="144" yMin="-385" xMax="1630" yMax="1450">
      <contour>
        <pt x="1565" y="1444" on="0"/>
        <pt x="1630" y="1450" on="1"/>
        <pt x="1618" y="1409" on="1"/>
        <pt x="1551" y="1395" on="0"/>
        <pt x="1475" y="1335" on="0"/>
        <pt x="1421" y="1212" on="0"/>
        <pt x="1389" y="1090" on="1"/>
        <pt x="1262" y="596" on="1"/>
        <pt x="1187" y="311" on="0"/>
        <pt x="1061" y="162" on="1"/>
        <pt x="964" y="48" on="0"/>
        <pt x="818" y="-1" on="1"/>
        <pt x="758" y="-28" on="0"/>
        <pt x="676" y="-105" on="0"/>
        <pt x="635" y="-189" on="0"/>
        <pt x="635" y="-227" on="1"/>
        <pt x="635" y="-281" on="0"/>
        <pt x="694" y="-281" on="1"/>
        <pt x="756" y="-281" on="0"/>
        <pt x="840" y="-242" on="1"/>
        <pt x="862" y="-276" on="1"/>
        <pt x="707" y="-385" on="0"/>
        <pt x="541" y="-385" on="1"/>
        <pt x="455" y="-385" on="0"/>
        <pt x="354" y="-319" on="0"/>
        <pt x="354" y="-260" on="1"/>
        <pt x="354" y="-188" on="0"/>
        <pt x="522" y="-71" on="0"/>
        <pt x="661" y="-29" on="1"/>
        <pt x="641" y="-29" on="1"/>
        <pt x="462" y="-29" on="0"/>
        <pt x="235" y="76" on="0"/>
        <pt x="186" y="166" on="1"/>
        <pt x="144" y="244" on="0"/>
        <pt x="144" y="349" on="1"/>
        <pt x="144" y="447" on="0"/>
        <pt x="182" y="590" on="1"/>
        <pt x="352" y="1233" on="1"/>
        <pt x="369" y="1298" on="0"/>
        <pt x="369" y="1331" on="1"/>
        <pt x="369" y="1362" on="0"/>
        <pt x="342" y="1394" on="0"/>
        <pt x="284" y="1407" on="0"/>
        <pt x="231" y="1409" on="1"/>
        <pt x="244" y="1450" on="1"/>
        <pt x="364" y="1444" on="0"/>
        <pt x="631" y="1444" on="1"/>
        <pt x="845" y="1444" on="0"/>
        <pt x="989" y="1450" on="1"/>
        <pt x="977" y="1409" on="1"/>
        <pt x="902" y="1406" on="0"/>
        <pt x="829" y="1380" on="0"/>
        <pt x="786" y="1310" on="0"/>
        <pt x="766" y="1233" on="1"/>
        <pt x="586" y="555" on="1"/>
        <pt x="535" y="364" on="0"/>
        <pt x="535" y="246" on="1"/>
        <pt x="535" y="43" on="0"/>
        <pt x="680" y="43" on="1"/>
        <pt x="895" y="43" on="0"/>
        <pt x="1142" y="322" on="0"/>
        <pt x="1208" y="573" on="1"/>
        <pt x="1333" y="1049" on="1"/>
        <pt x="1378" y="1219" on="0"/>
        <pt x="1378" y="1281" on="1"/>
        <pt x="1378" y="1322" on="0"/>
        <pt x="1347" y="1372" on="0"/>
        <pt x="1279" y="1400" on="0"/>
        <pt x="1219" y="1409" on="1"/>
        <pt x="1231" y="1450" on="1"/>
        <pt x="1311" y="1444" on="0"/>
        <pt x="1458" y="1444" on="1"/>
      </contour>
    </TTGlyph>
    <TTGlyph name="Uring" xMin="144" yMin="-29" xMax="1630" yMax="1935">
      <component glyphName=".ttfautohint" x="144" y="0" flags="0x0"/>
      <component glyphName="U" x="0" y="0" flags="0x0"/>
      <component glyphName="ring.case" x="746" y="0" flags="0x0"/>
    </TTGlyph>
    <TTGlyph name="Utilde" xMin="144" yMin="-29" xMax="1630" yMax="1942">
      <component glyphName=".ttfautohint" x="144" y="0" flags="0x0"/>
      <component glyphName="U" x="0" y="0" flags="0x0"/>
      <component glyphName="tilde.case" x="529" y="0" flags="0x0"/>
    </TTGlyph>
    <TTGlyph name="V" xMin="184" yMin="-10" xMax="1651" yMax="1450">
      <contour>
        <pt x="1587" y="1444" on="0"/>
        <pt x="1651" y="1450" on="1"/>
        <pt x="1640" y="1409" on="1"/>
        <pt x="1587" y="1393" on="0"/>
        <pt x="1509" y="1345" on="0"/>
        <pt x="1425" y="1250" on="0"/>
        <pt x="1370" y="1165" on="1"/>
        <pt x="606" y="-10" on="1"/>
        <pt x="569" y="-7" on="0"/>
        <pt x="530" y="-7" on="1"/>
        <pt x="492" y="-7" on="0"/>
        <pt x="453" y="-10" on="1"/>
        <pt x="291" y="1278" on="1"/>
        <pt x="283" y="1344" on="0"/>
        <pt x="220" y="1407" on="0"/>
        <pt x="184" y="1409" on="1"/>
        <pt x="195" y="1450" on="1"/>
        <pt x="311" y="1444" on="0"/>
        <pt x="539" y="1444" on="1"/>
        <pt x="775" y="1444" on="0"/>
        <pt x="895" y="1450" on="1"/>
        <pt x="885" y="1409" on="1"/>
        <pt x="823" y="1406" on="0"/>
        <pt x="753" y="1385" on="0"/>
        <pt x="719" y="1331" on="0"/>
        <pt x="719" y="1280" on="1"/>
        <pt x="719" y="1253" on="0"/>
        <pt x="721" y="1237" on="1"/>
        <pt x="814" y="381" on="1"/>
        <pt x="1335" y="1182" on="1"/>
        <pt x="1381" y="1252" on="0"/>
        <pt x="1381" y="1301" on="1"/>
        <pt x="1381" y="1396" on="0"/>
        <pt x="1196" y="1409" on="1"/>
        <pt x="1206" y="1450" on="1"/>
        <pt x="1264" y="1444" on="0"/>
        <pt x="1497" y="1444" on="1"/>
      </contour>
    </TTGlyph>
    <TTGlyph name="W" xMin="176" yMin="-10" xMax="2365" yMax="1450">
      <contour>
        <pt x="2301" y="1444" on="0"/>
        <pt x="2365" y="1450" on="1"/>
        <pt x="2355" y="1409" on="1"/>
        <pt x="2298" y="1392" on="0"/>
        <pt x="2219" y="1348" on="0"/>
        <pt x="2134" y="1252" on="0"/>
        <pt x="2085" y="1165" on="1"/>
        <pt x="1415" y="-10" on="1"/>
        <pt x="1262" y="-10" on="1"/>
        <pt x="1149" y="892" on="1"/>
        <pt x="598" y="-10" on="1"/>
        <pt x="444" y="-10" on="1"/>
        <pt x="283" y="1278" on="1"/>
        <pt x="274" y="1345" on="0"/>
        <pt x="212" y="1407" on="0"/>
        <pt x="176" y="1409" on="1"/>
        <pt x="186" y="1450" on="1"/>
        <pt x="303" y="1444" on="0"/>
        <pt x="530" y="1444" on="1"/>
        <pt x="724" y="1444" on="0"/>
        <pt x="825" y="1450" on="1"/>
        <pt x="815" y="1409" on="1"/>
        <pt x="776" y="1406" on="0"/>
        <pt x="733" y="1384" on="0"/>
        <pt x="712" y="1330" on="0"/>
        <pt x="712" y="1279" on="1"/>
        <pt x="712" y="1252" on="0"/>
        <pt x="713" y="1237" on="1"/>
        <pt x="803" y="406" on="1"/>
        <pt x="1141" y="953" on="1"/>
        <pt x="1100" y="1278" on="1"/>
        <pt x="1093" y="1344" on="0"/>
        <pt x="1042" y="1407" on="0"/>
        <pt x="1014" y="1409" on="1"/>
        <pt x="1024" y="1450" on="1"/>
        <pt x="1135" y="1444" on="0"/>
        <pt x="1348" y="1444" on="1"/>
        <pt x="1584" y="1444" on="0"/>
        <pt x="1704" y="1450" on="1"/>
        <pt x="1694" y="1409" on="1"/>
        <pt x="1632" y="1406" on="0"/>
        <pt x="1562" y="1385" on="0"/>
        <pt x="1528" y="1331" on="0"/>
        <pt x="1528" y="1280" on="1"/>
        <pt x="1528" y="1253" on="0"/>
        <pt x="1530" y="1237" on="1"/>
        <pt x="1618" y="427" on="1"/>
        <pt x="2050" y="1182" on="1"/>
        <pt x="2092" y="1256" on="0"/>
        <pt x="2092" y="1304" on="1"/>
        <pt x="2092" y="1355" on="0"/>
        <pt x="2000" y="1403" on="0"/>
        <pt x="1911" y="1409" on="1"/>
        <pt x="1921" y="1450" on="1"/>
        <pt x="1980" y="1444" on="0"/>
        <pt x="2212" y="1444" on="1"/>
      </contour>
    </TTGlyph>
    <TTGlyph name="Wacute" xMin="176" yMin="-10" xMax="2365" yMax="1980">
      <component glyphName=".ttfautohint" x="176" y="0" flags="0x0"/>
      <component glyphName="W" x="0" y="0" flags="0x0"/>
      <component glyphName="acute.case" x="1182" y="-6" flags="0x0"/>
    </TTGlyph>
    <TTGlyph name="Wcircumflex" xMin="176" yMin="-10" xMax="2365" yMax="1952">
      <component glyphName=".ttfautohint" x="176" y="0" flags="0x0"/>
      <component glyphName="W" x="0" y="0" flags="0x0"/>
      <component glyphName="circumflex.case" x="916" y="-6" flags="0x0"/>
    </TTGlyph>
    <TTGlyph name="Wdieresis" xMin="176" yMin="-10" xMax="2365" yMax="1911">
      <component glyphName=".ttfautohint" x="176" y="0" flags="0x0"/>
      <component glyphName="W" x="0" y="0" flags="0x0"/>
      <component glyphName="dieresis.case" x="961" y="-6" flags="0x0"/>
    </TTGlyph>
    <TTGlyph name="Wgrave" xMin="176" yMin="-10" xMax="2365" yMax="1932">
      <component glyphName=".ttfautohint" x="176" y="0" flags="0x0"/>
      <component glyphName="W" x="0" y="0" flags="0x0"/>
      <component glyphName="grave.case" x="963" y="-6" flags="0x0"/>
    </TTGlyph>
    <TTGlyph name="X" xMin="-92" yMin="-29" xMax="1724" yMax="1479">
      <contour>
        <pt x="1569" y="1479" on="0"/>
        <pt x="1669" y="1416" on="0"/>
        <pt x="1724" y="1308" on="0"/>
        <pt x="1724" y="1241" on="1"/>
        <pt x="1724" y="1170" on="0"/>
        <pt x="1665" y="1063" on="0"/>
        <pt x="1563" y="1004" on="0"/>
        <pt x="1501" y="1004" on="1"/>
        <pt x="1424" y="1004" on="0"/>
        <pt x="1333" y="1095" on="0"/>
        <pt x="1333" y="1176" on="1"/>
        <pt x="1333" y="1236" on="0"/>
        <pt x="1387" y="1341" on="0"/>
        <pt x="1484" y="1413" on="0"/>
        <pt x="1546" y="1427" on="1"/>
        <pt x="1531" y="1444" on="0"/>
        <pt x="1493" y="1444" on="1"/>
        <pt x="1430" y="1444" on="0"/>
        <pt x="1358" y="1393" on="1"/>
        <pt x="1287" y="1333" on="0"/>
        <pt x="1110" y="1066" on="0"/>
        <pt x="1025" y="877" on="1"/>
        <pt x="1106" y="215" on="1"/>
        <pt x="1118" y="137" on="0"/>
        <pt x="1192" y="137" on="1"/>
        <pt x="1276" y="137" on="0"/>
        <pt x="1313" y="244" on="1"/>
        <pt x="1348" y="348" on="1"/>
        <pt x="1389" y="348" on="1"/>
        <pt x="1335" y="190" on="1"/>
        <pt x="1292" y="73" on="0"/>
        <pt x="1142" y="-29" on="0"/>
        <pt x="1028" y="-29" on="1"/>
        <pt x="908" y="-29" on="0"/>
        <pt x="764" y="44" on="0"/>
        <pt x="692" y="182" on="0"/>
        <pt x="678" y="291" on="1"/>
        <pt x="655" y="474" on="1"/>
        <pt x="583" y="340" on="0"/>
        <pt x="405" y="107" on="0"/>
        <pt x="322" y="39" on="1"/>
        <pt x="228" y="-29" on="0"/>
        <pt x="129" y="-29" on="1"/>
        <pt x="63" y="-29" on="0"/>
        <pt x="-37" y="34" on="0"/>
        <pt x="-92" y="142" on="0"/>
        <pt x="-92" y="209" on="1"/>
        <pt x="-92" y="280" on="0"/>
        <pt x="-33" y="387" on="0"/>
        <pt x="69" y="446" on="0"/>
        <pt x="131" y="446" on="1"/>
        <pt x="208" y="446" on="0"/>
        <pt x="299" y="355" on="0"/>
        <pt x="299" y="274" on="1"/>
        <pt x="299" y="214" on="0"/>
        <pt x="245" y="109" on="0"/>
        <pt x="148" y="37" on="0"/>
        <pt x="86" y="23" on="1"/>
        <pt x="101" y="6" on="0"/>
        <pt x="139" y="6" on="1"/>
        <pt x="197" y="6" on="0"/>
        <pt x="279" y="57" on="1"/>
        <pt x="355" y="112" on="0"/>
        <pt x="554" y="363" on="0"/>
        <pt x="647" y="538" on="1"/>
        <pt x="559" y="1245" on="1"/>
        <pt x="553" y="1289" on="0"/>
        <pt x="514" y="1327" on="0"/>
        <pt x="477" y="1327" on="1"/>
        <pt x="394" y="1327" on="0"/>
        <pt x="352" y="1206" on="1"/>
        <pt x="317" y="1102" on="1"/>
        <pt x="276" y="1102" on="1"/>
        <pt x="330" y="1260" on="1"/>
        <pt x="373" y="1376" on="0"/>
        <pt x="540" y="1479" on="0"/>
        <pt x="664" y="1479" on="1"/>
        <pt x="771" y="1479" on="0"/>
        <pt x="905" y="1411" on="0"/>
        <pt x="978" y="1271" on="0"/>
        <pt x="991" y="1159" on="1"/>
        <pt x="1017" y="946" on="1"/>
        <pt x="1084" y="1091" on="0"/>
        <pt x="1246" y="1339" on="0"/>
        <pt x="1317" y="1405" on="1"/>
        <pt x="1409" y="1479" on="0"/>
        <pt x="1503" y="1479" on="1"/>
      </contour>
    </TTGlyph>
    <TTGlyph name="Y" xMin="150" yMin="0" xMax="1749" yMax="1479">
      <contour>
        <pt x="1580" y="1479" on="0"/>
        <pt x="1689" y="1421" on="0"/>
        <pt x="1749" y="1321" on="0"/>
        <pt x="1749" y="1260" on="1"/>
        <pt x="1749" y="1196" on="0"/>
        <pt x="1688" y="1097" on="0"/>
        <pt x="1584" y="1044" on="0"/>
        <pt x="1520" y="1044" on="1"/>
        <pt x="1436" y="1044" on="0"/>
        <pt x="1337" y="1125" on="0"/>
        <pt x="1337" y="1196" on="1"/>
        <pt x="1337" y="1256" on="0"/>
        <pt x="1393" y="1354" on="0"/>
        <pt x="1490" y="1417" on="0"/>
        <pt x="1550" y="1427" on="1"/>
        <pt x="1535" y="1444" on="0"/>
        <pt x="1499" y="1444" on="1"/>
        <pt x="1466" y="1444" on="0"/>
        <pt x="1405" y="1422" on="0"/>
        <pt x="1368" y="1395" on="1"/>
        <pt x="1315" y="1356" on="0"/>
        <pt x="1168" y="1142" on="0"/>
        <pt x="1018" y="811" on="0"/>
        <pt x="963" y="609" on="1"/>
        <pt x="864" y="217" on="1"/>
        <pt x="853" y="171" on="0"/>
        <pt x="853" y="144" on="1"/>
        <pt x="853" y="103" on="0"/>
        <pt x="891" y="60" on="0"/>
        <pt x="964" y="44" on="0"/>
        <pt x="1026" y="41" on="1"/>
        <pt x="1016" y="0" on="1"/>
        <pt x="887" y="6" on="0"/>
        <pt x="598" y="6" on="1"/>
        <pt x="347" y="6" on="0"/>
        <pt x="227" y="0" on="1"/>
        <pt x="238" y="41" on="1"/>
        <pt x="312" y="44" on="0"/>
        <pt x="386" y="70" on="0"/>
        <pt x="430" y="141" on="0"/>
        <pt x="449" y="217" on="1"/>
        <pt x="554" y="636" on="1"/>
        <pt x="525" y="905" on="0"/>
        <pt x="405" y="1303" on="0"/>
        <pt x="322" y="1303" on="1"/>
        <pt x="286" y="1303" on="0"/>
        <pt x="244" y="1249" on="0"/>
        <pt x="229" y="1206" on="1"/>
        <pt x="195" y="1102" on="1"/>
        <pt x="150" y="1102" on="1"/>
        <pt x="193" y="1233" on="1"/>
        <pt x="236" y="1365" on="0"/>
        <pt x="419" y="1479" on="0"/>
        <pt x="539" y="1479" on="1"/>
        <pt x="691" y="1479" on="0"/>
        <pt x="855" y="1319" on="0"/>
        <pt x="932" y="1024" on="0"/>
        <pt x="963" y="756" on="1"/>
        <pt x="1091" y="1151" on="0"/>
        <pt x="1266" y="1356" on="1"/>
        <pt x="1371" y="1479" on="0"/>
        <pt x="1509" y="1479" on="1"/>
      </contour>
    </TTGlyph>
    <TTGlyph name="Yacute" xMin="150" yMin="0" xMax="1749" yMax="1986">
      <component glyphName=".ttfautohint" x="150" y="0" flags="0x0"/>
      <component glyphName="Y" x="0" y="0" flags="0x0"/>
      <component glyphName="acute.case" x="827" y="0" flags="0x0"/>
    </TTGlyph>
    <TTGlyph name="Ycircumflex" xMin="150" yMin="0" xMax="1749" yMax="1958">
      <component glyphName=".ttfautohint" x="150" y="0" flags="0x0"/>
      <component glyphName="Y" x="0" y="0" flags="0x0"/>
      <component glyphName="circumflex.case" x="561" y="0" flags="0x0"/>
    </TTGlyph>
    <TTGlyph name="Ydieresis" xMin="150" yMin="0" xMax="1749" yMax="1917">
      <component glyphName=".ttfautohint" x="150" y="0" flags="0x0"/>
      <component glyphName="Y" x="0" y="0" flags="0x0"/>
      <component glyphName="dieresis.case" x="606" y="0" flags="0x0"/>
    </TTGlyph>
    <TTGlyph name="Ygrave" xMin="150" yMin="0" xMax="1749" yMax="1938">
      <component glyphName=".ttfautohint" x="150" y="0" flags="0x0"/>
      <component glyphName="Y" x="0" y="0" flags="0x0"/>
      <component glyphName="grave.case" x="608" y="0" flags="0x0"/>
    </TTGlyph>
    <TTGlyph name="Z" xMin="-61" yMin="-29" xMax="1482" yMax="1479">
      <contour>
        <pt x="1482" y="1450" on="0"/>
        <pt x="1482" y="1433" on="1"/>
        <pt x="1482" y="1404" on="0"/>
        <pt x="1406" y="1336" on="0"/>
        <pt x="1329" y="1307" on="1"/>
        <pt x="762" y="750" on="1"/>
        <pt x="1073" y="750" on="1"/>
        <pt x="1057" y="709" on="1"/>
        <pt x="721" y="709" on="1"/>
        <pt x="168" y="166" on="1"/>
        <pt x="385" y="373" on="0"/>
        <pt x="600" y="373" on="1"/>
        <pt x="682" y="373" on="0"/>
        <pt x="806" y="348" on="0"/>
        <pt x="882" y="326" on="1"/>
        <pt x="932" y="312" on="0"/>
        <pt x="988" y="299" on="0"/>
        <pt x="1016" y="299" on="1"/>
        <pt x="1075" y="299" on="0"/>
        <pt x="1075" y="346" on="1"/>
        <pt x="1075" y="413" on="0"/>
        <pt x="926" y="442" on="1"/>
        <pt x="934" y="481" on="1"/>
        <pt x="1061" y="462" on="0"/>
        <pt x="1233" y="346" on="0"/>
        <pt x="1233" y="244" on="1"/>
        <pt x="1233" y="165" on="0"/>
        <pt x="1152" y="41" on="0"/>
        <pt x="1003" y="-29" on="0"/>
        <pt x="903" y="-29" on="1"/>
        <pt x="816" y="-29" on="0"/>
        <pt x="683" y="11" on="0"/>
        <pt x="593" y="51" on="1"/>
        <pt x="503" y="90" on="0"/>
        <pt x="374" y="129" on="0"/>
        <pt x="291" y="129" on="1"/>
        <pt x="221" y="129" on="0"/>
        <pt x="131" y="98" on="1"/>
        <pt x="95" y="45" on="0"/>
        <pt x="11" y="-21" on="0"/>
        <pt x="-20" y="-21" on="1"/>
        <pt x="-36" y="-21" on="0"/>
        <pt x="-49" y="-10" on="1"/>
        <pt x="-61" y="1" on="0"/>
        <pt x="-61" y="17" on="1"/>
        <pt x="-61" y="45" on="0"/>
        <pt x="15" y="114" on="0"/>
        <pt x="92" y="143" on="1"/>
        <pt x="668" y="709" on="1"/>
        <pt x="336" y="709" on="1"/>
        <pt x="350" y="750" on="1"/>
        <pt x="709" y="750" on="1"/>
        <pt x="1248" y="1279" on="1"/>
        <pt x="1035" y="1077" on="0"/>
        <pt x="823" y="1077" on="1"/>
        <pt x="741" y="1077" on="0"/>
        <pt x="617" y="1102" on="0"/>
        <pt x="541" y="1124" on="1"/>
        <pt x="453" y="1151" on="0"/>
        <pt x="408" y="1151" on="1"/>
        <pt x="348" y="1151" on="0"/>
        <pt x="348" y="1104" on="1"/>
        <pt x="348" y="1037" on="0"/>
        <pt x="498" y="1008" on="1"/>
        <pt x="487" y="969" on="1"/>
        <pt x="360" y="988" on="0"/>
        <pt x="188" y="1104" on="0"/>
        <pt x="188" y="1206" on="1"/>
        <pt x="188" y="1285" on="0"/>
        <pt x="269" y="1409" on="0"/>
        <pt x="418" y="1479" on="0"/>
        <pt x="518" y="1479" on="1"/>
        <pt x="605" y="1479" on="0"/>
        <pt x="738" y="1439" on="0"/>
        <pt x="828" y="1399" on="1"/>
        <pt x="918" y="1360" on="0"/>
        <pt x="1047" y="1321" on="0"/>
        <pt x="1130" y="1321" on="1"/>
        <pt x="1200" y="1321" on="0"/>
        <pt x="1290" y="1352" on="1"/>
        <pt x="1327" y="1406" on="0"/>
        <pt x="1409" y="1471" on="0"/>
        <pt x="1441" y="1471" on="1"/>
        <pt x="1457" y="1471" on="0"/>
        <pt x="1470" y="1460" on="1"/>
      </contour>
    </TTGlyph>
    <TTGlyph name="Zacute" xMin="-61" yMin="-29" xMax="1482" yMax="1986">
      <component glyphName=".ttfautohint" x="0" y="0" flags="0x0"/>
      <component glyphName="Z" x="0" y="0" flags="0x0"/>
      <component glyphName="acute.case" x="711" y="0" flags="0x0"/>
    </TTGlyph>
    <TTGlyph name="Zacute.loclPLK" xMin="-61" yMin="-29" xMax="1482" yMax="2035">
      <component glyphName=".ttfautohint" x="0" y="0" flags="0x0"/>
      <component glyphName="Z" x="0" y="0" flags="0x0"/>
      <component glyphName="acute.loclPLK.case" x="768" y="0" flags="0x0"/>
    </TTGlyph>
    <TTGlyph name="Zcaron" xMin="-61" yMin="-29" xMax="1518" yMax="1937">
      <component glyphName=".ttfautohint" x="0" y="0" flags="0x0"/>
      <component glyphName="Z" x="0" y="0" flags="0x0"/>
      <component glyphName="caron.case" x="439" y="0" flags="0x0"/>
    </TTGlyph>
    <TTGlyph name="Zdotaccent" xMin="-61" yMin="-29" xMax="1482" yMax="1909">
      <component glyphName=".ttfautohint" x="0" y="0" flags="0x0"/>
      <component glyphName="Z" x="0" y="0" flags="0x0"/>
      <component glyphName="dotaccent.case" x="711" y="0" flags="0x0"/>
    </TTGlyph>
    <TTGlyph name="a" xMin="-197" yMin="0" xMax="1223" yMax="1260">
      <contour>
        <pt x="1131" y="104" on="0"/>
        <pt x="1187" y="43" on="0"/>
        <pt x="1223" y="41" on="1"/>
        <pt x="1212" y="0" on="1"/>
        <pt x="1094" y="6" on="0"/>
        <pt x="866" y="6" on="1"/>
        <pt x="629" y="6" on="0"/>
        <pt x="518" y="0" on="1"/>
        <pt x="528" y="41" on="1"/>
        <pt x="591" y="44" on="0"/>
        <pt x="667" y="67" on="0"/>
        <pt x="707" y="122" on="0"/>
        <pt x="707" y="173" on="1"/>
        <pt x="707" y="199" on="0"/>
        <pt x="705" y="213" on="1"/>
        <pt x="674" y="467" on="1"/>
        <pt x="258" y="467" on="1"/>
        <pt x="98" y="268" on="1"/>
        <pt x="44" y="201" on="0"/>
        <pt x="44" y="155" on="1"/>
        <pt x="44" y="66" on="0"/>
        <pt x="236" y="41" on="1"/>
        <pt x="227" y="0" on="1"/>
        <pt x="45" y="6" on="0"/>
        <pt x="-63" y="6" on="1"/>
        <pt x="-133" y="6" on="0"/>
        <pt x="-197" y="0" on="1"/>
        <pt x="-188" y="41" on="1"/>
        <pt x="-149" y="59" on="0"/>
        <pt x="-85" y="110" on="0"/>
        <pt x="-8" y="199" on="0"/>
        <pt x="61" y="285" on="1"/>
        <pt x="842" y="1260" on="1"/>
        <pt x="894" y="1256" on="0"/>
        <pt x="919" y="1256" on="1"/>
        <pt x="945" y="1256" on="0"/>
        <pt x="995" y="1260" on="1"/>
        <pt x="1122" y="172" on="1"/>
      </contour>
      <contour>
        <pt x="619" y="917" on="1"/>
        <pt x="291" y="508" on="1"/>
        <pt x="669" y="508" on="1"/>
      </contour>
    </TTGlyph>
    <TTGlyph name="aacute" xMin="-197" yMin="0" xMax="1381" yMax="1781">
      <component glyphName=".ttfautohint" x="0" y="0" flags="0x0"/>
      <component glyphName="a" x="0" y="0" flags="0x0"/>
      <component glyphName="acute.smcp" x="723" y="0" flags="0x0"/>
    </TTGlyph>
    <TTGlyph name="abreve" xMin="-197" yMin="0" xMax="1410" yMax="1716">
      <component glyphName=".ttfautohint" x="0" y="0" flags="0x0"/>
      <component glyphName="a" x="0" y="0" flags="0x0"/>
      <component glyphName="breve.smcp" x="406" y="0" flags="0x0"/>
    </TTGlyph>
    <TTGlyph name="acircumflex" xMin="-197" yMin="0" xMax="1358" yMax="1753">
      <component glyphName=".ttfautohint" x="0" y="0" flags="0x0"/>
      <component glyphName="a" x="0" y="0" flags="0x0"/>
      <component glyphName="circumflex.smcp" x="451" y="0" flags="0x0"/>
    </TTGlyph>
    <TTGlyph name="acute" xMin="260" yMin="1227" xMax="782" yMax="1754">
      <contour>
        <pt x="312" y="1329" on="0"/>
        <pt x="393" y="1489" on="1"/>
        <pt x="432" y="1570" on="0"/>
        <pt x="486" y="1660" on="0"/>
        <pt x="522" y="1696" on="1"/>
        <pt x="548" y="1722" on="0"/>
        <pt x="618" y="1754" on="0"/>
        <pt x="653" y="1754" on="1"/>
        <pt x="708" y="1754" on="0"/>
        <pt x="748" y="1714" on="1"/>
        <pt x="782" y="1680" on="0"/>
        <pt x="782" y="1637" on="1"/>
        <pt x="782" y="1576" on="0"/>
        <pt x="715" y="1507" on="1"/>
        <pt x="683" y="1475" on="0"/>
        <pt x="599" y="1420" on="0"/>
        <pt x="522" y="1376" on="1"/>
        <pt x="367" y="1287" on="0"/>
        <pt x="281" y="1227" on="1"/>
        <pt x="260" y="1247" on="1"/>
      </contour>
    </TTGlyph>
    <TTGlyph name="acute.case" xMin="41" yMin="1581" xMax="658" yMax="1986">
      <contour>
        <pt x="129" y="1683" on="0"/>
        <pt x="237" y="1800" on="1"/>
        <pt x="303" y="1870" on="0"/>
        <pt x="377" y="1938" on="0"/>
        <pt x="422" y="1962" on="1"/>
        <pt x="465" y="1986" on="0"/>
        <pt x="516" y="1986" on="1"/>
        <pt x="604" y="1986" on="0"/>
        <pt x="643" y="1915" on="1"/>
        <pt x="658" y="1886" on="0"/>
        <pt x="658" y="1860" on="1"/>
        <pt x="658" y="1785" on="0"/>
        <pt x="551" y="1724" on="1"/>
        <pt x="512" y="1703" on="0"/>
        <pt x="414" y="1674" on="0"/>
        <pt x="330" y="1655" on="1"/>
        <pt x="160" y="1615" on="0"/>
        <pt x="55" y="1581" on="1"/>
        <pt x="41" y="1606" on="1"/>
      </contour>
    </TTGlyph>
    <TTGlyph name="acute.loclPLK" xMin="168" yMin="1219" xMax="519" yMax="1719">
      <contour>
        <pt x="186" y="1305" on="0"/>
        <pt x="208" y="1450" on="1"/>
        <pt x="219" y="1526" on="0"/>
        <pt x="236" y="1602" on="0"/>
        <pt x="254" y="1632" on="1"/>
        <pt x="274" y="1669" on="0"/>
        <pt x="347" y="1719" on="0"/>
        <pt x="389" y="1719" on="1"/>
        <pt x="427" y="1719" on="0"/>
        <pt x="461" y="1698" on="1"/>
        <pt x="519" y="1663" on="0"/>
        <pt x="519" y="1599" on="1"/>
        <pt x="519" y="1553" on="0"/>
        <pt x="487" y="1497" on="1"/>
        <pt x="471" y="1472" on="0"/>
        <pt x="422" y="1425" on="0"/>
        <pt x="374" y="1385" on="1"/>
        <pt x="260" y="1287" on="0"/>
        <pt x="195" y="1219" on="1"/>
        <pt x="168" y="1231" on="1"/>
      </contour>
    </TTGlyph>
    <TTGlyph name="acute.loclPLK.case" xMin="53" yMin="1554" xMax="436" yMax="2035">
      <contour>
        <pt x="81" y="1656" on="0"/>
        <pt x="112" y="1781" on="1"/>
        <pt x="129" y="1854" on="0"/>
        <pt x="155" y="1931" on="0"/>
        <pt x="176" y="1960" on="1"/>
        <pt x="196" y="1993" on="0"/>
        <pt x="266" y="2035" on="0"/>
        <pt x="305" y="2035" on="1"/>
        <pt x="349" y="2035" on="0"/>
        <pt x="387" y="2007" on="1"/>
        <pt x="436" y="1972" on="0"/>
        <pt x="436" y="1915" on="1"/>
        <pt x="436" y="1860" on="0"/>
        <pt x="395" y="1804" on="1"/>
        <pt x="377" y="1781" on="0"/>
        <pt x="323" y="1738" on="0"/>
        <pt x="273" y="1703" on="1"/>
        <pt x="159" y="1626" on="0"/>
        <pt x="78" y="1554" on="1"/>
        <pt x="53" y="1569" on="1"/>
      </contour>
    </TTGlyph>
    <TTGlyph name="acute.loclPLK.smcp" xMin="53" yMin="1350" xMax="436" yMax="1831">
      <contour>
        <pt x="81" y="1451" on="0"/>
        <pt x="112" y="1576" on="1"/>
        <pt x="129" y="1649" on="0"/>
        <pt x="155" y="1726" on="0"/>
        <pt x="176" y="1755" on="1"/>
        <pt x="196" y="1788" on="0"/>
        <pt x="266" y="1831" on="0"/>
        <pt x="305" y="1831" on="1"/>
        <pt x="348" y="1831" on="0"/>
        <pt x="387" y="1802" on="1"/>
        <pt x="436" y="1767" on="0"/>
        <pt x="436" y="1710" on="1"/>
        <pt x="436" y="1655" on="0"/>
        <pt x="395" y="1599" on="1"/>
        <pt x="377" y="1576" on="0"/>
        <pt x="322" y="1532" on="0"/>
        <pt x="272" y="1498" on="1"/>
        <pt x="155" y="1417" on="0"/>
        <pt x="78" y="1350" on="1"/>
        <pt x="53" y="1364" on="1"/>
      </contour>
    </TTGlyph>
    <TTGlyph name="acute.smcp" xMin="41" yMin="1376" xMax="658" yMax="1781">
      <contour>
        <pt x="124" y="1474" on="0"/>
        <pt x="236" y="1595" on="1"/>
        <pt x="298" y="1661" on="0"/>
        <pt x="376" y="1733" on="0"/>
        <pt x="422" y="1757" on="1"/>
        <pt x="465" y="1781" on="0"/>
        <pt x="516" y="1781" on="1"/>
        <pt x="604" y="1781" on="0"/>
        <pt x="643" y="1710" on="1"/>
        <pt x="658" y="1681" on="0"/>
        <pt x="658" y="1655" on="1"/>
        <pt x="658" y="1579" on="0"/>
        <pt x="551" y="1520" on="1"/>
        <pt x="511" y="1498" on="0"/>
        <pt x="413" y="1469" on="0"/>
        <pt x="328" y="1450" on="1"/>
        <pt x="162" y="1411" on="0"/>
        <pt x="55" y="1376" on="1"/>
        <pt x="41" y="1401" on="1"/>
      </contour>
    </TTGlyph>
    <TTGlyph name="adieresis" xMin="-197" yMin="0" xMax="1387" yMax="1712">
      <component glyphName=".ttfautohint" x="0" y="0" flags="0x0"/>
      <component glyphName="a" x="0" y="0" flags="0x0"/>
      <component glyphName="dieresis.smcp" x="558" y="0" flags="0x0"/>
    </TTGlyph>
    <TTGlyph name="ae" xMin="-176" yMin="0" xMax="1917" yMax="1354">
      <contour>
        <pt x="1788" y="1239" on="0"/>
        <pt x="1917" y="1245" on="1"/>
        <pt x="1883" y="1152" on="0"/>
        <pt x="1839" y="1004" on="1"/>
        <pt x="1825" y="953" on="0"/>
        <pt x="1812" y="877" on="1"/>
        <pt x="1767" y="877" on="1"/>
        <pt x="1782" y="963" on="0"/>
        <pt x="1782" y="1021" on="1"/>
        <pt x="1782" y="1117" on="0"/>
        <pt x="1697" y="1198" on="0"/>
        <pt x="1602" y="1198" on="1"/>
        <pt x="1513" y="1198" on="1"/>
        <pt x="1441" y="1198" on="0"/>
        <pt x="1371" y="1175" on="0"/>
        <pt x="1329" y="1106" on="0"/>
        <pt x="1309" y="1028" on="1"/>
        <pt x="1207" y="647" on="1"/>
        <pt x="1319" y="647" on="1"/>
        <pt x="1377" y="647" on="0"/>
        <pt x="1454" y="708" on="0"/>
        <pt x="1501" y="799" on="0"/>
        <pt x="1530" y="877" on="1"/>
        <pt x="1575" y="877" on="1"/>
        <pt x="1552" y="808" on="0"/>
        <pt x="1521" y="689" on="1"/>
        <pt x="1505" y="627" on="1"/>
        <pt x="1483" y="545" on="0"/>
        <pt x="1452" y="377" on="1"/>
        <pt x="1407" y="377" on="1"/>
        <pt x="1407" y="388" on="0"/>
        <pt x="1412" y="440" on="1"/>
        <pt x="1417" y="477" on="0"/>
        <pt x="1417" y="503" on="1"/>
        <pt x="1417" y="549" on="0"/>
        <pt x="1372" y="602" on="0"/>
        <pt x="1311" y="606" on="1"/>
        <pt x="1196" y="606" on="1"/>
        <pt x="1092" y="217" on="1"/>
        <pt x="1074" y="147" on="0"/>
        <pt x="1074" y="117" on="1"/>
        <pt x="1074" y="88" on="0"/>
        <pt x="1101" y="58" on="0"/>
        <pt x="1157" y="47" on="0"/>
        <pt x="1208" y="47" on="1"/>
        <pt x="1317" y="47" on="1"/>
        <pt x="1416" y="47" on="0"/>
        <pt x="1542" y="115" on="0"/>
        <pt x="1635" y="269" on="0"/>
        <pt x="1683" y="410" on="1"/>
        <pt x="1729" y="410" on="1"/>
        <pt x="1712" y="368" on="0"/>
        <pt x="1686" y="262" on="1"/>
        <pt x="1654" y="154" on="0"/>
        <pt x="1632" y="0" on="1"/>
        <pt x="1493" y="6" on="0"/>
        <pt x="1169" y="6" on="1"/>
        <pt x="694" y="6" on="0"/>
        <pt x="457" y="0" on="1"/>
        <pt x="465" y="41" on="1"/>
        <pt x="539" y="44" on="0"/>
        <pt x="612" y="70" on="0"/>
        <pt x="656" y="140" on="0"/>
        <pt x="676" y="217" on="1"/>
        <pt x="780" y="606" on="1"/>
        <pt x="436" y="606" on="1"/>
        <pt x="70" y="193" on="1"/>
        <pt x="11" y="126" on="0"/>
        <pt x="11" y="96" on="1"/>
        <pt x="11" y="51" on="0"/>
        <pt x="137" y="41" on="1"/>
        <pt x="137" y="0" on="1"/>
        <pt x="81" y="6" on="0"/>
        <pt x="-39" y="6" on="1"/>
        <pt x="-127" y="6" on="0"/>
        <pt x="-176" y="0" on="1"/>
        <pt x="-176" y="41" on="1"/>
        <pt x="-113" y="44" on="0"/>
        <pt x="0" y="172" on="1"/>
        <pt x="890" y="1179" on="1"/>
        <pt x="875" y="1191" on="0"/>
        <pt x="820" y="1202" on="0"/>
        <pt x="772" y="1204" on="1"/>
        <pt x="782" y="1245" on="1"/>
        <pt x="945" y="1242" on="1"/>
        <pt x="1044" y="1354" on="1"/>
        <pt x="1098" y="1354" on="1"/>
        <pt x="998" y="1241" on="1"/>
        <pt x="1189" y="1239" on="0"/>
        <pt x="1493" y="1239" on="1"/>
      </contour>
      <contour>
        <pt x="893" y="1028" on="1"/>
        <pt x="910" y="1093" on="0"/>
        <pt x="910" y="1126" on="1"/>
        <pt x="910" y="1136" on="0"/>
        <pt x="909" y="1141" on="1"/>
        <pt x="472" y="647" on="1"/>
        <pt x="791" y="647" on="1"/>
      </contour>
    </TTGlyph>
    <TTGlyph name="agrave" xMin="-197" yMin="0" xMax="1223" yMax="1733">
      <component glyphName=".ttfautohint" x="0" y="0" flags="0x0"/>
      <component glyphName="a" x="0" y="0" flags="0x0"/>
      <component glyphName="grave.smcp" x="510" y="0" flags="0x0"/>
    </TTGlyph>
    <TTGlyph name="amacron" xMin="-197" yMin="0" xMax="1366" yMax="1524">
      <component glyphName=".ttfautohint" x="0" y="0" flags="0x0"/>
      <component glyphName="a" x="0" y="0" flags="0x0"/>
      <component glyphName="macron.smcp" x="500" y="0" flags="0x0"/>
    </TTGlyph>
    <TTGlyph name="ampersand" xMin="47" yMin="-29" xMax="1927" yMax="1479">
      <contour>
        <pt x="1927" y="1051" on="0"/>
        <pt x="1818" y="875" on="0"/>
        <pt x="1613" y="756" on="0"/>
        <pt x="1452" y="707" on="1"/>
        <pt x="1499" y="630" on="0"/>
        <pt x="1499" y="530" on="1"/>
        <pt x="1499" y="397" on="0"/>
        <pt x="1327" y="139" on="0"/>
        <pt x="974" y="-29" on="0"/>
        <pt x="719" y="-29" on="1"/>
        <pt x="527" y="-29" on="0"/>
        <pt x="223" y="73" on="0"/>
        <pt x="47" y="281" on="0"/>
        <pt x="47" y="432" on="1"/>
        <pt x="47" y="571" on="0"/>
        <pt x="197" y="802" on="0"/>
        <pt x="479" y="964" on="0"/>
        <pt x="672" y="999" on="1"/>
        <pt x="567" y="1027" on="0"/>
        <pt x="467" y="1134" on="0"/>
        <pt x="467" y="1202" on="1"/>
        <pt x="467" y="1278" on="0"/>
        <pt x="579" y="1385" on="0"/>
        <pt x="760" y="1438" on="0"/>
        <pt x="862" y="1438" on="1"/>
        <pt x="995" y="1438" on="0"/>
        <pt x="1124" y="1353" on="0"/>
        <pt x="1124" y="1282" on="1"/>
        <pt x="1124" y="1238" on="0"/>
        <pt x="1079" y="1177" on="0"/>
        <pt x="1011" y="1147" on="0"/>
        <pt x="977" y="1147" on="1"/>
        <pt x="975" y="1184" on="1"/>
        <pt x="1018" y="1184" on="0"/>
        <pt x="1077" y="1238" on="0"/>
        <pt x="1077" y="1276" on="1"/>
        <pt x="1077" y="1312" on="0"/>
        <pt x="1017" y="1356" on="0"/>
        <pt x="965" y="1356" on="1"/>
        <pt x="898" y="1356" on="0"/>
        <pt x="773" y="1285" on="0"/>
        <pt x="694" y="1155" on="0"/>
        <pt x="694" y="1073" on="1"/>
        <pt x="694" y="1042" on="0"/>
        <pt x="700" y="1012" on="1"/>
        <pt x="775" y="1024" on="0"/>
        <pt x="829" y="1024" on="1"/>
        <pt x="903" y="1024" on="0"/>
        <pt x="903" y="981" on="1"/>
        <pt x="903" y="959" on="0"/>
        <pt x="866" y="938" on="0"/>
        <pt x="840" y="938" on="1"/>
        <pt x="791" y="938" on="0"/>
        <pt x="698" y="983" on="1"/>
        <pt x="640" y="957" on="0"/>
        <pt x="543" y="825" on="0"/>
        <pt x="487" y="644" on="0"/>
        <pt x="487" y="547" on="1"/>
        <pt x="487" y="358" on="0"/>
        <pt x="707" y="164" on="0"/>
        <pt x="918" y="164" on="1"/>
        <pt x="1054" y="164" on="0"/>
        <pt x="1299" y="244" on="0"/>
        <pt x="1456" y="415" on="0"/>
        <pt x="1456" y="545" on="1"/>
        <pt x="1456" y="631" on="0"/>
        <pt x="1418" y="696" on="1"/>
        <pt x="1248" y="644" on="0"/>
        <pt x="1163" y="619" on="1"/>
        <pt x="985" y="565" on="1"/>
        <pt x="893" y="538" on="0"/>
        <pt x="809" y="463" on="0"/>
        <pt x="809" y="410" on="1"/>
        <pt x="809" y="356" on="0"/>
        <pt x="882" y="311" on="0"/>
        <pt x="936" y="311" on="1"/>
        <pt x="1016" y="311" on="0"/>
        <pt x="1130" y="393" on="0"/>
        <pt x="1153" y="442" on="1"/>
        <pt x="1188" y="428" on="1"/>
        <pt x="1172" y="390" on="0"/>
        <pt x="1102" y="317" on="0"/>
        <pt x="995" y="268" on="0"/>
        <pt x="928" y="268" on="1"/>
        <pt x="860" y="268" on="0"/>
        <pt x="741" y="321" on="0"/>
        <pt x="666" y="436" on="0"/>
        <pt x="666" y="522" on="1"/>
        <pt x="666" y="652" on="0"/>
        <pt x="850" y="845" on="0"/>
        <pt x="1036" y="901" on="1"/>
        <pt x="1280" y="975" on="1"/>
        <pt x="1579" y="1065" on="1"/>
        <pt x="1600" y="1071" on="1"/>
        <pt x="1679" y="1095" on="0"/>
        <pt x="1779" y="1138" on="0"/>
        <pt x="1853" y="1217" on="0"/>
        <pt x="1853" y="1278" on="1"/>
        <pt x="1853" y="1329" on="0"/>
        <pt x="1799" y="1405" on="0"/>
        <pt x="1707" y="1444" on="0"/>
        <pt x="1651" y="1444" on="1"/>
        <pt x="1618" y="1444" on="0"/>
        <pt x="1595" y="1436" on="1"/>
        <pt x="1714" y="1390" on="0"/>
        <pt x="1714" y="1288" on="1"/>
        <pt x="1714" y="1236" on="0"/>
        <pt x="1652" y="1159" on="0"/>
        <pt x="1553" y="1118" on="0"/>
        <pt x="1499" y="1118" on="1"/>
        <pt x="1446" y="1118" on="0"/>
        <pt x="1361" y="1159" on="0"/>
        <pt x="1313" y="1232" on="0"/>
        <pt x="1313" y="1278" on="1"/>
        <pt x="1313" y="1339" on="0"/>
        <pt x="1390" y="1426" on="0"/>
        <pt x="1456" y="1450" on="1"/>
        <pt x="1526" y="1479" on="0"/>
        <pt x="1634" y="1479" on="1"/>
        <pt x="1927" y="1479" on="0"/>
        <pt x="1927" y="1180" on="1"/>
      </contour>
    </TTGlyph>
    <TTGlyph name="ampersand.smcp" xMin="27" yMin="-29" xMax="1786" yMax="1366">
      <contour>
        <pt x="1786" y="955" on="0"/>
        <pt x="1621" y="738" on="0"/>
        <pt x="1454" y="663" on="1"/>
        <pt x="1479" y="599" on="0"/>
        <pt x="1479" y="530" on="1"/>
        <pt x="1479" y="396" on="0"/>
        <pt x="1306" y="138" on="0"/>
        <pt x="949" y="-29" on="0"/>
        <pt x="688" y="-29" on="1"/>
        <pt x="496" y="-29" on="0"/>
        <pt x="197" y="67" on="0"/>
        <pt x="27" y="254" on="0"/>
        <pt x="27" y="385" on="1"/>
        <pt x="27" y="556" on="0"/>
        <pt x="313" y="781" on="0"/>
        <pt x="569" y="836" on="1"/>
        <pt x="465" y="863" on="0"/>
        <pt x="365" y="970" on="0"/>
        <pt x="365" y="1038" on="1"/>
        <pt x="365" y="1114" on="0"/>
        <pt x="477" y="1221" on="0"/>
        <pt x="657" y="1274" on="0"/>
        <pt x="760" y="1274" on="1"/>
        <pt x="892" y="1274" on="0"/>
        <pt x="1022" y="1189" on="0"/>
        <pt x="1022" y="1118" on="1"/>
        <pt x="1022" y="1074" on="0"/>
        <pt x="977" y="1013" on="0"/>
        <pt x="908" y="983" on="0"/>
        <pt x="874" y="983" on="1"/>
        <pt x="872" y="1020" on="1"/>
        <pt x="915" y="1020" on="0"/>
        <pt x="973" y="1075" on="0"/>
        <pt x="973" y="1112" on="1"/>
        <pt x="973" y="1147" on="0"/>
        <pt x="914" y="1192" on="0"/>
        <pt x="860" y="1192" on="1"/>
        <pt x="793" y="1192" on="0"/>
        <pt x="670" y="1121" on="0"/>
        <pt x="594" y="989" on="0"/>
        <pt x="594" y="903" on="1"/>
        <pt x="594" y="866" on="0"/>
        <pt x="598" y="848" on="1"/>
        <pt x="666" y="868" on="0"/>
        <pt x="713" y="868" on="1"/>
        <pt x="744" y="868" on="0"/>
        <pt x="778" y="845" on="0"/>
        <pt x="778" y="825" on="1"/>
        <pt x="778" y="804" on="0"/>
        <pt x="740" y="782" on="0"/>
        <pt x="715" y="782" on="1"/>
        <pt x="682" y="782" on="0"/>
        <pt x="619" y="809" on="1"/>
        <pt x="596" y="819" on="1"/>
        <pt x="560" y="797" on="0"/>
        <pt x="501" y="699" on="0"/>
        <pt x="467" y="571" on="0"/>
        <pt x="467" y="504" on="1"/>
        <pt x="467" y="336" on="0"/>
        <pt x="690" y="164" on="0"/>
        <pt x="893" y="164" on="1"/>
        <pt x="1032" y="164" on="0"/>
        <pt x="1280" y="244" on="0"/>
        <pt x="1436" y="415" on="0"/>
        <pt x="1436" y="545" on="1"/>
        <pt x="1436" y="600" on="0"/>
        <pt x="1420" y="648" on="1"/>
        <pt x="1301" y="599" on="0"/>
        <pt x="1212" y="560" on="1"/>
        <pt x="991" y="467" on="1"/>
        <pt x="917" y="436" on="0"/>
        <pt x="850" y="380" on="0"/>
        <pt x="850" y="336" on="1"/>
        <pt x="850" y="295" on="0"/>
        <pt x="900" y="260" on="0"/>
        <pt x="934" y="260" on="1"/>
        <pt x="984" y="260" on="0"/>
        <pt x="1014" y="287" on="1"/>
        <pt x="1034" y="260" on="1"/>
        <pt x="1008" y="239" on="0"/>
        <pt x="953" y="221" on="0"/>
        <pt x="915" y="221" on="1"/>
        <pt x="846" y="221" on="0"/>
        <pt x="733" y="273" on="0"/>
        <pt x="666" y="377" on="0"/>
        <pt x="666" y="453" on="1"/>
        <pt x="666" y="533" on="0"/>
        <pt x="744" y="650" on="0"/>
        <pt x="878" y="736" on="0"/>
        <pt x="981" y="780" on="1"/>
        <pt x="1440" y="977" on="1"/>
        <pt x="1525" y="1013" on="0"/>
        <pt x="1618" y="1084" on="0"/>
        <pt x="1651" y="1153" on="0"/>
        <pt x="1651" y="1194" on="1"/>
        <pt x="1651" y="1335" on="0"/>
        <pt x="1489" y="1335" on="1"/>
        <pt x="1434" y="1335" on="0"/>
        <pt x="1411" y="1325" on="1"/>
        <pt x="1530" y="1279" on="0"/>
        <pt x="1530" y="1186" on="1"/>
        <pt x="1530" y="1140" on="0"/>
        <pt x="1470" y="1068" on="0"/>
        <pt x="1371" y="1028" on="0"/>
        <pt x="1315" y="1028" on="1"/>
        <pt x="1233" y="1028" on="0"/>
        <pt x="1128" y="1104" on="0"/>
        <pt x="1128" y="1165" on="1"/>
        <pt x="1128" y="1218" on="0"/>
        <pt x="1208" y="1303" on="0"/>
        <pt x="1272" y="1329" on="1"/>
        <pt x="1358" y="1366" on="0"/>
        <pt x="1477" y="1366" on="1"/>
        <pt x="1614" y="1366" on="0"/>
        <pt x="1786" y="1233" on="0"/>
        <pt x="1786" y="1090" on="1"/>
      </contour>
    </TTGlyph>
    <TTGlyph name="aogonek" xMin="-197" yMin="-385" xMax="1223" yMax="1260">
      <contour>
        <pt x="1038" y="-22" on="0"/>
        <pt x="907" y="-101" on="0"/>
        <pt x="843" y="-189" on="0"/>
        <pt x="843" y="-227" on="1"/>
        <pt x="843" y="-281" on="0"/>
        <pt x="905" y="-281" on="1"/>
        <pt x="965" y="-281" on="0"/>
        <pt x="1048" y="-242" on="1"/>
        <pt x="1071" y="-276" on="1"/>
        <pt x="915" y="-385" on="0"/>
        <pt x="755" y="-385" on="1"/>
        <pt x="664" y="-385" on="0"/>
        <pt x="563" y="-320" on="0"/>
        <pt x="563" y="-260" on="1"/>
        <pt x="563" y="-166" on="0"/>
        <pt x="826" y="-29" on="0"/>
        <pt x="1073" y="4" on="1"/>
        <pt x="937" y="6" on="0"/>
        <pt x="866" y="6" on="1"/>
        <pt x="629" y="6" on="0"/>
        <pt x="518" y="0" on="1"/>
        <pt x="528" y="41" on="1"/>
        <pt x="591" y="44" on="0"/>
        <pt x="667" y="67" on="0"/>
        <pt x="707" y="122" on="0"/>
        <pt x="707" y="173" on="1"/>
        <pt x="707" y="199" on="0"/>
        <pt x="705" y="213" on="1"/>
        <pt x="674" y="467" on="1"/>
        <pt x="258" y="467" on="1"/>
        <pt x="98" y="268" on="1"/>
        <pt x="44" y="201" on="0"/>
        <pt x="44" y="155" on="1"/>
        <pt x="44" y="66" on="0"/>
        <pt x="236" y="41" on="1"/>
        <pt x="227" y="0" on="1"/>
        <pt x="46" y="6" on="0"/>
        <pt x="-63" y="6" on="1"/>
        <pt x="-132" y="6" on="0"/>
        <pt x="-197" y="0" on="1"/>
        <pt x="-188" y="41" on="1"/>
        <pt x="-149" y="59" on="0"/>
        <pt x="-85" y="110" on="0"/>
        <pt x="-8" y="199" on="0"/>
        <pt x="61" y="285" on="1"/>
        <pt x="842" y="1260" on="1"/>
        <pt x="894" y="1256" on="0"/>
        <pt x="919" y="1256" on="1"/>
        <pt x="945" y="1256" on="0"/>
        <pt x="995" y="1260" on="1"/>
        <pt x="1122" y="172" on="1"/>
        <pt x="1131" y="104" on="0"/>
        <pt x="1187" y="43" on="0"/>
        <pt x="1223" y="41" on="1"/>
        <pt x="1212" y="0" on="1"/>
        <pt x="1132" y="3" on="1"/>
      </contour>
      <contour>
        <pt x="619" y="917" on="1"/>
        <pt x="291" y="508" on="1"/>
        <pt x="669" y="508" on="1"/>
      </contour>
    </TTGlyph>
    <TTGlyph name="approxequal" xMin="27" yMin="276" xMax="1468" yMax="1184">
      <contour>
        <pt x="971" y="692" on="0"/>
        <pt x="882" y="720" on="0"/>
        <pt x="812" y="760" on="0"/>
        <pt x="762" y="794" on="1"/>
        <pt x="691" y="843" on="0"/>
        <pt x="585" y="891" on="0"/>
        <pt x="518" y="891" on="1"/>
        <pt x="309" y="891" on="0"/>
        <pt x="174" y="690" on="1"/>
        <pt x="139" y="696" on="1"/>
        <pt x="191" y="840" on="0"/>
        <pt x="355" y="1062" on="0"/>
        <pt x="543" y="1184" on="0"/>
        <pt x="631" y="1184" on="1"/>
        <pt x="684" y="1184" on="0"/>
        <pt x="776" y="1156" on="0"/>
        <pt x="849" y="1116" on="0"/>
        <pt x="901" y="1082" on="1"/>
        <pt x="951" y="1050" on="0"/>
        <pt x="1020" y="1011" on="0"/>
        <pt x="1106" y="985" on="0"/>
        <pt x="1155" y="985" on="1"/>
        <pt x="1319" y="985" on="0"/>
        <pt x="1432" y="1165" on="1"/>
        <pt x="1468" y="1159" on="1"/>
        <pt x="1419" y="1021" on="0"/>
        <pt x="1269" y="809" on="0"/>
        <pt x="1100" y="692" on="0"/>
        <pt x="1022" y="692" on="1"/>
      </contour>
      <contour>
        <pt x="809" y="276" on="0"/>
        <pt x="717" y="304" on="0"/>
        <pt x="644" y="344" on="0"/>
        <pt x="592" y="378" on="1"/>
        <pt x="542" y="410" on="0"/>
        <pt x="473" y="449" on="0"/>
        <pt x="387" y="475" on="0"/>
        <pt x="338" y="475" on="1"/>
        <pt x="174" y="475" on="0"/>
        <pt x="61" y="295" on="1"/>
        <pt x="27" y="301" on="1"/>
        <pt x="75" y="439" on="0"/>
        <pt x="224" y="652" on="0"/>
        <pt x="393" y="768" on="0"/>
        <pt x="471" y="768" on="1"/>
        <pt x="522" y="768" on="0"/>
        <pt x="611" y="740" on="0"/>
        <pt x="681" y="700" on="0"/>
        <pt x="731" y="666" on="1"/>
        <pt x="802" y="617" on="0"/>
        <pt x="908" y="569" on="0"/>
        <pt x="975" y="569" on="1"/>
        <pt x="1183" y="569" on="0"/>
        <pt x="1319" y="770" on="1"/>
        <pt x="1354" y="764" on="1"/>
        <pt x="1302" y="620" on="0"/>
        <pt x="1138" y="398" on="0"/>
        <pt x="950" y="276" on="0"/>
        <pt x="862" y="276" on="1"/>
      </contour>
    </TTGlyph>
    <TTGlyph name="aring" xMin="-197" yMin="0" xMax="1223" yMax="1731">
      <component glyphName=".ttfautohint" x="0" y="0" flags="0x0"/>
      <component glyphName="a" x="0" y="0" flags="0x0"/>
      <component glyphName="ring.smcp" x="662" y="0" flags="0x0"/>
    </TTGlyph>
    <TTGlyph name="arrowboth" xMin="51" yMin="158" xMax="1331" yMax="924">
      <contour>
        <pt x="977" y="770" on="0"/>
        <pt x="1184" y="584" on="0"/>
        <pt x="1331" y="541" on="1"/>
        <pt x="1184" y="497" on="0"/>
        <pt x="977" y="312" on="0"/>
        <pt x="907" y="158" on="1"/>
        <pt x="872" y="158" on="1"/>
        <pt x="957" y="337" on="0"/>
        <pt x="961" y="524" on="1"/>
        <pt x="422" y="524" on="1"/>
        <pt x="426" y="339" on="0"/>
        <pt x="510" y="158" on="1"/>
        <pt x="475" y="158" on="1"/>
        <pt x="405" y="312" on="0"/>
        <pt x="198" y="497" on="0"/>
        <pt x="51" y="541" on="1"/>
        <pt x="198" y="584" on="0"/>
        <pt x="405" y="770" on="0"/>
        <pt x="475" y="924" on="1"/>
        <pt x="510" y="924" on="1"/>
        <pt x="425" y="742" on="0"/>
        <pt x="422" y="557" on="1"/>
        <pt x="961" y="557" on="1"/>
        <pt x="958" y="743" on="0"/>
        <pt x="872" y="924" on="1"/>
        <pt x="907" y="924" on="1"/>
      </contour>
    </TTGlyph>
    <TTGlyph name="arrowdown" xMin="123" yMin="-20" xMax="889" yMax="1200">
      <contour>
        <pt x="552" y="952" on="0"/>
        <pt x="734" y="1128" on="0"/>
        <pt x="889" y="1200" on="1"/>
        <pt x="889" y="1165" on="1"/>
        <pt x="735" y="1095" on="0"/>
        <pt x="549" y="888" on="0"/>
        <pt x="506" y="741" on="1"/>
        <pt x="463" y="888" on="0"/>
        <pt x="277" y="1095" on="0"/>
        <pt x="123" y="1165" on="1"/>
        <pt x="123" y="1200" on="1"/>
        <pt x="278" y="1128" on="0"/>
        <pt x="459" y="952" on="0"/>
        <pt x="506" y="829" on="1"/>
      </contour>
      <contour>
        <pt x="552" y="768" on="0"/>
        <pt x="734" y="944" on="0"/>
        <pt x="889" y="1016" on="1"/>
        <pt x="889" y="981" on="1"/>
        <pt x="748" y="917" on="0"/>
        <pt x="569" y="733" on="0"/>
        <pt x="522" y="606" on="1"/>
        <pt x="522" y="350" on="1"/>
        <pt x="707" y="353" on="0"/>
        <pt x="889" y="438" on="1"/>
        <pt x="889" y="403" on="1"/>
        <pt x="735" y="333" on="0"/>
        <pt x="549" y="127" on="0"/>
        <pt x="506" y="-20" on="1"/>
        <pt x="463" y="127" on="0"/>
        <pt x="277" y="333" on="0"/>
        <pt x="123" y="403" on="1"/>
        <pt x="123" y="438" on="1"/>
        <pt x="304" y="354" on="0"/>
        <pt x="489" y="350" on="1"/>
        <pt x="489" y="608" on="1"/>
        <pt x="442" y="734" on="0"/>
        <pt x="264" y="917" on="0"/>
        <pt x="123" y="981" on="1"/>
        <pt x="123" y="1016" on="1"/>
        <pt x="278" y="944" on="0"/>
        <pt x="459" y="768" on="0"/>
        <pt x="506" y="645" on="1"/>
      </contour>
    </TTGlyph>
    <TTGlyph name="arrowdownleft" xMin="133" yMin="-20" xMax="1268" yMax="1114">
      <contour>
        <pt x="851" y="633" on="0"/>
        <pt x="970" y="633" on="1"/>
        <pt x="1103" y="633" on="0"/>
        <pt x="1268" y="571" on="1"/>
        <pt x="1243" y="547" on="1"/>
        <pt x="1103" y="600" on="0"/>
        <pt x="976" y="600" on="1"/>
        <pt x="822" y="600" on="0"/>
        <pt x="672" y="518" on="1"/>
        <pt x="754" y="667" on="0"/>
        <pt x="754" y="821" on="1"/>
        <pt x="754" y="948" on="0"/>
        <pt x="700" y="1090" on="1"/>
        <pt x="725" y="1114" on="1"/>
        <pt x="787" y="949" on="0"/>
        <pt x="787" y="817" on="1"/>
        <pt x="787" y="695" on="0"/>
        <pt x="735" y="582" on="1"/>
      </contour>
      <contour>
        <pt x="720" y="502" on="0"/>
        <pt x="841" y="502" on="1"/>
        <pt x="972" y="502" on="0"/>
        <pt x="1137" y="442" on="1"/>
        <pt x="1112" y="418" on="1"/>
        <pt x="972" y="470" on="0"/>
        <pt x="848" y="470" on="1"/>
        <pt x="716" y="470" on="0"/>
        <pt x="590" y="413" on="1"/>
        <pt x="407" y="231" on="1"/>
        <pt x="541" y="103" on="0"/>
        <pt x="729" y="33" on="1"/>
        <pt x="705" y="8" on="1"/>
        <pt x="563" y="62" on="0"/>
        <pt x="436" y="62" on="1"/>
        <pt x="282" y="62" on="0"/>
        <pt x="133" y="-20" on="1"/>
        <pt x="215" y="130" on="0"/>
        <pt x="215" y="284" on="1"/>
        <pt x="215" y="411" on="0"/>
        <pt x="162" y="551" on="1"/>
        <pt x="186" y="575" on="1"/>
        <pt x="257" y="389" on="0"/>
        <pt x="384" y="253" on="1"/>
        <pt x="567" y="438" on="1"/>
        <pt x="624" y="563" on="0"/>
        <pt x="624" y="692" on="1"/>
        <pt x="624" y="816" on="0"/>
        <pt x="571" y="958" on="1"/>
        <pt x="596" y="983" on="1"/>
        <pt x="656" y="818" on="0"/>
        <pt x="656" y="688" on="1"/>
        <pt x="656" y="565" on="0"/>
        <pt x="604" y="451" on="1"/>
      </contour>
    </TTGlyph>
    <TTGlyph name="arrowdownright" xMin="133" yMin="-20" xMax="1268" yMax="1114">
      <component glyphName=".ttfautohint" x="133" y="0" flags="0x0"/>
      <component glyphName="arrowupleft" x="1401" y="1094" scale="-1.0" flags="0x0"/>
    </TTGlyph>
    <TTGlyph name="arrowleft" xMin="51" yMin="158" xMax="1272" yMax="924">
      <contour>
        <pt x="840" y="495" on="0"/>
        <pt x="1015" y="313" on="0"/>
        <pt x="1087" y="158" on="1"/>
        <pt x="1053" y="158" on="1"/>
        <pt x="988" y="299" on="0"/>
        <pt x="806" y="476" on="0"/>
        <pt x="680" y="524" on="1"/>
        <pt x="422" y="524" on="1"/>
        <pt x="426" y="339" on="0"/>
        <pt x="510" y="158" on="1"/>
        <pt x="475" y="158" on="1"/>
        <pt x="405" y="312" on="0"/>
        <pt x="198" y="497" on="0"/>
        <pt x="51" y="541" on="1"/>
        <pt x="198" y="584" on="0"/>
        <pt x="405" y="770" on="0"/>
        <pt x="475" y="924" on="1"/>
        <pt x="510" y="924" on="1"/>
        <pt x="425" y="742" on="0"/>
        <pt x="422" y="557" on="1"/>
        <pt x="677" y="557" on="1"/>
        <pt x="804" y="604" on="0"/>
        <pt x="988" y="783" on="0"/>
        <pt x="1053" y="924" on="1"/>
        <pt x="1087" y="924" on="1"/>
        <pt x="1015" y="768" on="0"/>
        <pt x="840" y="587" on="0"/>
        <pt x="717" y="541" on="1"/>
      </contour>
      <contour>
        <pt x="1024" y="494" on="0"/>
        <pt x="1200" y="313" on="0"/>
        <pt x="1272" y="158" on="1"/>
        <pt x="1237" y="158" on="1"/>
        <pt x="1167" y="312" on="0"/>
        <pt x="960" y="497" on="0"/>
        <pt x="813" y="541" on="1"/>
        <pt x="960" y="584" on="0"/>
        <pt x="1167" y="770" on="0"/>
        <pt x="1237" y="924" on="1"/>
        <pt x="1272" y="924" on="1"/>
        <pt x="1200" y="769" on="0"/>
        <pt x="1024" y="587" on="0"/>
        <pt x="901" y="541" on="1"/>
      </contour>
    </TTGlyph>
    <TTGlyph name="arrowright" xMin="123" yMin="158" xMax="1344" yMax="924">
      <component glyphName=".ttfautohint" x="123" y="158" flags="0x0"/>
      <component glyphName="arrowleft" x="1395" y="0" scalex="-1.0" scaley="1.0" flags="0x0"/>
    </TTGlyph>
    <TTGlyph name="arrowup" xMin="123" yMin="-20" xMax="889" yMax="1200">
      <contour>
        <pt x="710" y="826" on="0"/>
        <pt x="522" y="829" on="1"/>
        <pt x="522" y="574" on="1"/>
        <pt x="569" y="447" on="0"/>
        <pt x="748" y="263" on="0"/>
        <pt x="889" y="199" on="1"/>
        <pt x="889" y="164" on="1"/>
        <pt x="734" y="236" on="0"/>
        <pt x="552" y="412" on="0"/>
        <pt x="506" y="535" on="1"/>
        <pt x="459" y="412" on="0"/>
        <pt x="278" y="236" on="0"/>
        <pt x="123" y="164" on="1"/>
        <pt x="123" y="199" on="1"/>
        <pt x="264" y="263" on="0"/>
        <pt x="442" y="446" on="0"/>
        <pt x="489" y="572" on="1"/>
        <pt x="489" y="829" on="1"/>
        <pt x="304" y="826" on="0"/>
        <pt x="123" y="741" on="1"/>
        <pt x="123" y="776" on="1"/>
        <pt x="277" y="846" on="0"/>
        <pt x="463" y="1053" on="0"/>
        <pt x="506" y="1200" on="1"/>
        <pt x="549" y="1053" on="0"/>
        <pt x="735" y="846" on="0"/>
        <pt x="889" y="776" on="1"/>
        <pt x="889" y="741" on="1"/>
      </contour>
      <contour>
        <pt x="549" y="292" on="0"/>
        <pt x="735" y="85" on="0"/>
        <pt x="889" y="14" on="1"/>
        <pt x="889" y="-20" on="1"/>
        <pt x="733" y="52" on="0"/>
        <pt x="552" y="227" on="0"/>
        <pt x="506" y="350" on="1"/>
        <pt x="460" y="227" on="0"/>
        <pt x="278" y="52" on="0"/>
        <pt x="123" y="-20" on="1"/>
        <pt x="123" y="14" on="1"/>
        <pt x="277" y="85" on="0"/>
        <pt x="463" y="292" on="0"/>
        <pt x="506" y="438" on="1"/>
      </contour>
    </TTGlyph>
    <TTGlyph name="arrowupleft" xMin="133" yMin="-20" xMax="1268" yMax="1114">
      <contour>
        <pt x="972" y="591" on="0"/>
        <pt x="842" y="591" on="1"/>
        <pt x="718" y="591" on="0"/>
        <pt x="604" y="643" on="1"/>
        <pt x="656" y="529" on="0"/>
        <pt x="656" y="405" on="1"/>
        <pt x="656" y="276" on="0"/>
        <pt x="596" y="111" on="1"/>
        <pt x="571" y="135" on="1"/>
        <pt x="624" y="277" on="0"/>
        <pt x="624" y="401" on="1"/>
        <pt x="624" y="532" on="0"/>
        <pt x="567" y="656" on="1"/>
        <pt x="384" y="841" on="1"/>
        <pt x="257" y="706" on="0"/>
        <pt x="186" y="518" on="1"/>
        <pt x="162" y="543" on="1"/>
        <pt x="215" y="683" on="0"/>
        <pt x="215" y="810" on="1"/>
        <pt x="215" y="964" on="0"/>
        <pt x="133" y="1114" on="1"/>
        <pt x="283" y="1032" on="0"/>
        <pt x="437" y="1032" on="1"/>
        <pt x="561" y="1032" on="0"/>
        <pt x="705" y="1085" on="1"/>
        <pt x="729" y="1061" on="1"/>
        <pt x="541" y="991" on="0"/>
        <pt x="407" y="863" on="1"/>
        <pt x="591" y="681" on="1"/>
        <pt x="718" y="623" on="0"/>
        <pt x="847" y="623" on="1"/>
        <pt x="970" y="623" on="0"/>
        <pt x="1112" y="676" on="1"/>
        <pt x="1137" y="651" on="1"/>
      </contour>
      <contour>
        <pt x="1103" y="460" on="0"/>
        <pt x="971" y="460" on="1"/>
        <pt x="849" y="460" on="0"/>
        <pt x="735" y="512" on="1"/>
        <pt x="787" y="398" on="0"/>
        <pt x="787" y="277" on="1"/>
        <pt x="787" y="145" on="0"/>
        <pt x="725" y="-20" on="1"/>
        <pt x="700" y="4" on="1"/>
        <pt x="754" y="146" on="0"/>
        <pt x="754" y="272" on="1"/>
        <pt x="754" y="426" on="0"/>
        <pt x="672" y="575" on="1"/>
        <pt x="821" y="493" on="0"/>
        <pt x="975" y="493" on="1"/>
        <pt x="1101" y="493" on="0"/>
        <pt x="1243" y="547" on="1"/>
        <pt x="1268" y="522" on="1"/>
      </contour>
    </TTGlyph>
    <TTGlyph name="arrowupright" xMin="133" yMin="-20" xMax="1268" yMax="1114">
      <component glyphName=".ttfautohint" x="133" y="0" flags="0x0"/>
      <component glyphName="arrowupleft" x="1401" y="0" scalex="-1.0" scaley="1.0" flags="0x0"/>
    </TTGlyph>
    <TTGlyph name="asciicircum" xMin="115" yMin="618" xMax="987" yMax="1081">
      <contour>
        <pt x="363" y="668" on="0"/>
        <pt x="123" y="618" on="1"/>
        <pt x="115" y="647" on="1"/>
        <pt x="274" y="716" on="0"/>
        <pt x="556" y="951" on="0"/>
        <pt x="643" y="1081" on="1"/>
        <pt x="680" y="1081" on="1"/>
        <pt x="701" y="947" on="0"/>
        <pt x="857" y="717" on="0"/>
        <pt x="987" y="649" on="1"/>
        <pt x="975" y="618" on="1"/>
        <pt x="739" y="646" on="0"/>
        <pt x="512" y="741" on="1"/>
      </contour>
    </TTGlyph>
    <TTGlyph name="asciicircum.case" xMin="-49" yMin="1036" xMax="958" yMax="1479">
      <contour>
        <pt x="230" y="1080" on="0"/>
        <pt x="-41" y="1036" on="1"/>
        <pt x="-49" y="1065" on="1"/>
        <pt x="140" y="1131" on="0"/>
        <pt x="470" y="1354" on="0"/>
        <pt x="573" y="1479" on="1"/>
        <pt x="610" y="1479" on="1"/>
        <pt x="634" y="1351" on="0"/>
        <pt x="811" y="1132" on="0"/>
        <pt x="958" y="1067" on="1"/>
        <pt x="946" y="1036" on="1"/>
        <pt x="689" y="1064" on="0"/>
        <pt x="442" y="1159" on="1"/>
      </contour>
    </TTGlyph>
    <TTGlyph name="asciicircum.smcp" xMin="219" yMin="1036" xMax="1227" yMax="1479">
      <contour>
        <pt x="498" y="1079" on="0"/>
        <pt x="227" y="1036" on="1"/>
        <pt x="219" y="1065" on="1"/>
        <pt x="408" y="1131" on="0"/>
        <pt x="740" y="1354" on="0"/>
        <pt x="842" y="1479" on="1"/>
        <pt x="879" y="1479" on="1"/>
        <pt x="903" y="1351" on="0"/>
        <pt x="1079" y="1132" on="0"/>
        <pt x="1227" y="1067" on="1"/>
        <pt x="1214" y="1036" on="1"/>
        <pt x="956" y="1064" on="0"/>
        <pt x="711" y="1159" on="1"/>
      </contour>
    </TTGlyph>
    <TTGlyph name="asciitilde" xMin="74" yMin="403" xMax="1255" yMax="838">
      <contour>
        <pt x="724" y="403" on="0"/>
        <pt x="613" y="445" on="0"/>
        <pt x="540" y="486" on="1"/>
        <pt x="470" y="525" on="0"/>
        <pt x="373" y="563" on="0"/>
        <pt x="313" y="563" on="1"/>
        <pt x="178" y="563" on="0"/>
        <pt x="102" y="444" on="1"/>
        <pt x="74" y="455" on="1"/>
        <pt x="117" y="571" on="0"/>
        <pt x="257" y="744" on="0"/>
        <pt x="436" y="838" on="0"/>
        <pt x="535" y="838" on="1"/>
        <pt x="606" y="838" on="0"/>
        <pt x="716" y="796" on="0"/>
        <pt x="789" y="755" on="1"/>
        <pt x="857" y="716" on="0"/>
        <pt x="956" y="678" on="0"/>
        <pt x="1016" y="678" on="1"/>
        <pt x="1151" y="678" on="0"/>
        <pt x="1227" y="797" on="1"/>
        <pt x="1255" y="786" on="1"/>
        <pt x="1212" y="670" on="0"/>
        <pt x="1072" y="497" on="0"/>
        <pt x="894" y="403" on="0"/>
        <pt x="795" y="403" on="1"/>
      </contour>
    </TTGlyph>
    <TTGlyph name="asciitilde.case" xMin="19" yMin="542" xMax="1200" yMax="977">
      <component glyphName=".ttfautohint" x="19" y="542" flags="0x0"/>
      <component glyphName="asciitilde" x="-55" y="139" flags="0x0"/>
    </TTGlyph>
    <TTGlyph name="asciitilde.smcp" xMin="66" yMin="403" xMax="1247" yMax="838">
      <component glyphName=".ttfautohint" x="66" y="403" flags="0x0"/>
      <component glyphName="asciitilde" x="-8" y="0" flags="0x0"/>
    </TTGlyph>
    <TTGlyph name="asterisk" xMin="173" yMin="629" xMax="1042" yMax="1493">
      <contour>
        <pt x="1042" y="1257" on="0"/>
        <pt x="1042" y="1236" on="1"/>
        <pt x="1042" y="1163" on="0"/>
        <pt x="958" y="1122" on="1"/>
        <pt x="923" y="1104" on="0"/>
        <pt x="836" y="1088" on="0"/>
        <pt x="751" y="1078" on="1"/>
        <pt x="592" y="1056" on="0"/>
        <pt x="628" y="1062" on="1"/>
        <pt x="688" y="1053" on="0"/>
        <pt x="737" y="1047" on="1"/>
        <pt x="819" y="1036" on="0"/>
        <pt x="902" y="1019" on="0"/>
        <pt x="928" y="1001" on="1"/>
        <pt x="967" y="976" on="0"/>
        <pt x="967" y="935" on="1"/>
        <pt x="967" y="894" on="0"/>
        <pt x="928" y="846" on="1"/>
        <pt x="878" y="783" on="0"/>
        <pt x="820" y="783" on="1"/>
        <pt x="790" y="783" on="0"/>
        <pt x="764" y="801" on="1"/>
        <pt x="738" y="819" on="0"/>
        <pt x="696" y="885" on="0"/>
        <pt x="664" y="949" on="1"/>
        <pt x="626" y="1023" on="0"/>
        <pt x="614" y="1044" on="1"/>
        <pt x="623" y="987" on="0"/>
        <pt x="632" y="939" on="1"/>
        <pt x="634" y="925" on="0"/>
        <pt x="650" y="830" on="0"/>
        <pt x="650" y="795" on="1"/>
        <pt x="650" y="764" on="0"/>
        <pt x="643" y="739" on="1"/>
        <pt x="629" y="682" on="0"/>
        <pt x="549" y="629" on="0"/>
        <pt x="502" y="629" on="1"/>
        <pt x="460" y="629" on="0"/>
        <pt x="407" y="665" on="0"/>
        <pt x="407" y="704" on="1"/>
        <pt x="407" y="717" on="0"/>
        <pt x="412" y="739" on="1"/>
        <pt x="421" y="775" on="0"/>
        <pt x="470" y="858" on="0"/>
        <pt x="520" y="932" on="1"/>
        <pt x="567" y="1002" on="0"/>
        <pt x="595" y="1045" on="1"/>
        <pt x="558" y="1010" on="0"/>
        <pt x="496" y="948" on="1"/>
        <pt x="431" y="883" on="0"/>
        <pt x="357" y="817" on="0"/>
        <pt x="324" y="799" on="1"/>
        <pt x="287" y="781" on="0"/>
        <pt x="259" y="781" on="1"/>
        <pt x="229" y="781" on="0"/>
        <pt x="188" y="817" on="0"/>
        <pt x="180" y="844" on="1"/>
        <pt x="173" y="862" on="0"/>
        <pt x="173" y="885" on="1"/>
        <pt x="173" y="958" on="0"/>
        <pt x="256" y="999" on="1"/>
        <pt x="292" y="1017" on="0"/>
        <pt x="381" y="1034" on="0"/>
        <pt x="467" y="1043" on="1"/>
        <pt x="489" y="1046" on="0"/>
        <pt x="551" y="1053" on="0"/>
        <pt x="592" y="1059" on="1"/>
        <pt x="536" y="1067" on="0"/>
        <pt x="480" y="1074" on="1"/>
        <pt x="396" y="1085" on="0"/>
        <pt x="312" y="1102" on="0"/>
        <pt x="287" y="1120" on="1"/>
        <pt x="248" y="1145" on="0"/>
        <pt x="248" y="1187" on="1"/>
        <pt x="248" y="1230" on="0"/>
        <pt x="287" y="1276" on="1"/>
        <pt x="337" y="1339" on="0"/>
        <pt x="395" y="1339" on="1"/>
        <pt x="425" y="1339" on="0"/>
        <pt x="451" y="1321" on="1"/>
        <pt x="477" y="1303" on="0"/>
        <pt x="518" y="1238" on="0"/>
        <pt x="552" y="1171" on="1"/>
        <pt x="583" y="1109" on="0"/>
        <pt x="602" y="1073" on="1"/>
        <pt x="598" y="1102" on="0"/>
        <pt x="584" y="1181" on="1"/>
        <pt x="565" y="1289" on="0"/>
        <pt x="565" y="1328" on="1"/>
        <pt x="565" y="1356" on="0"/>
        <pt x="571" y="1382" on="1"/>
        <pt x="586" y="1439" on="0"/>
        <pt x="666" y="1493" on="0"/>
        <pt x="715" y="1493" on="1"/>
        <pt x="755" y="1493" on="0"/>
        <pt x="807" y="1455" on="0"/>
        <pt x="807" y="1416" on="1"/>
        <pt x="807" y="1398" on="0"/>
        <pt x="803" y="1382" on="1"/>
        <pt x="794" y="1347" on="0"/>
        <pt x="747" y="1268" on="0"/>
        <pt x="699" y="1197" on="1"/>
        <pt x="664" y="1145" on="0"/>
        <pt x="622" y="1080" on="1"/>
        <pt x="657" y="1113" on="0"/>
        <pt x="716" y="1172" on="1"/>
        <pt x="780" y="1236" on="0"/>
        <pt x="857" y="1305" on="0"/>
        <pt x="891" y="1323" on="1"/>
        <pt x="929" y="1341" on="0"/>
        <pt x="956" y="1341" on="1"/>
        <pt x="986" y="1341" on="0"/>
        <pt x="1026" y="1306" on="0"/>
        <pt x="1034" y="1278" on="1"/>
      </contour>
    </TTGlyph>
    <TTGlyph name="at" xMin="55" yMin="-289" xMax="1722" yMax="1286">
      <contour>
        <pt x="908" y="53" on="0"/>
        <pt x="908" y="199" on="1"/>
        <pt x="908" y="211" on="0"/>
        <pt x="910" y="239" on="1"/>
        <pt x="812" y="53" on="0"/>
        <pt x="627" y="53" on="1"/>
        <pt x="519" y="53" on="0"/>
        <pt x="379" y="172" on="0"/>
        <pt x="379" y="305" on="1"/>
        <pt x="379" y="443" on="0"/>
        <pt x="531" y="762" on="0"/>
        <pt x="786" y="979" on="0"/>
        <pt x="932" y="979" on="1"/>
        <pt x="1011" y="979" on="0"/>
        <pt x="1083" y="908" on="0"/>
        <pt x="1085" y="839" on="1"/>
        <pt x="1118" y="950" on="1"/>
        <pt x="1311" y="950" on="0"/>
        <pt x="1427" y="979" on="1"/>
        <pt x="1210" y="248" on="1"/>
        <pt x="1197" y="203" on="0"/>
        <pt x="1197" y="174" on="1"/>
        <pt x="1197" y="129" on="0"/>
        <pt x="1235" y="129" on="1"/>
        <pt x="1295" y="129" on="0"/>
        <pt x="1510" y="267" on="0"/>
        <pt x="1679" y="538" on="0"/>
        <pt x="1679" y="729" on="1"/>
        <pt x="1679" y="903" on="0"/>
        <pt x="1525" y="1135" on="0"/>
        <pt x="1248" y="1249" on="0"/>
        <pt x="1061" y="1249" on="1"/>
        <pt x="764" y="1249" on="0"/>
        <pt x="326" y="982" on="0"/>
        <pt x="98" y="563" on="0"/>
        <pt x="98" y="342" on="1"/>
        <pt x="98" y="136" on="0"/>
        <pt x="294" y="-132" on="0"/>
        <pt x="614" y="-254" on="0"/>
        <pt x="805" y="-254" on="1"/>
        <pt x="951" y="-254" on="0"/>
        <pt x="1228" y="-185" on="0"/>
        <pt x="1341" y="-121" on="1"/>
        <pt x="1354" y="-147" on="1"/>
        <pt x="1252" y="-212" on="0"/>
        <pt x="970" y="-289" on="0"/>
        <pt x="807" y="-289" on="1"/>
        <pt x="607" y="-289" on="0"/>
        <pt x="267" y="-165" on="0"/>
        <pt x="55" y="116" on="0"/>
        <pt x="55" y="338" on="1"/>
        <pt x="55" y="571" on="0"/>
        <pt x="291" y="1008" on="0"/>
        <pt x="748" y="1286" on="0"/>
        <pt x="1061" y="1286" on="1"/>
        <pt x="1264" y="1286" on="0"/>
        <pt x="1560" y="1161" on="0"/>
        <pt x="1722" y="912" on="0"/>
        <pt x="1722" y="731" on="1"/>
        <pt x="1722" y="518" on="0"/>
        <pt x="1515" y="210" on="0"/>
        <pt x="1214" y="53" on="0"/>
        <pt x="1079" y="53" on="1"/>
      </contour>
      <contour>
        <pt x="823" y="176" on="0"/>
        <pt x="912" y="290" on="0"/>
        <pt x="954" y="408" on="1"/>
        <pt x="1057" y="747" on="1"/>
        <pt x="1061" y="777" on="0"/>
        <pt x="1061" y="796" on="1"/>
        <pt x="1061" y="891" on="0"/>
        <pt x="999" y="891" on="1"/>
        <pt x="947" y="891" on="0"/>
        <pt x="804" y="711" on="0"/>
        <pt x="700" y="436" on="0"/>
        <pt x="700" y="299" on="1"/>
        <pt x="700" y="234" on="0"/>
        <pt x="731" y="176" on="0"/>
        <pt x="768" y="176" on="1"/>
      </contour>
    </TTGlyph>
    <TTGlyph name="at.case" xMin="102" yMin="-113" xMax="1769" yMax="1462">
      <component glyphName=".ttfautohint" x="102" y="0" flags="0x0"/>
      <component glyphName="at" x="47" y="176" flags="0x0"/>
    </TTGlyph>
    <TTGlyph name="at.smcp" xMin="61" yMin="-228" xMax="1728" yMax="1347">
      <component glyphName=".ttfautohint" x="61" y="0" flags="0x0"/>
      <component glyphName="at" x="6" y="61" flags="0x0"/>
    </TTGlyph>
    <TTGlyph name="atilde" xMin="-197" yMin="0" xMax="1428" yMax="1737">
      <component glyphName=".ttfautohint" x="0" y="0" flags="0x0"/>
      <component glyphName="a" x="0" y="0" flags="0x0"/>
      <component glyphName="tilde.smcp" x="439" y="0" flags="0x0"/>
    </TTGlyph>
</ttFont>
